<svg xmlns="http://www.w3.org/2000/svg" enable-background="new 0 0 66 66" viewBox="0 0 66 66"><path d="M33,47.84c-4.71,0-8.55,3.84-8.55,8.55c0,4.71,3.83,8.55,8.55,8.55s8.55-3.83,8.55-8.55C41.55,51.67,37.72,47.84,33,47.84z
		 M33,63.47c-3.91,0-7.08-3.18-7.08-7.08c0-3.91,3.18-7.08,7.08-7.08s7.08,3.18,7.08,7.08C40.09,60.29,36.91,63.47,33,63.47z"/><path d="M33 52.72c-2.02 0-3.66 1.64-3.66 3.66 0 2.02 1.64 3.66 3.66 3.66s3.66-1.64 3.66-3.66C36.67 54.37 35.02 52.72 33 52.72zM33 58.58c-1.21 0-2.2-.99-2.2-2.2s.99-2.2 2.2-2.2c1.21 0 2.2.99 2.2 2.2S34.22 58.58 33 58.58zM26.47 44.1c.12 0 .25-.03.36-.1.35-.2.47-.65.27-1-3.1-5.44-8.36-9.27-14.43-10.5-.21-.05-.44.01-.61.15C11.9 32.79 11.8 33 11.8 33.22v2.38l-8.88-6.97 8.88-6.98v3.1c0 .36.27.67.63.73 4.94.71 9.64 2.75 13.59 5.9.32.25.78.2 1.03-.12.25-.32.2-.78-.12-1.03-3.99-3.18-8.7-5.28-13.67-6.11v-3.98c0-.28-.16-.54-.41-.66-.25-.12-.55-.09-.77.08l-10.8 8.48C1.1 28.2 1 28.41 1 28.63c0 .23.1.44.28.58l10.8 8.47c.22.17.52.21.77.08.25-.12.41-.38.41-.66v-2.97c5.29 1.32 9.83 4.78 12.57 9.59C25.97 43.96 26.22 44.1 26.47 44.1zM64.72 28.06l-10.79-8.48c-.22-.17-.52-.21-.77-.08-.25.12-.41.38-.41.66v3.98c-4.96.82-9.67 2.93-13.66 6.1-.32.25-.37.71-.12 1.03.25.32.71.37 1.03.12 3.96-3.15 8.66-5.19 13.59-5.9.36-.05.63-.36.63-.73v-3.1l8.87 6.97-8.87 6.97v-2.38c0-.22-.1-.43-.27-.57-.17-.14-.39-.19-.61-.15C47.26 33.73 42 37.56 38.9 42.99c-.2.35-.08.8.27 1 .11.07.24.1.36.1.25 0 .5-.13.64-.37 2.74-4.8 7.29-8.26 12.57-9.58v2.97c0 .28.16.54.41.66.25.12.55.09.77-.08l10.79-8.47C64.9 29.07 65 28.86 65 28.63 65 28.41 64.9 28.2 64.72 28.06z"/><path d="M24.53,13.33h4.15v32.94c0,0.4,0.33,0.73,0.73,0.73s0.73-0.33,0.73-0.73V12.59c0-0.4-0.33-0.73-0.73-0.73h-3.37l6.98-8.88
		l6.97,8.88h-3.37c-0.4,0-0.73,0.33-0.73,0.73v33.68c0,0.4,0.33,0.73,0.73,0.73c0.4,0,0.73-0.33,0.73-0.73V13.33h4.14
		c0.28,0,0.54-0.16,0.66-0.41c0.12-0.25,0.09-0.55-0.08-0.77l-8.47-10.8c-0.14-0.18-0.35-0.28-0.58-0.28c-0.23,0-0.44,0.1-0.58,0.28
		l-8.48,10.8c-0.17,0.22-0.21,0.52-0.08,0.77C23.99,13.17,24.25,13.33,24.53,13.33z"/></svg>