<svg xmlns="http://www.w3.org/2000/svg" enable-background="new 0 0 100 100" viewBox="0 0 100 100"><path d="M37.278,80.25c0,0.924-0.756,1.68-1.681,1.68c-0.924,0-1.681-0.756-1.681-1.68c0-0.925,0.757-1.681,1.681-1.681
	C36.521,78.57,37.278,79.326,37.278,80.25z M31.514,61.764v5.041v5.042c0,0.928-0.752,1.681-1.681,1.681
	c-0.928,0-1.68-0.752-1.68-1.681v-3.361h-3.361v3.361c0,0.928-0.752,1.681-1.681,1.681c-0.928,0-1.68-0.752-1.68-1.681v-5.042
	v-5.041c0-3.016,2.026-5.042,5.041-5.042C29.488,56.722,31.514,58.749,31.514,61.764z M28.153,65.125v-3.361
	c0-0.783-0.191-1.681-1.681-1.681c-1.489,0-1.68,0.898-1.68,1.681v3.361H28.153z M51.188,45.859
	c-0.437,0.437-0.937,0.771-1.47,1.014c-0.448,0.205-0.919,0.34-1.399,0.407c-0.231,0.032-0.463,0.054-0.696,0.054
	c-0.578,0-1.154-0.104-1.704-0.301c-0.679-0.243-1.317-0.63-1.86-1.173c0,0,0,0,0,0l-2.377-2.377c-0.657-0.657-0.657-1.721,0-2.377
	l4.754-4.752l0.204-0.203l1.68-1.681L50,32.787l1.188-1.188c0.63-0.63,1.746-0.63,2.377,0l1.785,1.785l0.591,0.591
	c0.271,0.272,0.502,0.568,0.698,0.88c0.592,0.939,0.845,2.031,0.757,3.101c-0.063,0.77-0.305,1.526-0.719,2.207
	c-0.205,0.335-0.446,0.653-0.735,0.943c-0.494,0.495-1.074,0.871-1.706,1.122c-0.501,0.198-1.035,0.313-1.585,0.342
	c-0.057,1.041-0.428,2.066-1.124,2.917C51.42,45.614,51.308,45.739,51.188,45.859z M50,37.541l1.188,1.188
	c0.637,0.636,1.743,0.632,2.375,0.001c0.028-0.027,0.047-0.059,0.073-0.088c0.268-0.307,0.421-0.691,0.421-1.102
	c0-0.049-0.01-0.097-0.014-0.147c-0.034-0.392-0.196-0.759-0.478-1.041l-1.188-1.188L50,37.541z M48.812,41.105l-0.493-0.492
	l-0.696-0.696l-0.984,0.985l-1.393,1.391l1.188,1.189c0.064,0.063,0.134,0.115,0.205,0.167c0.495,0.361,1.138,0.416,1.68,0.169
	c0.178-0.081,0.347-0.189,0.493-0.335C49.466,42.827,49.466,41.761,48.812,41.105z M90.333,55.042v20.166
	c0,3.707-3.015,6.722-6.722,6.722H63.444c-3.707,0-6.722-3.016-6.722-6.722V56.96l-1.969,1.97c-1.269,1.27-2.958,1.969-4.753,1.969
	c-1.795,0-3.483-0.699-4.753-1.969l-1.97-1.97v18.248c0,0.958-0.219,1.933-0.605,2.789c-0.208,0.464-0.631,0.782-1.106,0.912
	c-0.369,0.101-0.769,0.09-1.129-0.072c-0.404-0.201-0.723-0.537-0.874-0.958c-0.152-0.42-0.135-0.874,0.05-1.278
	c0.202-0.437,0.303-0.907,0.303-1.394V55.042c0-1.849-1.513-3.362-3.361-3.362H23.111h-6.722c-1.849,0-3.361,1.513-3.361,3.362
	v20.166c0,1.848,1.512,3.361,3.361,3.361h12.486h0.017c0.924,0.016,1.663,0.756,1.663,1.681c0,0.924-0.756,1.68-1.68,1.68H16.389
	c-3.714,0-6.722-3.008-6.722-6.722V55.042c0-3.714,3.008-6.723,6.722-6.723h0.91c-0.575-0.99-0.91-2.136-0.91-3.361V24.792
	c0-3.707,3.016-6.723,6.722-6.723h20.167c1.555,0,2.984,0.536,4.124,1.426c2.445-0.977,5.436-0.508,7.351,1.409l3.55,3.55
	c1.387-3.095,4.925-4.716,8.216-3.64l19.174,6.252c3.525,1.149,5.457,4.951,4.308,8.475l-4.28,13.123
	C88.397,49.552,90.333,52.073,90.333,55.042z M86.972,55.042c0-1.479-0.962-2.736-2.292-3.184c-0.337-0.113-0.695-0.178-1.069-0.178
	H82.97h-1.768H63.607h-0.163c-0.909,0-1.733,0.364-2.339,0.953c-0.414,0.402-0.724,0.909-0.888,1.477
	c-0.085,0.296-0.134,0.608-0.134,0.932v20.166c0,1.854,1.509,3.361,3.361,3.361h20.167c1.853,0,3.361-1.507,3.361-3.361V55.042z
	 M34.637,48.319l-3.65-3.65c-1.27-1.269-1.97-2.957-1.97-4.753c0-1.796,0.7-3.484,1.97-4.753L44.491,21.66
	c-0.377-0.146-0.785-0.23-1.213-0.23H23.111c-1.854,0-3.361,1.508-3.361,3.362v20.166c0,1.854,1.508,3.361,3.361,3.361H34.637z
	 M47.623,56.554c1.271,1.27,3.483,1.27,4.753,0l3.77-3.771l1.333-1.333l1.333-1.333l7.824-7.824
	c0.635-0.635,0.985-1.478,0.985-2.376c0-0.898-0.35-1.741-0.985-2.376l-6.866-6.866l-1.334-1.333l-1.334-1.334l-4.727-4.727
	c-0.635-0.635-1.479-0.985-2.377-0.985c-0.16,0-0.317,0.015-0.472,0.037c-0.429,0.06-0.837,0.201-1.208,0.416
	c-0.25,0.145-0.485,0.321-0.696,0.532l-1.024,1.024L33.363,37.541c-0.635,0.635-0.985,1.478-0.985,2.376
	c0,0.898,0.35,1.741,0.985,2.376l6.026,6.026L41.07,50l1.681,1.68L47.623,56.554z M61.242,26.162l-0.302,0.928l8.074,8.073
	c1.271,1.269,1.969,2.957,1.969,4.753c0,1.795-0.699,3.483-1.969,4.753l-3.65,3.65h16.935l4.507-13.821
	c0.576-1.762-0.391-3.663-2.152-4.237L65.48,24.009c-0.346-0.112-0.696-0.166-1.041-0.166
	C63.023,23.843,61.703,24.745,61.242,26.162z M77.337,60.083h-7.619c-2.532,0-4.594,1.961-4.594,4.37v1.344
	c0,2.409,2.061,4.37,4.594,4.37c0.929,0,1.681-0.753,1.681-1.681c0-0.928-0.752-1.681-1.681-1.681c-0.668,0-1.232-0.462-1.232-1.008
	v-1.344c0-0.547,0.565-1.009,1.232-1.009h7.619c0.668,0,1.232,0.462,1.232,1.009v1.344c0,0.546-0.564,1.008-1.232,1.008
	c-0.929,0-1.681,0.752-1.681,1.681c0,0.928,0.752,1.681,1.681,1.681c2.532,0,4.594-1.961,4.594-4.37v-1.344
	C81.931,62.044,79.869,60.083,77.337,60.083z"/></svg>