<svg xmlns="http://www.w3.org/2000/svg" viewBox="0 0 64 64"><path fill="#FFF" d="M61 29H37c-1.1 0-2-.9-2-2V3c0-1.1.9-2 2-2h24c1.1 0 2 .9 2 2v24c0 1.1-.9 2-2 2z"/><path fill="#F16051" d="M39.6 5.6l6.8 18.8L50 16l8.4-3.6z"/><path fill="#FFF" d="M27 29H3c-1.1 0-2-.9-2-2V3c0-1.1.9-2 2-2h24c1.1 0 2 .9 2 2v24c0 1.1-.9 2-2 2z"/><path fill="#FDBF5E" d="M5 5h8.7v8.7H5z"/><path fill="#D3D7DA" d="M16.3 5H25v8.7h-8.7zM5 16.3h8.7V25H5z"/><path fill="#FDBF5E" d="M16.3 16.3H25V25h-8.7z"/><path fill="#FFF" d="M61 63H37c-1.1 0-2-.9-2-2V37c0-1.1.9-2 2-2h24c1.1 0 2 .9 2 2v24c0 1.1-.9 2-2 2z"/><path fill="#2EA2DB" d="M54 58V40h4l-.1 18z"/><path fill="#D3D7DA" d="M47 57.9l.1-13.5H51l-.1 13.5z"/><path fill="#E1E6E9" d="M40 57.9l.1-10.2H44v10.2z"/><g><path fill="#FFF" d="M27 63H3c-1.1 0-2-.9-2-2V37c0-1.1.9-2 2-2h24c1.1 0 2 .9 2 2v24c0 1.1-.9 2-2 2z"/><g fill="#193651"><path d="M61 0H37c-1.7 0-3 1.3-3 3v24c0 1.7 1.3 3 3 3h24c1.7 0 3-1.3 3-3V3c0-1.7-1.3-3-3-3zm1 27c0 .6-.4 1-1 1H37c-.6 0-1-.4-1-1V3c0-.6.4-1 1-1h24c.6 0 1 .4 1 1v24zM27 0H3C1.3 0 0 1.3 0 3v24c0 1.7 1.3 3 3 3h24c1.7 0 3-1.3 3-3V3c0-1.7-1.3-3-3-3zm1 27c0 .6-.4 1-1 1H3c-.6 0-1-.4-1-1V3c0-.6.4-1 1-1h24c.6 0 1 .4 1 1v24zM61 34H37c-1.7 0-3 1.3-3 3v24c0 1.7 1.3 3 3 3h24c1.7 0 3-1.3 3-3V37c0-1.7-1.3-3-3-3zm1 27c0 .6-.4 1-1 1H37c-.6 0-1-.4-1-1V37c0-.6.4-1 1-1h24c.6 0 1 .4 1 1v24zM27 34H3c-1.7 0-3 1.3-3 3v24c0 1.7 1.3 3 3 3h24c1.7 0 3-1.3 3-3V37c0-1.7-1.3-3-3-3zm1 27c0 .6-.4 1-1 1H3c-.6 0-1-.4-1-1V37c0-.6.4-1 1-1h24c.6 0 1 .4 1 1v24z"/></g></g><g><path fill="#4FBF9F" d="M5.8 53.4h5.6l7.9 5.6V39l-7.9 5.6H5.8z"/><g fill="#193651"><path d="M22.2 53.9h2v2h-2zM22.2 48h2v2h-2zM22.2 42.1h2v2h-2z"/></g></g></svg>