<svg xmlns="http://www.w3.org/2000/svg" enable-background="new 0 0 24 24" viewBox="0 0 24 24"><path fill="none" stroke="#ffffff" stroke-linecap="round" stroke-linejoin="round" d="M21.5,12.6V3c0-0.8-0.7-1.5-1.5-1.5H3C2.2,1.5,1.5,2.2,1.5,3v17c0,0.8,0.7,1.5,1.5,1.5h9.6" class="colorStroke303c42 svgStroke"/><circle cx="16" cy="16" r="6.5" fill="none" stroke="#ffffff" stroke-linecap="round" stroke-linejoin="round" class="colorStroke303c42 svgStroke"/><line x1="4.5" x2="8.5" y1="6.5" y2="6.5" fill="none" stroke="#ffffff" stroke-linecap="round" stroke-linejoin="round" class="colorStroke303c42 svgStroke"/><line x1="6.5" x2="6.5" y1="8.5" y2="4.5" fill="none" stroke="#ffffff" stroke-linecap="round" stroke-linejoin="round" class="colorStroke303c42 svgStroke"/><line x1="18.5" x2="14.5" y1="6.5" y2="6.5" fill="none" stroke="#ffffff" stroke-linecap="round" stroke-linejoin="round" class="colorStroke303c42 svgStroke"/><line x1="5" x2="8" y1="15" y2="18" fill="none" stroke="#ffffff" stroke-linecap="round" stroke-linejoin="round" class="colorStroke303c42 svgStroke"/><line x1="5" x2="8" y1="18" y2="15" fill="none" stroke="#ffffff" stroke-linecap="round" stroke-linejoin="round" class="colorStroke303c42 svgStroke"/><line x1="13.5" x2="18.5" y1="14.5" y2="14.5" fill="none" stroke="#ffffff" stroke-linecap="round" stroke-linejoin="round" class="colorStroke303c42 svgStroke"/><line x1="13.5" x2="18.5" y1="17.5" y2="17.5" fill="none" stroke="#ffffff" stroke-linecap="round" stroke-linejoin="round" class="colorStroke303c42 svgStroke"/><line x1="1.5" x2="11.3" y1="11.5" y2="11.5" fill="none" stroke="#ffffff" stroke-linecap="round" stroke-linejoin="round" class="colorStroke303c42 svgStroke"/><line x1="11.5" x2="11.5" y1="11.3" y2="1.5" fill="none" stroke="#ffffff" stroke-linecap="round" stroke-linejoin="round" class="colorStroke303c42 svgStroke"/></svg>