<svg xmlns="http://www.w3.org/2000/svg" fill-rule="evenodd" stroke-linejoin="round" stroke-miterlimit="2" clip-rule="evenodd" viewBox="0 0 64 64"><rect width="64" height="64" fill="none"/><path d="M778,44L778,12C778,8.689 775.311,6 772,6L732,6C728.689,6 726,8.689 726,12L726,52C726,55.311 728.689,58 732,58C732,58 772,58 772,58C775.311,58 778,55.311 778,52C778,50.896 777.104,50 776,50C774.896,50 774,50.896 774,52C774,53.104 773.104,54 772,54L732,54C730.896,54 730,53.104 730,52C730,52 730,12 730,12C730,10.896 730.896,10 732,10C732,10 772,10 772,10C773.104,10 774,10.896 774,12C774,12 774,44 774,44C774,45.104 774.896,46 776,46C777.104,46 778,45.104 778,44Z" transform="translate(-720)"/><path d="M750,8L750,56C750,57.104 750.896,58 752,58C753.104,58 754,57.104 754,56L754,8C754,6.896 753.104,6 752,6C750.896,6 750,6.896 750,8Z" transform="translate(-720)"/><path d="M728,34L776,34C777.104,34 778,33.104 778,32C778,30.896 777.104,30 776,30L728,30C726.896,30 726,30.896 726,32C726,33.104 726.896,34 728,34Z" transform="translate(-720)"/><path d="M738,14L738,26C738,27.656 738.896,29 740,29C741.104,29 742,27.656 742,26L742,14C742,12.344 741.104,11 740,11C738.896,11 738,12.344 738,14Z" transform="matrix(1 0 0 .66667 -720 6.667)"/><path d="M738,14L738,26C738,27.656 738.896,29 740,29C741.104,29 742,27.656 742,26L742,14C742,12.344 741.104,11 740,11C738.896,11 738,12.344 738,14Z" transform="matrix(0 1 -.66667 0 33.333 -720)"/><path d="M738,14L738,26C738,27.656 738.896,29 740,29C741.104,29 742,27.656 742,26L742,14C742,12.344 741.104,11 740,11C738.896,11 738,12.344 738,14Z" transform="rotate(45 343.19 -840.536) scale(1 .66667)"/><path d="M738,14L738,26C738,27.656 738.896,29 740,29C741.104,29 742,27.656 742,26L742,14C742,12.344 741.104,11 740,11C738.896,11 738,12.344 738,14Z" transform="rotate(135 373.684 -120.536) scale(1 .66667)"/><path d="M738,14L738,26C738,27.656 738.896,29 740,29C741.104,29 742,27.656 742,26L742,14C742,12.344 741.104,11 740,11C738.896,11 738,12.344 738,14Z" transform="matrix(0 1 -.66667 0 57.333 -720)"/><path d="M738,14L738,26C738,27.656 738.896,29 740,29C741.104,29 742,27.656 742,26L742,14C742,12.344 741.104,11 740,11C738.896,11 738,12.344 738,14Z" transform="rotate(-135 398.351 172.813) scale(1 .66667)"/></svg>