<svg xmlns="http://www.w3.org/2000/svg" enable-background="new 0 0 500 500" viewBox="0 0 500 500"><path fill="none" stroke="#333" stroke-linecap="round" stroke-linejoin="round" stroke-miterlimit="10" stroke-width="15" d="
			M86.884,450.709c0,0-64.562-15.13-64.562-85.86c0-65.253,68.981-86.49,83.123-135.986S92.436,136,92.436,136
			s59.854,19.504,79.298,81.373c19.445,61.869-36.019,69.517-14.142,103.41c14.733,22.825,63.38,1.362,51.933-45.853
			c0,0,88.709,102.302-10.016,175.78"/><path fill="none" stroke="#333" stroke-linecap="round" stroke-linejoin="round" stroke-miterlimit="10" stroke-width="15" d="M120.962 450.709c0 0-33.178-24.358-5.309-46.763 16.782-13.491 17.814-28.184 7.197-46.763 33.944 6.13 78.402 49.925 36.598 93.527M347.534 333.608c0 0-14.752-42.924 10.578-84.215 30.26-49.327-4.498-132.159-4.498-132.159"/><path fill="none" stroke="#333" stroke-linecap="round" stroke-linejoin="round" stroke-miterlimit="10" stroke-width="15" d="
			M243.5,458.5c50,3,95.357-16.545,108.306-24.41c6.49-3.942,13.527-6.869,20.873-8.793c26.314-6.891,66.494-30.239,86.61-42.564
			c7.8-4.779,12.286-13.499,11.651-22.624c-7.32-105.205-61.243-284.846-61.243-284.846l-31.006-31.651
			c-5.306-5.416-12.989-7.786-20.424-6.299l-66.523,13.304c-4.95,0.99-8.928,4.671-10.298,9.529l-14.664,51.991
			c-1.845,6.543,1.624,13.409,7.986,15.805l35.85,13.503c3.721,1.402,7.919,0.075,10.158-3.211l5.42-8.18"/><path fill="none" stroke="#333" stroke-linecap="round" stroke-linejoin="round" stroke-miterlimit="10" stroke-width="15" d="
			M331.068,76.149l-9.231,36.538c-1.465,5.801,1.247,11.848,6.553,14.612l0.994,0.518c5.544,2.888,12.361,1.388,16.181-3.56
			l23.397-30.299"/><line x1="308.137" x2="320.787" y1="87.321" y2="101.48" fill="none" stroke="#333" stroke-linecap="round" stroke-linejoin="round" stroke-miterlimit="10" stroke-width="15"/><path fill="none" stroke="#333" stroke-linecap="round" stroke-linejoin="round" stroke-miterlimit="10" stroke-width="15" d="
			M342.397,316.238c0,0-37.339-36.615-92.397-44.61"/></svg>