<svg xmlns="http://www.w3.org/2000/svg" viewBox="0 0 512 512"><g data-name="33.Cart"><path fill="gray" d="M325.83,402.8a42.1476,42.1476,0,1,1-1.61-11.55A42.2021,42.2021,0,0,1,325.83,402.8Z"/><circle cx="283.671" cy="402.798" r="23.667" fill="#fff"/><path fill="gray" d="M188.32,402.8a42.1471,42.1471,0,1,1-1.61-11.55A42.2082,42.2082,0,0,1,188.32,402.8Z"/><circle cx="146.158" cy="402.798" r="23.667" fill="#fff"/><path fill="#cfdce5" d="M426.7 89.13a18.9717 18.9717 0 0 0 6.19 14.05H407.03L370.55 377.01a16.35 16.35 0 0 1-18.37 14.05c-.15-.02-.29-.05-.43-.08a15.6247 15.6247 0 0 1-2.84.27H324.22a42.2255 42.2255 0 0 0-40.55-30.61v-.5h56.12L376.05 87.98a16.5508 16.5508 0 0 1 .72-3.09 15.5556 15.5556 0 0 1 15.31-12.83h40.81a18.9717 18.9717 0 0 0-6.19 14.05zM146.16 360.14v.5a42.2254 42.2254 0 0 0-40.55 30.61H82.92a15.555 15.555 0 1 1 0-31.11zM283.67 360.14v.5a42.2338 42.2338 0 0 0-40.55 30.61H186.71a42.2338 42.2338 0 0 0-40.55-30.61v-.5z"/><path fill="#ffebb9" d="M65.817,313.9662H330.7818a20.0749,20.0749,0,0,0,19.9069-17.4828l19.8657-152.5691a20.0749,20.0749,0,0,0-19.9068-22.6669H26.0854a20.0749,20.0749,0,0,0-19.4269,25.134L46.39,298.95A20.0749,20.0749,0,0,0,65.817,313.9662Z"/><path fill="#85bc95" d="M216.4047,259.2116c19.8632,0,35.9655-10.6143,35.9655-10.6143a74.389,74.389,0,0,0-28.07-10.0734c1.9182-1.7136,3.8461-3.5332,5.7629-5.45,16.4248-16.4247,20.9626-38.5164,20.9626-38.5164S228.9344,199.0954,212.51,215.52a130.9973,130.9973,0,0,0-11.9419,13.6454,144.6285,144.6285,0,0,0,2.2054-25.9587c0-26.9533-14.403-48.8033-14.403-48.8033s-14.4031,21.85-14.4031,48.8033a144.6377,144.6377,0,0,0,2.2054,25.9587A130.9957,130.9957,0,0,0,164.2307,215.52c-16.4247-16.4247-38.5164-20.9626-38.5164-20.9626s4.5379,22.0917,20.9626,38.5164c1.9168,1.9168,3.8448,3.7364,5.763,5.45a74.389,74.389,0,0,0-28.07,10.0734s16.1022,10.6143,35.9654,10.6143c2.1164,0,4.19-.0545,6.2056-.1579a43.0575,43.0575,0,0,0-6.949,15.0484s10.9216-2.2435,19.0415-10.3635c1.2932-1.2932,2.4971-2.5964,3.5994-3.8838l-1.3462,15.3686a5.144,5.144,0,0,0,5.1244,5.5928h4.7178a5.1439,5.1439,0,0,0,5.1243-5.5928l-1.3461-15.3686c1.1022,1.2873,2.3062,2.5906,3.5993,3.8838,8.12,8.12,19.0416,10.3635,19.0416,10.3635a43.0575,43.0575,0,0,0-6.949-15.0484C212.2152,259.1571,214.2884,259.2116,216.4047,259.2116Z"/><path fill="#e9986b" d="M506,86.11v3.02a19.0726,19.0726,0,0,1-19.07,19.07H445.77A19.0933,19.0933,0,0,1,426.7,89.13V86.11a19.0754,19.0754,0,0,1,19.07-19.06h41.16A19.0641,19.0641,0,0,1,506,86.11Z"/><path d="M283.67,449.95a47.16,47.16,0,1,1,47.16-47.15A47.2086,47.2086,0,0,1,283.67,449.95Zm0-84.3106a37.1475,37.1475,0,1,0,35.7432,26.9854A37.3182,37.3182,0,0,0,283.67,365.64Z"/><path d="M283.6708 431.4648a28.667 28.667 0 1 1 28.667-28.6669A28.7 28.7 0 0 1 283.6708 431.4648zm0-47.3339a18.667 18.667 0 1 0 18.667 18.667A18.6882 18.6882 0 0 0 283.6708 384.1309zM146.16 449.95a47.161 47.161 0 1 1 47.16-47.15A47.2086 47.2086 0 0 1 146.16 449.95zm0-84.3106a37.1475 37.1475 0 1 0 35.7426 26.9854A37.32 37.32 0 0 0 146.16 365.64z"/><path d="M146.1578,431.4648a28.667,28.667,0,1,1,28.6672-28.6669A28.7,28.7,0,0,1,146.1578,431.4648Zm0-47.3339a18.667,18.667,0,1,0,18.6672,18.667A18.6882,18.6882,0,0,0,146.1578,384.1309Z"/><path d="M105.61,396.25H82.92a20.5552,20.5552,0,1,1,0-41.11h63.24a5,5,0,0,1,5,5v.5a5,5,0,0,1-5,5A37.3192,37.3192,0,0,0,110.4185,392.62,5,5,0,0,1,105.61,396.25ZM82.92,365.14a10.5552,10.5552,0,1,0,0,21.11h19.0783a47.2181,47.2181,0,0,1,15.8563-21.11Z"/><path d="M243.12,396.25H186.71a5,5,0,0,1-4.8086-3.63A37.3182,37.3182,0,0,0,146.16,365.64a5,5,0,0,1-5-5v-.5a5,5,0,0,1,5-5H283.67a5,5,0,0,1,5,5v.5a5,5,0,0,1-5,5A37.3182,37.3182,0,0,0,247.9287,392.62,5,5,0,0,1,243.12,396.25Zm-52.7983-10h49.1865a47.2118,47.2118,0,0,1,15.856-21.11H174.4658A47.2118,47.2118,0,0,1,190.3218,386.25Z"/><path d="M348.91,396.25H324.22a5,5,0,0,1-4.8086-3.63A37.3192,37.3192,0,0,0,283.67,365.64a5,5,0,0,1-5-5v-.5a5,5,0,0,1,5-5H335.412L371.0936,87.32a21.4913,21.4913,0,0,1,.8205-3.665A20.5154,20.5154,0,0,1,392.08,67.06h40.81a5,5,0,0,1,3.3724,8.6914A14.06,14.06,0,0,0,431.7,86.11v3.02a14.0555,14.0555,0,0,0,4.5616,10.3574A5,5,0,0,1,432.89,108.18H411.4083L375.506,377.67a21.3485,21.3485,0,0,1-23.7556,18.375A20.1889,20.1889,0,0,1,348.91,396.25Zm-21.0783-10H348.91a10.6582,10.6582,0,0,0,1.9316-.1865,5.0209,5.0209,0,0,1,1.9314.0224l.131.0274a11.3512,11.3512,0,0,0,12.6892-9.7627L402.0741,102.52a5,5,0,0,1,4.9562-4.34h16.4421A24.0426,24.0426,0,0,1,421.7,89.13V86.11a24.0415,24.0415,0,0,1,1.7727-9.0508H392.08a10.53,10.53,0,0,0-10.3866,8.7011,4.9652,4.9652,0,0,1-.18.71,11.6423,11.6423,0,0,0-.506,2.1592L344.7462,360.8a5,5,0,0,1-4.9562,4.34H311.9756A47.2188,47.2188,0,0,1,327.8319,386.25Z"/><path d="M330.7819,318.9658H65.8169A25.0807,25.0807,0,0,1,41.5514,300.21L1.82,147.6416a25.0753,25.0753,0,0,1,24.2656-31.3945H350.6476a25.0746,25.0746,0,0,1,24.865,28.3125L355.6467,297.1289A25.1382,25.1382,0,0,1,330.7819,318.9658ZM26.0854,126.2471a15.0751,15.0751,0,0,0-14.5883,18.875L51.2286,297.69a15.0783,15.0783,0,0,0,14.5883,11.2754h264.965a15.1127,15.1127,0,0,0,14.9486-13.1279l19.8658-152.5693a15.0745,15.0745,0,0,0-14.9487-17.0215Z"/><path d="M190.7291 285.8164h-4.7179a10.1437 10.1437 0 0 1-10.1052-11.0293l.2257-2.5762A48.0515 48.0515 0 0 1 160.5985 279a5 5 0 0 1-5.904-5.9033 45.1659 45.1659 0 0 1 3.1019-8.9375c-19.92-.8164-35.4982-10.9385-36.1781-11.3867a5 5 0 0 1 0-8.35 78.1125 78.1125 0 0 1 20.4906-8.8672c-16.4483-17.1446-21.099-39.05-21.2926-39.9922a5 5 0 0 1 5.9038-5.9033c.962.1972 23.7594 5.038 41.0456 22.3252q.7662.7661 1.5154 1.5361c-.2081-3.375-.3143-6.8291-.3143-10.3145 0-28.1289 14.6064-50.6123 15.2282-51.5556a5 5 0 0 1 8.3494 0c.6217.9433 15.2284 23.4267 15.2284 51.5556 0 3.4854-.1061 6.94-.3142 10.3145q.7486-.7706 1.5152-1.5361c17.2864-17.2872 40.0837-22.128 41.0457-22.3252a5 5 0 0 1 5.9038 5.9033c-.1936.9424-4.8451 22.8476-21.2926 39.9922a78.1109 78.1109 0 0 1 20.49 8.8672 5 5 0 0 1 0 8.35c-.68.4482-16.258 10.57-36.1779 11.3867a45.1659 45.1659 0 0 1 3.1019 8.9375A5 5 0 0 1 216.1418 279a48.0561 48.0561 0 0 1-15.5332-6.7891l.2258 2.5762a10.1437 10.1437 0 0 1-10.1053 11.0293zm-8.4945-30.9619a4.9989 4.9989 0 0 1 4.98 5.4365L185.8679 275.66a.1444.1444 0 0 0 .1433.1562h4.7179a.1442.1442 0 0 0 .1433-.1562l-1.3462-15.3692a5 5 0 0 1 8.78-3.6875c1.0369 1.2119 2.1592 2.4229 3.3358 3.5986a31.6666 31.6666 0 0 0 6.5905 4.9825 34.3632 34.3632 0 0 0-2.0636-3.1719 5 5 0 0 1 4.2869-7.9522c1.9594.1006 3.961.1514 5.9491.1514a64.439 64.439 0 0 0 25.1229-5.6162 68.4276 68.4276 0 0 0-17.8939-5.1172 5 5 0 0 1-2.6636-8.6846c1.8684-1.6679 3.7386-3.4365 5.5586-5.2558 9.02-9.02 14.2411-20.0274 16.9934-27.4766-7.4481 2.752-18.4564 7.9737-27.4769 16.9942a125.4536 125.4536 0 0 0-11.4833 13.1172 5 5 0 0 1-8.91-3.9209 140.0289 140.0289 0 0 0 2.1212-25.045c0-15.89-5.4117-30.0722-9.4032-38.3711-3.9906 8.2969-9.4028 22.48-9.4028 38.3711a140.0289 140.0289 0 0 0 2.1212 25.045 5 5 0 0 1-8.91 3.9209 125.4021 125.4021 0 0 0-11.4833-13.1163c-9.0636-9.0644-20.052-14.2753-27.4839-17.0136 2.75 7.4482 7.9734 18.4677 17.0011 27.4961 1.8192 1.8183 3.69 3.5869 5.5579 5.2548a5 5 0 0 1-2.6635 8.6846 68.4393 68.4393 0 0 0-17.8942 5.1172 64.43 64.43 0 0 0 25.1231 5.6162c1.988 0 3.99-.0508 5.949-.1514a5 5 0 0 1 4.287 7.9522 34.3662 34.3662 0 0 0-2.0638 3.1719 31.7017 31.7017 0 0 0 6.59-4.9815c1.177-1.1767 2.2994-2.3877 3.3362-3.6A5 5 0 0 1 182.2346 254.8545zM486.93 113.2H445.77A24.0949 24.0949 0 0 1 421.7 89.13V86.11A24.0753 24.0753 0 0 1 445.77 62.05h41.16A24.0928 24.0928 0 0 1 511 86.11v3.02A24.0973 24.0973 0 0 1 486.93 113.2zM445.77 72.05A14.0752 14.0752 0 0 0 431.7 86.11v3.02a14.0947 14.0947 0 0 0 14.07 14.07h41.16A14.0858 14.0858 0 0 0 501 89.13V86.11A14.0812 14.0812 0 0 0 486.93 72.05z"/></g></svg>