<svg xmlns="http://www.w3.org/2000/svg" data-name="Layer 1" viewBox="0 0 64 64"><path d="M15 37a2.75 2.75 0 1 0 2.75-2.75A2.752 2.752 0 0 0 15 37zm2.75-.75A.75.75 0 1 1 17 37 .751.751 0 0 1 17.75 36.25zM2 63H18a1 1 0 0 0 1-1V50a4 4 0 0 0-4-4H12.969a5 5 0 1 0-5.938 0H5a4 4 0 0 0-4 4V62A1 1 0 0 0 2 63zM7 42a3 3 0 1 1 3 3A3 3 0 0 1 7 42zM3 50a2 2 0 0 1 2-2H15a2 2 0 0 1 2 2V61H3zM48.5 15H32.166l-.688-3.209A1 1 0 0 0 30.5 11h-4v2h3.191l2.831 13.209A1 1 0 0 0 33.5 27h12a1 1 0 0 0 .958-.713l3-10A1 1 0 0 0 48.5 15zM44.756 25H34.309l-1.715-8H47.156z"/><circle cx="43.5" cy="29.5" r="1.5"/><circle cx="35.5" cy="29.5" r="1.5"/><path d="M38 1A19 19 0 0 0 21.771 29.882a3.782 3.782 0 0 0-.876 2.434 3.846 3.846 0 0 0 3.842 3.842 3.794 3.794 0 0 0 2.216-.716A18.773 18.773 0 0 0 38 39 19 19 0 0 0 38 1zm0 36a16.821 16.821 0 0 1-10.488-3.64 1 1 0 0 0-1.381.14 1.833 1.833 0 1 1-2.481-2.661 1 1 0 0 0 .237-1.362A17 17 0 1 1 38 37zM47 63a1 1 0 0 0 1-1V50a1 1 0 0 0-1-1H41a1 1 0 0 0-1 1V62a1 1 0 0 0 1 1zM42 51h4V61H42zM29 55a1 1 0 0 0-1 1v6a1 1 0 0 0 1 1h6a1 1 0 0 0 1-1V56a1 1 0 0 0-1-1zm5 6H30V57h4zM60 62V46h2a1 1 0 0 0 .8-1.6l-6-8a1.036 1.036 0 0 0-1.6 0l-6 8A1 1 0 0 0 50 46h2V62a1 1 0 0 0 1 1h6A1 1 0 0 0 60 62zM58 45V61H54V45a1 1 0 0 0-1-1H52l4-5.333L60 44H59A1 1 0 0 0 58 45z"/></svg>