<svg xmlns="http://www.w3.org/2000/svg" enable-background="new 0 0 3100 2000" viewBox="0 0 3100 2000"><g transform="translate(-603.869 -1084)"><path fill="#0c7b93" d="M1602.7,2223.3c0,0,147.7-626.9,676.2-624.5c730.8-25.9,583.7,554.4,605,560.8
		c13,3.9,432.1-249.1,483.5,0c72.8,288-307.6,404.4-262.9,427c170.8,89.2,368.3,97.6,391.3,355.8H1343.6c0,0-611-257.2-526.8-540
		C920.5,1954.7,1602.7,2223.3,1602.7,2223.3z" enable-background="new" opacity=".1"/><g transform="translate(-38.104 -149)"><g transform="translate(793 1233)"><path fill="#fff" d="M994.9,140.9h662.5c55.3,0,100.2,44.9,100.2,100.2v1503.1c0,55.3-44.9,100.2-100.2,100.2H994.9
				c-55.3,0-100.2-44.9-100.2-100.2V241.1C894.7,185.8,939.6,140.9,994.9,140.9z"/><path fill="none" stroke="#f35588" stroke-width="28" d="M994.9,157.6h662.5c46.1,0,83.5,37.4,83.5,83.5v1503.1c0,46.1-37.4,83.5-83.5,83.5H994.9
				c-46.1,0-83.5-37.4-83.5-83.5V241.1C911.4,195,948.8,157.6,994.9,157.6z"/></g><g transform="translate(799.082 1238.221)"><path fill="#ffc7c7" d="M978.3,169.1h684.1c30.7,0,55.7,24.9,55.7,55.7v94.6l0,0H922.7l0,0v-94.6
				C922.7,194,947.6,169.1,978.3,169.1z"/><g transform="translate(0 2)"><circle cx="1036.8" cy="242.3" r="36.2" fill="#fff" enable-background="new" opacity=".6"/><circle cx="1107.8" cy="242.3" r="19.5" fill="#fff" enable-background="new" opacity=".6"/></g></g><g transform="translate(797.974 1511.428)"><path fill="#ffc7c7" d="M923.8,1410.1h796.1l0,0v72.4c0,30.7-24.9,55.7-55.7,55.7H979.4
				c-30.7,0-55.7-24.9-55.7-55.7V1410.1L923.8,1410.1z"/><g transform="translate(65.13 3.572)"><path fill="none" d="M1237.2,1428.8h39c12.3,0,22.3,10,22.3,22.3v44.5c0,12.3-10,22.3-22.3,22.3h-39c-12.3,0-22.3-10-22.3-22.3
					v-44.5C1214.9,1438.8,1224.9,1428.8,1237.2,1428.8z"/><path fill="none" stroke="#fff" stroke-width="6" d="M1237.2,1433h39c10,0,18.1,8.1,18.1,18.1v44.5c0,10-8.1,18.1-18.1,18.1h-39c-10,0-18.1-8.1-18.1-18.1v-44.5
					C1219.1,1441.1,1227.2,1433,1237.2,1433z"/></g></g><g transform="translate(791.104 1266.815)"><path fill="#f35588" d="M896.2 295.4L896.2 295.4c5.6 0 10.1 4.5 10.1 10.1v73c0 5.6-4.5 10.1-10.1 10.1l0 0c-5.6 0-10.1-4.5-10.1-10.1v-73C886.1 299.9 890.6 295.4 896.2 295.4zM896.2 412.3L896.2 412.3c5.6 0 10.1 4.5 10.1 10.1v43.9c0 5.6-4.5 10.1-10.1 10.1l0 0c-5.6 0-10.1-4.5-10.1-10.1v-43.9C886.1 416.8 890.6 412.3 896.2 412.3z"/></g></g><g transform="translate(4 -2)"><circle cx="2072.1" cy="1769.7" r="41.8" fill="#0c7b93"/><ellipse cx="2072.1" cy="2020.2" fill="#0c7b93" rx="231" ry="236.6"/><circle cx="2074.9" cy="2351.5" r="77.9" fill="#0c7b93"/><path fill="#0c7b93" d="M1841.3,2018.8c0,0,20.5,139.8-74.6,263.4c-0.6,43.8,620,5.1,620,5.1s-95.9-137.5-83.7-267.6
			C2227.3,2017.2,1841.3,2018.8,1841.3,2018.8z"/><path fill="#0c7b93" d="M1774.3,2279.1h601.2c6.1,0,11.1,5,11.1,11.1v44.5c0,6.1-5,11.1-11.1,11.1h-601.2
			c-6.1,0-11.1-5-11.1-11.1v-44.5C1763.1,2284.1,1768.1,2279.1,1774.3,2279.1z"/><path fill="#fff" d="M2051.2,1787.2c0,0-136.4,25.5-158.9,172.4s18,139.4-58.5,286.4c-38.6,42.3-35.9,74.1,0,76.5
			c30,1.5,6-16.5,24-51c18-34.5,69.1-92.7,67.5-169.4c2.6-55.8-13.5-146.9,46.5-242.9C1994.1,1831,2021,1806.7,2051.2,1787.2z" enable-background="new" opacity=".4"/><path fill="none" stroke="#fff" stroke-width="6" d="M1763.1,2285.9c0,0,13.1-36.4,45.8-36.4s475.5-7.1,475.5-7.1" enable-background="new" opacity=".4"/><circle cx="2261.4" cy="1875.5" r="91.9" fill="#f35588"/><rect width="22.3" height="77.9" x="2253" y="1822.6" fill="#fff"/><rect width="22.3" height="22.3" x="2253" y="1911.7" fill="#fff"/></g><path fill="#0c7b93" d="M2761.5,1806l37.5,10.7c3,0.8,4.7,3.9,3.8,6.9l-23,80.3c-0.8,3-3.9,4.7-6.9,3.8
			l-37.5-10.7c-3-0.8-4.7-3.9-3.8-6.9l23-80.3C2755.4,1806.9,2758.5,1805.2,2761.5,1806z"/><path fill="#f2ba88" d="M2667.4,1965.9c0,0-1.5,40.5,0,51c1.5,10.5,91.5-82.5,94.5-117c2-11.6-10.6-7.9-13.7-28.9
			c1-28.3,25.2-24.7,35.7-11c4.7,6.3,10,12.1,8.4,31c-1.6,18.9-53.5,148-128.6,210.5c-20.5,12.1-54.6-12.6-54.6-12.6
			s-15.2-80.3,5.2-110.2C2634.7,1948.7,2667.4,1965.9,2667.4,1965.9z"/><g transform="translate(-1 -1)"><path fill="#f2ba88" d="M2538.8,2805.4l-54.6,48.4l-22.5-21.8l58-58L2538.8,2805.4z"/><path fill="#0c7b93" d="M2473.4,2820.8c-7.2,1.1-14.1,4-19.9,8.5c-9,6.5-17.3,14.1-24.6,22.5c0,0,58,67.6,64.8,71.7
				c6.8,4.1,23.2,9.6,20.5-3.4s-21.2-55.3-20.5-74.4C2466.5,2842.3,2473.4,2820.8,2473.4,2820.8z"/></g><path fill="#0f2144" d="M2634.3,2186.9c0,0,133.4,155.3,140.9,269.3c7.5,114-236.9,361.3-236.9,361.3l-36-42
			c0,0,173.9-265.4,182.9-304.4c9-39-161.9-272.9-161.9-272.9L2634.3,2186.9z"/><g transform="translate(-2)"><path fill="#ffd0a6" d="M2660.6,2836v63.5h30.7V2836H2660.6z"/><path fill="#0c7b93" d="M2661.2,2881.7c-7,10.5-10.8,22.9-10.9,35.5v18.4h106.5c0,0,13.7-3.4,11.6-12.3
				c-2-8.9-77.8-41.6-77.8-41.6H2661.2z"/></g><path fill="#142850" d="M2470.4,2206.4c2.1,74.6,19.4,148,50.8,215.7c51.9,110.7,118.8,385.2,122.3,425.6
			c34.6-2.3,61.1-5.8,61.1-5.8s-103.8-610.1-115.3-643.5C2584.6,2168.4,2470.4,2206.4,2470.4,2206.4z"/><path fill="#ffd0a6" d="M2371.1,1958.8c0,0-59.4,50.6-54.1,92.3c10.7,51.5,104.7,150.8,118,158.8
			c3.6,33.7,45.2,52.3,55,46.1c9.8-6.2-21.3-23.1-23.1-38.2c-1.1-9.4-1.1-19,0-28.4c0,0-19.5,2.7-22.2,0
			c-2.7-2.7-74.5-127.8-73.6-145.5c0.9-17.7,47-59.4,47-59.4L2371.1,1958.8z"/><path fill="#0c7b93" d="M2580.3,1835.4c0,0-81-3-114,13.5c-33,16.5-102,108-102,108l51,45l51-55.5
			c-8,88.8-8,178.1,0,266.9c41.3,0.2,142.4,7.3,177.9-9.6c-0.9-41.7-1.8-203.2,0-219.1c22.1,0.4,30.2,0,30.2,0s0.8-103.8-30.2-126.9
			l-0.6-0.5C2625.9,1842.5,2603.4,1834.7,2580.3,1835.4z"/><path fill="#f2ba88" d="M2525.7,1803.8c0,0,0,38.4,2,43.2c2,4.8,20.2,24.2,44.4,4c-0.8-24.6-2.8-47.2-2.8-47.2
			H2525.7z"/><path fill="#ffd0a6" d="M2597.6,1740c0,0,19.4,65-15.3,80.4c-24.2,9.7-60.6-18.2-60.6-18.2s-23.4-13.3-11.3-43.6
			C2522.5,1728.3,2597.6,1740,2597.6,1740z"/><path fill="#a36630" d="M2510,1733.1c0,0,10.9-36.9,42.3-36.2c31.4,0.7,24.6,11.6,32.8,11.6s6.5-16.8,21.1-16.5
			c13.5,1.4,23.2,13.5,21.8,26.9c-0.5,4.7-2.3,9.1-5.3,12.8c-14.6,18.3-33.2,24.2-70.3,24.2c-3.3,15.5-14.5,13.7-13.9,28.6
			c0.6,14.9-5.6-9.9-10.9-13c-11.5-6.2-22.1,14.9,3.7,31.4c7.7,6.9-15.2,14.6-24.2,3.7C2498,1795.8,2468.8,1750.7,2510,1733.1"/><g><path fill="#f2ba88" d="M1265.5,2417.5v44.4c0,0-31.1,4.5-40.8-11.5c-9.8-16,0-37.3,0-37.3L1265.5,2417.5z"/><path fill="#ffd0a6" d="M1291.3,2338.5c0,0,11.5,54.1,0,81.6c-11.5,27.5-82.5-6.2-82.5-6.2s8-50.6,41.7-65.7
			C1284.2,2333.2,1291.3,2338.5,1291.3,2338.5z"/><path fill="#f2ba88" d="M985.9,2924.4c0,0-56.1,14.9-65.4,23.8c-9.3,7.7,25.9-1.2,50.5-3.6
			c24.6-2.4,25,0.8,41.2,3.6c16.2,2.8-0.4-11.7-7.3-23.8C998,2912.2,985.9,2924.4,985.9,2924.4z"/><path fill="#d93f47" d="M1061.5,2667.7c0,0-44.5,53.8-84.4,258.7c27.1,1.6,33.5,0,33.5,0s100.6-208.8,105.4-231.8
			c2.8-9.3,44.6-37.2,0-55.7S1061.5,2667.7,1061.5,2667.7z"/><path fill="#ffd0a6" d="M1663.7,2882.4c0,0,19.7,37,22.5,49.1c2.8,12.1,20-6.7,20-6.7
				c-4.1-17.1-9.1-33.9-14.9-50.5C1686.1,2863,1663.7,2882.4,1663.7,2882.4z"/><path fill="#8b2f97" d="M1684.5,2927.6c0,0-9.1,26.6,6,24.9c15.1-1.8,11.5-12.4,19.5-14.2c8-1.8,42.6-8.9,47-17.7
				s-12.9-7.9-28-4.4c-8.3,2.2-17,2.2-25.3,0C1703.7,2916.1,1693,2927,1684.5,2927.6"/><path fill="#0c1216" d="M1251.6,2754.2c0,0,164.6-134.9,239.6-136.1c75-1.2,107.3-1.2,206.4,259.5
			c-36.9,19.6-42.7,20.8-42.7,20.8s-99.2-188-123.4-199.5c-24.2-11.5-170.7,139.6-208.8,155.7s-116.5-15-115.3-47.3
			C1208.5,2775,1251.6,2754.2,1251.6,2754.2z"/><path fill="#ffd0a6" d="M1793.8,2888.9c0,0,40.5,37.9,43.9,47.2c3.4,9.3,15.7-21.5,15.7-21.5s-29.8-30.7-38.8-39.4
				C1805.6,2866.5,1793.8,2888.9,1793.8,2888.9z"/><path fill="#8b2f97" d="M1829.3,2925.6c0,0-0.4,24.2,12.9,24.2c13.3,0,14.2-19.5,17.7-22.2s39-19.5,38.2-38.2
				c-0.9-13.3-22.6,17.5-52.7,14.1C1843.5,2917.5,1836.4,2923.8,1829.3,2925.6"/><path fill="#1b262c" d="M1121.3,2886.4c0,0,27,66,146.9,64.5c139.4-3,259.4-211.4,274.4-223.4
			s170.2,92.1,241.2,182.9c22.7-17.9,39.7-31.5,39.7-31.5s-189.4-253.3-262.9-253.3c-73.5,0-302.8,184.4-302.8,184.4L1121.3,2886.4z
			"/><path fill="#f2ba88" d="M1414.6,2453.1c0,0-5.5,23.2-7.5,24.6c-2,1.4,22.5,4.1,22.5,4.1l9.6-22.5L1414.6,2453.1z"/><path fill="#eb4d55" d="M1428.1,2386.8l26.5,8.6c2.9,1,4.5,4.1,3.6,7l-18.9,58.2c-1,2.9-4.1,4.5-7,3.6
			l-26.5-8.6c-2.9-0.9-4.5-4.1-3.6-7l18.9-58.2C1422.1,2387.4,1425.2,2385.8,1428.1,2386.8z"/><path fill="#d93f47" d="M1362.3,2583.4c-2.7-5.3,37.3-107.3,46.1-115.3c8.9,1.1,17.6,3.2,26.1,6.2
			c0,0-15.6,150.5-49.7,175.7C1367.7,2660.3,1362.3,2583.4,1362.3,2583.4z"/><path fill="#eb4d55" d="M1200.8,2431c0,0,79-15.2,131.3,75.2c32.8,56.8,75.4,119.8,56.8,140.2
			c-28.4,31.9-72.7-47.9-86.9-64.8c3.6,26.6-24.8,62.1-23.9,93.2s7.1,137.5,7.1,137.5s-33.7-4.5-173,93.2c0-45.2-5.3-297.2,0-323.8
			c5.3-26.6,14.2-113.6,47-132.2S1200.8,2431,1200.8,2431z"/><path fill="#8b2f97" d="M1257.8,2304.7c0,0-61.5-10.5-70.5,16.5c-12,39-3,69-9,76.5c-6,7.5-15,27-57,30
			c-42,3-69,18-81,55.5c-12,37.5-13.5,48-69,70.5c-55.5,22.5-61.5,102-16.5,131.9c45,30,102-10.5,133.4-9
			c31.5,1.5,58.5-7.5,73.5-64.5s66-27,66-94.5c0-46.5-27-55.5-15-90c39,24,67.5-22.5,70.5-49.5c3-27,10.8-26.1,14.2-41.6
			C1300.2,2320.8,1269.9,2304.8,1257.8,2304.7"/><path fill="#f2ba88" d="M1428.5,2463.7c0,0-2.6-19.9,6.7-23.6c14.4-3.4,9.8-9.6,8.8-14.6c-0.6-8.1,5.6-2.8,8.4,0
			s2.5,12.4,0,19.3c-2,5.4-7.7,10.6-17.2,23.6c-5.6,5.9-5.1,0-5.1,0L1428.5,2463.7z"/></g><g><circle cx="1040.6" cy="2107.3" r="97.4" fill="#f35588"/><path fill="#fefefe" d="M1040.6,2156.9c0,0-50.5-26.6-49.8-60.1c2-34.1,49.8-29.3,49.8-11.6
			c-0.5-24.4,48.3-17.3,47.1,11.6C1088.1,2135.3,1040.6,2156.9,1040.6,2156.9z"/></g><g transform="translate(965.132 1161.908)"><path fill="#f2739c" d="M1856.1 610.9v-73l35.8 33.3L1856.1 610.9zM1921.6 570.9l38.7-32.5 1.1 73.4L1921.6 570.9z"/><path fill="#f35588" d="M1855.9,611.2l36.5-40.6h29.8l39,40.6H1855.9z"/><path fill="#e4477a" d="M1961.1,538.1l-38.7,32.8h-31l-35.6-33L1961.1,538.1z"/></g></g></svg>