<svg xmlns="http://www.w3.org/2000/svg" enable-background="new 0 0 32 32" viewBox="0 0 32 32"><path d="M13.9688,27.9844c-0.1328,0-0.2666-0.0264-0.3945-0.0811c-0.4082-0.1753-0.6523-0.5991-0.5977-1.0405l0.9922-8.1104
		L8.6523,16.981c-0.3115-0.104-0.5527-0.355-0.6445-0.6709c-0.0908-0.3164-0.0215-0.6572,0.1875-0.9116l9.0244-11.0156
		c0.2813-0.3433,0.7559-0.459,1.1611-0.2881c0.4082,0.1719,0.6553,0.5918,0.6064,1.0322l-0.9053,8.1543l5.2412,1.7881
		c0.3105,0.106,0.5488,0.3574,0.6387,0.6733c0.0898,0.3154,0.0186,0.6553-0.1895,0.9087l-9.0313,10.9688
		C14.5459,27.856,14.2607,27.9844,13.9688,27.9844z M10.6621,15.5425l4.7148,1.5713c0.4512,0.1504,0.7344,0.5981,0.6758,1.0703
		l-0.6748,5.5151l5.9316-7.2036l-4.6328-1.5806c-0.4434-0.1514-0.7227-0.5903-0.6709-1.0566l0.6211-5.5962L10.6621,15.5425z"/></svg>