<svg xmlns="http://www.w3.org/2000/svg" enable-background="new 0 0 1364 960" viewBox="0 0 1364 960"><path fill="#DDD6FF" d="M680.269,276.599c-145.477,0-263.409,115.292-263.409,257.511c0,142.219,117.932,257.511,263.409,257.511
	c145.477,0,263.409-115.292,263.409-257.511C943.678,391.89,825.746,276.599,680.269,276.599z M680.269,784.017
	c-141.611,0-256.409-112.228-256.409-250.668c0-138.44,114.798-250.668,256.409-250.668c141.611,0,256.409,112.228,256.409,250.668
	C936.678,671.789,821.88,784.017,680.269,784.017z"/><rect width="149.162" height="6.232" x="942.701" y="514.795" fill="#DDD6FF"/><rect width="102.771" height="6.232" x="624.383" y="222.097" fill="#DDD6FF" transform="rotate(-90 675.768 225.213)"/><rect width="139.08" height="6.232" x="880.152" y="723.538" fill="#DDD6FF" transform="rotate(33.788 949.68 726.592)"/><rect width="159.333" height="6.232" x="850.85" y="294.133" fill="#DDD6FF" transform="rotate(-40.884 930.559 297.263)"/><rect width="139.08" height="6.232" x="343.933" y="729.331" fill="#DDD6FF" transform="rotate(145.215 413.48 732.439)"/><rect width="159.333" height="6.232" x="350.912" y="302.133" fill="#DDD6FF" transform="rotate(-143.92 430.58 305.25)"/><ellipse cx="420.163" cy="518.103" fill="#DDD6FF" rx="11.266" ry="10.966"/><ellipse cx="494.921" cy="352.31" fill="#DDD6FF" rx="11.266" ry="10.966"/><ellipse cx="375.749" cy="265.414" fill="#DDD6FF" rx="11.266" ry="10.965"/><ellipse cx="675.335" cy="278.655" fill="#DDD6FF" rx="11.266" ry="10.965"/><ellipse cx="866.966" cy="350.517" fill="#DDD6FF" rx="11.266" ry="10.966"/><ellipse cx="980.778" cy="252.458" fill="#DDD6FF" rx="11.266" ry="10.965"/><ellipse cx="938.966" cy="516.034" fill="#DDD6FF" rx="11.266" ry="10.965"/><ellipse cx="884.748" cy="683.619" fill="#DDD6FF" rx="11.266" ry="10.965"/><ellipse cx="998.955" cy="758.653" fill="#DDD6FF" rx="11.266" ry="10.965"/><ellipse cx="475.749" cy="688.172" fill="#DDD6FF" rx="11.266" ry="10.965"/><ellipse cx="364.852" cy="764.31" fill="#DDD6FF" rx="11.266" ry="10.966"/><path fill="#DDD6FF" d="M1045.206 747.069c-28.299 0-51.241 22.695-51.241 50.69s22.941 50.69 51.241 50.69 51.241-22.695 51.241-50.69S1073.506 747.069 1045.206 747.069zM1045.206 845.069c-26.085 0-47.232-20.919-47.232-46.724s21.146-46.724 47.232-46.724 47.232 20.919 47.232 46.724S1071.292 845.069 1045.206 845.069zM261.76 797.759c0 27.995 22.941 50.69 51.241 50.69 28.299 0 51.241-22.695 51.241-50.69S341.3 747.069 313 747.069C284.701 747.069 261.76 769.763 261.76 797.759zM265.768 798.345c0-25.805 21.147-46.724 47.232-46.724 26.085 0 47.232 20.919 47.232 46.724S339.086 845.069 313 845.069C286.915 845.069 265.768 824.15 265.768 798.345z"/><ellipse cx="1102" cy="517.69" fill="#DDD6FF" rx="11.266" ry="10.966"/><path fill="#DDD6FF" d="M1161.896,466.517c-28.299,0-51.241,22.694-51.241,50.69c0,27.995,22.941,50.69,51.241,50.69
	s51.241-22.695,51.241-50.69C1213.137,489.212,1190.195,466.517,1161.896,466.517z M1161.896,564.517
	c-26.086,0-47.232-20.919-47.232-46.724s21.146-46.724,47.232-46.724c26.085,0,47.232,20.919,47.232,46.724
	S1187.981,564.517,1161.896,564.517z"/><rect width="149.161" height="6.232" x="272.138" y="514.795" fill="#DDD6FF" transform="rotate(-180 346.719 517.911)"/><ellipse cx="262" cy="517.69" fill="#DDD6FF" rx="11.266" ry="10.966"/><path fill="#DDD6FF" d="M150.863 517.207c0 27.995 22.941 50.69 51.241 50.69s51.241-22.695 51.241-50.69c0-27.995-22.941-50.69-51.241-50.69S150.863 489.212 150.863 517.207zM154.872 517.793c0-25.805 21.146-46.724 47.232-46.724 26.085 0 47.232 20.919 47.232 46.724s-21.146 46.724-47.232 46.724C176.018 564.517 154.872 543.598 154.872 517.793zM1026.69 161.759c-28.299 0-51.241 22.694-51.241 50.69 0 27.995 22.941 50.69 51.241 50.69 28.299 0 51.241-22.695 51.241-50.69C1077.93 184.453 1054.989 161.759 1026.69 161.759zM1026.69 259.759c-26.086 0-47.232-20.919-47.232-46.724 0-25.805 21.146-46.724 47.232-46.724 26.085 0 47.232 20.919 47.232 46.724C1073.922 238.839 1052.775 259.759 1026.69 259.759zM280.828 222.379c0 27.995 22.941 50.69 51.241 50.69 28.299 0 51.241-22.695 51.241-50.69s-22.941-50.69-51.241-50.69C303.77 171.69 280.828 194.384 280.828 222.379zM284.837 222.965c0-25.805 21.146-46.724 47.232-46.724 26.085 0 47.232 20.919 47.232 46.724s-21.147 46.724-47.232 46.724C305.983 269.69 284.837 248.77 284.837 222.965z"/><ellipse cx="675.749" cy="163.621" fill="#DDD6FF" rx="11.266" ry="10.965"/><path fill="#DDD6FF" d="M622.208,102.793c0,27.995,22.941,50.69,51.241,50.69c28.299,0,51.241-22.695,51.241-50.69
	s-22.941-50.69-51.241-50.69C645.149,52.103,622.208,74.798,622.208,102.793z M626.216,103.379
	c0-25.805,21.146-46.724,47.232-46.724c26.085,0,47.232,20.919,47.232,46.724s-21.146,46.724-47.232,46.724
	C647.363,150.103,626.216,129.184,626.216,103.379z"/><rect width="44.336" height="1.626" x="1023.42" y="774.241" fill="#A9F"/><path fill="#A9F" d="M1030.996,816.098l-1.156,0.01l-0.126-14.365l-3.154,0.028l0.126,14.365l-1.139,0.01
	c-2.71,0.024-4.885,2.466-4.859,5.454l0,0l15.245-0.134l0-0.019C1035.906,818.47,1033.696,816.075,1030.996,816.098z"/><path fill="#A9F" d="M1030.996 816.098l-1.156.01-.126-14.365-1.869.016.126 14.365 1.156-.01c2.7-.024 4.911 2.371 4.937 5.349l0 .019 1.869-.016 0-.019C1035.906 818.47 1033.696 816.075 1030.996 816.098zM1065.836 816.372l-1.156.01-.126-14.365-3.154.028.126 14.365-1.139.01c-2.71.024-4.885 2.466-4.859 5.454l0 0 15.245-.133 0-.019C1070.747 818.743 1068.537 816.348 1065.836 816.372z"/><path fill="#A9F" d="M1065.836 816.372l-1.156.01-.126-14.365-1.869.016.126 14.365 1.156-.01c2.7-.024 4.911 2.371 4.937 5.349l0 .019 1.869-.016 0-.019C1070.747 818.743 1068.537 816.348 1065.836 816.372zM1067.757 775.84l-.005-.014h-44.268l-.014.043-9.385 25.835h63.068L1067.757 775.84zM1071.929 790.282h-9.671l-1.603-7.254h8.743L1071.929 790.282zM1069.132 782.262h-8.643l-1.294-5.851h7.897L1069.132 782.262zM1059.514 782.262h-8.648l-.457-5.851h7.897L1059.514 782.262zM1041.199 783.028h8.748l.457 7.254h-9.676L1041.199 783.028zM1040.276 782.262h-8.644l1.213-5.851h7.892L1040.276 782.262zM1041.247 782.262l.38-5.851h7.897l.371 5.851H1041.247zM1024.06 776.411h7.897l-1.299 5.851h-8.648L1024.06 776.411zM1021.738 783.028h8.748l-1.608 7.254h-9.68L1021.738 783.028zM1015.63 800.462l3.23-9.219h9.804l-2.05 9.219H1015.63zM1038.83 800.462h-10.979l1.917-9.219h9.795L1038.83 800.462zM1029.968 790.282l1.503-7.254h8.743l-.576 7.254H1029.968zM1040.067 800.462l.599-9.219h9.799l.585 9.219H1040.067zM1050.927 783.028h8.743l1.499 7.254h-9.681L1050.927 783.028zM1052.283 800.462l-.718-9.219h9.799l1.903 9.219H1052.283zM1062.468 791.243h9.799l3.216 9.219h-10.979L1062.468 791.243z"/><rect width="63.069" height="1.626" x="1014.085" y="801.704" fill="#A9F"/><path fill="#A9F" d="M682.701,126.733H667.37v-0.49c0-6.446-4.679-13.828-6.701-16.714c-0.341-0.433-0.662-0.875-0.955-1.313
	l-0.812-0.812h0.305c-1.667-2.825-2.543-6.035-2.543-9.341c0-10.153,8.26-18.412,18.413-18.412c4.178,0,8.117,1.365,11.392,3.948
	c4.462,3.52,7.021,8.791,7.021,14.465c0,3.208-0.835,6.345-2.423,9.126h0.085l-0.549,0.774c0,0-0.023,0.032-0.06,0.08
	c-0.177,0.277-0.354,0.537-0.541,0.794l-0.255,0.382c-1.927,2.881-7.047,10.533-7.047,17.023V126.733z M668.341,125.753h13.388
	c0.241-6.67,5.278-14.2,7.203-17.078l0.265-0.397c0.191-0.264,0.362-0.514,0.532-0.782l0.031-0.043
	c0.004-0.006,0.008-0.01,0.012-0.015l0.013-0.02c1.782-2.805,2.724-6.039,2.724-9.353c0-5.371-2.423-10.363-6.648-13.695
	c-3.1-2.445-6.83-3.737-10.785-3.737c-9.612,0-17.433,7.82-17.433,17.433c0,3.414,0.987,6.72,2.855,9.562l0.099,0.15
	c0.255,0.376,0.544,0.77,0.849,1.157l0.016,0.022C663.484,111.838,668.118,119.144,668.341,125.753z M659.706,108.204
	c0,0,0,0.001,0.002,0.002C659.707,108.205,659.706,108.204,659.706,108.204z"/><path fill="#A9F" d="M678.865,126.587h-7.817c-0.114,0-0.211-0.082-0.23-0.194l-4.03-23.603c-0.02-0.114,0.047-0.225,0.157-0.261
	c0.11-0.037,0.23,0.013,0.282,0.117l2.81,5.584l-0.591-3.223c-0.017-0.094,0.025-0.19,0.106-0.24
	c0.081-0.051,0.185-0.047,0.263,0.01l1.381,1.017l0.554-3.085c0.019-0.104,0.104-0.182,0.208-0.192
	c0.108-0.008,0.203,0.052,0.24,0.15l1.299,3.415l1.933-6.806c0.031-0.109,0.135-0.181,0.248-0.169
	c0.112,0.011,0.201,0.101,0.21,0.214l0.52,6.346l0.795-2.63c0.03-0.099,0.121-0.166,0.224-0.166c0,0,0,0,0,0
	c0.103,0,0.194,0.068,0.224,0.167l0.816,2.741l0.167-1.029c0.017-0.104,0.101-0.184,0.205-0.195
	c0.106-0.012,0.204,0.048,0.243,0.146c0.365,0.921,0.795,1.923,1.04,2.395c0.507-1.11,2.154-4.829,3.292-7.407
	c0.048-0.108,0.169-0.165,0.282-0.129c0.113,0.034,0.183,0.148,0.162,0.265l-4.761,26.57
	C679.075,126.506,678.978,126.587,678.865,126.587z M671.246,126.12h7.424l4.382-24.459c-1.023,2.313-2.58,5.827-2.68,5.992
	c-0.046,0.076-0.156,0.132-0.239,0.124c-0.139-0.011-0.309-0.025-1.173-2.126l-0.196,1.21c-0.018,0.108-0.107,0.189-0.216,0.196
	c-0.107,0.003-0.208-0.062-0.239-0.167l-0.885-2.973l-0.926,3.063c-0.032,0.108-0.139,0.176-0.248,0.165
	c-0.112-0.012-0.199-0.101-0.208-0.213l-0.514-6.287l-1.773,6.243c-0.028,0.097-0.114,0.165-0.215,0.17
	c-0.105,0.003-0.193-0.056-0.229-0.15l-1.25-3.287l-0.471,2.625c-0.014,0.079-0.068,0.146-0.143,0.176
	c-0.075,0.03-0.161,0.019-0.225-0.029l-1.208-0.89l0.779,4.247c0.021,0.114-0.045,0.227-0.156,0.264
	c-0.112,0.037-0.231-0.013-0.283-0.117l-2.841-5.646L671.246,126.12z"/><path fill="#A9F" d="M674.938 137.414c-4.335 0-7.862-3.525-7.862-7.857 0-.005 0-.011 0-.016-.807-.197-1.407-.927-1.407-1.793 0-.489.191-.953.538-1.306.344-.351.809-.544 1.308-.544h15.122c1.02 0 1.85.83 1.85 1.85 0 .485-.197.961-.541 1.305-.318.312-.721.498-1.151.534C682.779 133.906 679.26 137.414 674.938 137.414zM667.514 126.878c-.234 0-.45.089-.609.25-.166.169-.257.389-.257.62 0 .478.388.866.866.866h.587l-.032.52c-.009.139-.013.279-.013.423 0 3.792 3.087 6.877 6.882 6.877 3.792 0 6.877-3.085 6.877-6.877 0-.144-.004-.283-.013-.423l-.033-.52h.867c.231 0 .451-.092.62-.257.158-.158.25-.381.25-.609 0-.48-.39-.87-.87-.87H667.514zM658.799 78.456c-1.815-.811-3.629-1.621-5.443-2.432-.299-.134-.66-.052-.822.251-.146.275-.049.687.251.822 1.814.811 3.629 1.621 5.443 2.432.299.134.66.052.822-.251C659.196 79.003 659.1 78.591 658.799 78.456zM666.83 73.413c-1.486-2.785-2.855-5.631-4.103-8.531-.13-.301-.573-.369-.831-.218-.312.182-.348.529-.218.831 1.248 2.9 2.617 5.746 4.103 8.531C666.149 74.717 667.199 74.103 666.83 73.413zM676.716 67.687c-.361 0-.568.28-.608.608-.221 1.814-.442 3.627-.664 5.441-.04.326.308.608.608.608.362 0 .568-.28.608-.608.221-1.814.442-3.627.663-5.441C677.363 67.968 677.016 67.687 676.716 67.687zM1019.327 192.336l.365.135 14.679.274 2.777-.331-2.729-.61-14.631-1.215-.705.182c-.314-.429-.821-.71-1.393-.71-.137 0-.27.018-.398.048l-.169-.985-7.102-12.849-1.232-1.648h0l-.443-.592.836 2.669 6.263 13.279.818.833c-.189.277-.3.612-.3.973 0 .259.059.504.161.724l-.614.51-7.577 12.575-1.102 2.57 1.893-2.058 8.368-12.064.093-.333-.696 45.943h-.122-.724l-.461 7.281h-.68v1.587h6.546v-1.587h-.606l-.46-7.281h-.83l-.702-46.318C1018.861 193.136 1019.18 192.776 1019.327 192.336zM1042.575 213.915l.225.083 9.052.169 1.713-.204-1.683-.377-9.022-.749-.435.112c-.194-.265-.506-.438-.859-.438-.085 0-.167.011-.245.029l-.104-.607-4.38-7.923-.76-1.016v0l-.273-.365.516 1.646 3.862 8.188.504.514c-.117.171-.185.377-.185.6 0 .16.036.311.099.447l-.378.315-4.672 7.755-.68 1.585 1.167-1.269 5.16-7.439.057-.206-.429 28.331h-.075-.446l-.284 4.49h-.419v.979h4.037v-.979h-.374l-.284-4.49h-.511l-.433-28.562C1042.287 214.409 1042.484 214.187 1042.575 213.915z"/><rect width="34.93" height="1.532" x="1011.587" y="248.433" fill="#A9F"/><path fill="#A9F" d="M316.916 202.01c-1.772-.899-3.545-1.798-5.317-2.697-.293-.148-.657-.085-.833.211-.159.267-.083.684.211.833 1.772.899 3.545 1.798 5.317 2.697.293.148.657.085.833-.211C317.286 202.576 317.21 202.159 316.916 202.01zM325.186 197.368c-1.347-2.855-2.574-5.765-3.678-8.723-.115-.308-.554-.397-.82-.259-.32.167-.374.511-.259.82 1.104 2.958 2.331 5.868 3.678 8.723C324.441 198.637 325.52 198.076 325.186 197.368zM335.341 192.136c-.361-.018-.581.252-.637.577-.31 1.801-.62 3.601-.931 5.402-.056.324.277.622.577.637.361.018.581-.252.637-.577.31-1.801.62-3.601.931-5.402C335.974 192.449 335.641 192.15 335.341 192.136zM308.003 230.204c-1.403 1.408-2.805 2.816-4.208 4.224-.232.232-.284.599-.057.857.205.234.625.29.858.057 1.403-1.408 2.805-2.816 4.208-4.224.232-.232.284-.599.057-.857C308.655 230.027 308.235 229.971 308.003 230.204zM306.143 220.905c-3.132.399-6.278.667-9.432.802-.328.014-.549.404-.499.7.06.356.37.514.7.499 3.154-.136 6.301-.404 9.432-.802C307.12 222.005 306.92 220.806 306.143 220.905zM304.305 209.63c-.129.338.06.63.352.784 1.617.851 3.233 1.703 4.85 2.554.291.153.677-.072.784-.352.128-.338-.06-.63-.352-.784-1.617-.851-3.233-1.703-4.85-2.554C304.798 209.124 304.412 209.349 304.305 209.63zM332.063 247.394c.905 1.769 1.811 3.538 2.716 5.307.15.292.482.455.798.319.286-.123.469-.505.319-.798-.905-1.769-1.811-3.538-2.717-5.307-.149-.292-.482-.455-.798-.319C332.096 246.719 331.912 247.101 332.063 247.394zM322.643 246.288c-.588 3.102-1.306 6.177-2.152 9.219-.088.316.215.647.511.691.357.053.603-.194.691-.511.846-3.041 1.563-6.117 2.152-9.218C323.991 245.7 322.789 245.519 322.643 246.288zM311.352 244.553c.282.227.618.137.854-.092 1.309-1.274 2.619-2.549 3.928-3.823.236-.229.141-.666-.092-.854-.282-.227-.618-.137-.854.092-1.309 1.274-2.619 2.549-3.928 3.823C311.024 243.927 311.118 244.364 311.352 244.553zM355.845 229.823c1.962-.315 3.924-.629 5.887-.944.324-.052.581-.318.55-.66-.028-.31-.335-.602-.66-.55-1.962.315-3.924.629-5.887.944-.324.052-.581.318-.55.66C355.214 229.583 355.52 229.876 355.845 229.823zM351.883 238.44c2.768 1.518 5.471 3.151 8.102 4.895.274.181.682-.005.815-.273.161-.323.002-.633-.273-.815-2.631-1.744-5.335-3.377-8.102-4.895C351.74 236.976 351.197 238.064 351.883 238.44zM346.743 248.642c.302-.198.322-.545.176-.841-.807-1.639-1.615-3.278-2.422-4.917-.145-.295-.59-.34-.841-.176-.303.198-.322.545-.176.841.807 1.639 1.615 3.278 2.422 4.917C346.047 248.761 346.492 248.806 346.743 248.642zM346.484 201.775c.307-1.963.614-3.927.922-5.89.051-.324-.122-.651-.458-.727-.304-.069-.676.132-.727.458-.307 1.963-.614 3.927-.922 5.89-.051.324.122.651.458.727C346.061 202.302 346.433 202.1 346.484 201.775zM353.455 208.206c2.299-2.163 4.687-4.23 7.159-6.193.257-.204.206-.65-.007-.86-.258-.253-.602-.198-.859.007-2.472 1.964-4.86 4.03-7.159 6.193C352.018 207.89 352.885 208.742 353.455 208.206zM361.569 216.247c-.095-.349-.419-.474-.746-.427-1.808.261-3.617.523-5.425.784-.325.047-.506.456-.427.746.095.349.419.475.746.427 1.808-.261 3.617-.523 5.425-.784C361.467 216.945 361.648 216.536 361.569 216.247zM332.383 239.793c-10.19 0-18.48-7.967-18.48-17.759 0-9.792 8.29-17.758 18.48-17.758 10.189 0 18.479 7.966 18.479 17.758C350.862 231.826 342.572 239.793 332.383 239.793zM332.441 207.025c-8.676 0-15.734 6.749-15.734 15.044 0 8.295 7.059 15.043 15.734 15.043 8.676 0 15.733-6.749 15.733-15.043C348.174 213.774 341.116 207.025 332.441 207.025zM309.424 829.697c-.799-.085-1.379-.803-1.293-1.603.086-.8.799-1.381 1.603-1.293 2.011.214 4.086.221 6.098.019.802-.083 1.514.503 1.595 1.303.081.8-.503 1.514-1.303 1.594-1.073.108-2.166.163-3.251.163C311.721 829.88 310.561 829.818 309.424 829.697zM320.856 827.409c-.246-.766.176-1.586.941-1.832 1.933-.621 3.809-1.449 5.575-2.463.697-.4 1.587-.16 1.988.538.401.697.16 1.587-.538 1.988-1.943 1.115-4.006 2.027-6.134 2.71-.148.048-.298.07-.445.07C321.627 828.421 321.055 828.027 320.856 827.409zM302.867 828.29c-2.124-.697-4.182-1.621-6.116-2.747-.695-.405-.93-1.296-.526-1.991.405-.695 1.297-.931 1.991-.526 1.758 1.024 3.628 1.864 5.559 2.497.764.251 1.18 1.073.93 1.838-.201.613-.771 1.003-1.383 1.003C303.171 828.363 303.018 828.339 302.867 828.29zM332.2 821.601c-.536-.599-.485-1.52.115-2.056 1.516-1.357 2.895-2.876 4.097-4.515.476-.648 1.387-.787 2.035-.313.648.476.789 1.387.313 2.036-1.321 1.802-2.836 3.472-4.504 4.963-.278.249-.625.371-.971.371C332.886 822.086 332.487 821.922 332.2 821.601zM291.343 821.585c-1.658-1.501-3.163-3.18-4.474-4.991-.472-.651-.326-1.562.326-2.033.651-.47 1.562-.325 2.034.326 1.192 1.647 2.562 3.174 4.07 4.54.596.54.642 1.461.102 2.057-.287.318-.683.479-1.08.479C291.971 821.961 291.621 821.837 291.343 821.585zM340.212 811.691c-.733-.33-1.06-1.192-.729-1.926.835-1.853 1.475-3.8 1.904-5.787.17-.786.945-1.287 1.731-1.116.786.17 1.286.945 1.116 1.731-.472 2.187-1.177 4.33-2.096 6.37-.243.539-.773.858-1.328.858C340.609 811.821 340.406 811.779 340.212 811.691zM283.525 810.781c-.906-2.045-1.598-4.193-2.056-6.383-.165-.788.34-1.559 1.127-1.724.787-.165 1.559.34 1.724 1.127.416 1.99 1.045 3.942 1.869 5.8.326.735-.006 1.595-.741 1.921-.192.085-.392.125-.589.125C284.298 811.648 283.766 811.325 283.525 810.781zM342.042 797.924v-.126c0-2.043-.212-4.083-.631-6.064-.166-.787.337-1.56 1.123-1.726.786-.166 1.56.337 1.726 1.123.46 2.178.694 4.421.694 6.666v.126c0 .804-.652 1.456-1.456 1.456C342.694 799.38 342.042 798.728 342.042 797.924zM282.242 799.19c-.804-.001-1.455-.655-1.453-1.459.004-2.245.242-4.487.707-6.664.168-.786.938-1.286 1.729-1.12.786.168 1.288.942 1.12 1.729-.423 1.979-.639 4.018-.643 6.061-.002.804-.653 1.453-1.456 1.453C282.244 799.19 282.243 799.19 282.242 799.19zM339.531 785.938c-.826-1.854-1.853-3.63-3.051-5.278-.473-.651-.329-1.562.321-2.034.651-.473 1.561-.33 2.034.321 1.318 1.813 2.447 3.765 3.355 5.805.328.734-.002 1.596-.737 1.923-.192.086-.394.127-.592.127C340.304 786.802 339.772 786.48 339.531 785.938zM284.312 786.617c-.734-.329-1.062-1.19-.733-1.924.913-2.037 2.045-3.988 3.366-5.796.475-.65 1.386-.792 2.035-.317.65.474.792 1.385.318 2.035-1.201 1.645-2.23 3.418-3.06 5.27-.242.54-.773.861-1.33.861C284.708 786.745 284.506 786.704 284.312 786.617zM332.402 776.129c-1.512-1.364-3.17-2.572-4.927-3.59-.696-.403-.933-1.294-.53-1.99.404-.696 1.295-.934 1.99-.53 1.932 1.119 3.755 2.447 5.418 3.947.597.539.645 1.459.106 2.057-.288.319-.684.481-1.082.481C333.029 776.503 332.68 776.38 332.402 776.129zM291.328 775.98c-.538-.598-.488-1.519.11-2.056 1.665-1.496 3.491-2.821 5.426-3.937.697-.403 1.587-.163 1.989.534.402.697.163 1.587-.534 1.989-1.76 1.015-3.42 2.22-4.935 3.581-.278.25-.626.373-.973.373C292.013 776.463 291.616 776.301 291.328 775.98zM321.911 770.054c-1.93-.629-3.935-1.055-5.96-1.267-.8-.084-1.38-.8-1.297-1.6.084-.8.804-1.379 1.6-1.297 2.228.233 4.434.702 6.558 1.394.765.249 1.183 1.071.934 1.836-.2.615-.771 1.006-1.384 1.006C322.213 770.125 322.06 770.102 321.911 770.054zM302.055 769.098c-.247-.766.172-1.586.938-1.833 2.126-.687 4.333-1.152 6.562-1.381.803-.081 1.516.499 1.598 1.3.082.8-.5 1.515-1.3 1.598-2.026.208-4.032.63-5.964 1.254-.149.048-.3.071-.448.071C302.826 770.107 302.254 769.715 302.055 769.098zM323.386 793.802c-1.039-1.898-3.665-3.24-6.204-2.548-2.72.742-3.763 3.52-3.877 3.84 0 .121.001.243.001.364-.003-.122-.005-.243-.008-.364-.114-.32-1.156-3.098-3.877-3.84-2.538-.693-5.165.65-6.203 2.548-1.903 3.478 2.095 7.784 2.548 8.271 2.706 2.914 6.283 3.396 7.577 3.495.027.002.053.004.079.006.033-.003.068-.006.105-.01 1.293-.129 4.701-.676 7.312-3.491C321.3 801.575 325.287 797.275 323.386 793.802zM1162.687 546.249c-.947 0-1.902-.048-2.838-.142-.699-.07-1.208-.693-1.137-1.392.07-.698.693-1.208 1.392-1.137 1.755.176 3.566.171 5.323-.016.698-.078 1.324.431 1.399 1.129.074.698-.431 1.325-1.129 1.399C1164.703 546.195 1163.691 546.249 1162.687 546.249zM1154.507 544.974c-.129 0-.26-.02-.389-.061-1.857-.596-3.659-1.392-5.355-2.366-.609-.349-.819-1.126-.47-1.735.349-.609 1.126-.819 1.735-.47 1.541.885 3.178 1.608 4.866 2.15.668.214 1.036.93.822 1.599C1155.544 544.631 1155.045 544.974 1154.507 544.974zM1171.023 544.924c-.535 0-1.032-.34-1.208-.875-.219-.667.145-1.385.812-1.604 1.685-.553 3.317-1.286 4.852-2.18.605-.353 1.385-.148 1.738.459.353.607.148 1.385-.459 1.738-1.689.983-3.485 1.79-5.339 2.398C1171.288 544.904 1171.154 544.924 1171.023 544.924zM1144.868 539.445c-.302 0-.604-.107-.847-.324-1.456-1.303-2.778-2.76-3.931-4.333-.415-.566-.293-1.362.273-1.777.567-.415 1.363-.293 1.777.273 1.049 1.431 2.252 2.757 3.576 3.941.523.468.568 1.272.1 1.795C1145.564 539.301 1145.217 539.445 1144.868 539.445zM1180.627 539.336c-.346 0-.692-.141-.943-.418-.471-.521-.431-1.324.089-1.795 1.316-1.192 2.512-2.525 3.552-3.963.412-.568 1.207-.695 1.775-.284.568.412.696 1.207.284 1.775-1.145 1.581-2.459 3.046-3.906 4.357C1181.236 539.227 1180.931 539.336 1180.627 539.336zM1138.301 530.484c-.485 0-.948-.279-1.16-.75-.802-1.78-1.417-3.651-1.829-5.56-.148-.686.288-1.362.974-1.511.687-.148 1.363.288 1.511.974.374 1.734.934 3.434 1.662 5.052.288.64.003 1.393-.637 1.681C1138.652 530.448 1138.475 530.484 1138.301 530.484zM1187.141 530.334c-.172 0-.347-.035-.514-.109-.642-.284-.932-1.035-.647-1.677.719-1.622 1.268-3.326 1.631-5.063.144-.687.818-1.127 1.505-.984.687.144 1.128.817.984 1.505-.4 1.912-1.004 3.787-1.795 5.572C1188.093 530.052 1187.629 530.334 1187.141 530.334zM1135.953 519.624c-.702 0-1.271-.569-1.271-1.271v-.11c0-1.96.204-3.917.606-5.818.145-.687.819-1.127 1.506-.981.687.145 1.126.82.981 1.506-.365 1.729-.551 3.509-.551 5.293v.11C1137.224 519.055 1136.655 519.624 1135.953 519.624zM1189.421 519.459c-.701 0-1.27-.567-1.271-1.269-.003-1.784-.193-3.564-.561-5.291-.146-.687.291-1.362.978-1.509.691-.146 1.362.292 1.509.978.406 1.9.613 3.858.617 5.817.001.702-.567 1.272-1.269 1.274C1189.423 519.459 1189.422 519.459 1189.421 519.459zM1138.254 508.645c-.173 0-.348-.035-.517-.11-.641-.286-.929-1.037-.644-1.678.793-1.781 1.779-3.486 2.929-5.068.413-.568 1.208-.694 1.776-.281.568.413.693 1.208.28 1.776-1.046 1.439-1.942 2.989-2.663 4.607C1139.205 508.364 1138.741 508.645 1138.254 508.645zM1187.098 508.596c-.486 0-.949-.28-1.161-.752-.724-1.617-1.623-3.165-2.671-4.6-.414-.567-.29-1.362.277-1.776.566-.414 1.362-.29 1.776.277 1.153 1.579 2.141 3.281 2.938 5.06.287.641 0 1.393-.64 1.68C1187.448 508.56 1187.272 508.596 1187.098 508.596zM1144.789 499.656c-.347 0-.693-.142-.944-.42-.47-.521-.429-1.325.093-1.795 1.451-1.309 3.042-2.468 4.729-3.445.607-.353 1.385-.145 1.737.463.352.607.145 1.385-.463 1.737-1.533.888-2.98 1.943-4.301 3.133C1145.397 499.547 1145.092 499.656 1144.789 499.656zM1180.547 499.621c-.303 0-.606-.107-.849-.326-1.322-1.188-2.772-2.239-4.308-3.126-.608-.351-.817-1.128-.466-1.736.35-.608 1.127-.817 1.736-.466 1.689.974 3.283 2.131 4.736 3.437.522.469.565 1.273.096 1.795C1181.242 499.479 1180.895 499.621 1180.547 499.621zM1154.403 494.088c-.536 0-1.034-.341-1.208-.878-.217-.668.148-1.385.815-1.602 1.855-.604 3.781-1.013 5.725-1.216.699-.07 1.323.434 1.397 1.132.073.698-.434 1.323-1.132 1.396-1.767.185-3.517.557-5.202 1.105C1154.667 494.068 1154.534 494.088 1154.403 494.088zM1170.92 494.072c-.13 0-.261-.02-.391-.062-1.686-.545-3.438-.913-5.206-1.095-.698-.072-1.206-.696-1.135-1.395.072-.698.692-1.205 1.395-1.135 1.945.2 3.873.605 5.728 1.205.668.216 1.034.932.818 1.6C1171.955 493.73 1171.457 494.072 1170.92 494.072zM1173.938 505.317c-4.189 5.85-8.377 11.7-12.566 17.55-2.916-2.737-5.831-5.474-8.747-8.211-1.756 2.235-3.512 4.47-5.268 6.705 4.944 3.269 9.888 6.538 14.832 9.808 6.311-6.781 13.889-11.227 20.2-18.008C1179.994 511.325 1176.333 507.153 1173.938 505.317zM202.373 550.915c-1.105 0-2.22-.056-3.313-.166-.816-.082-1.41-.81-1.328-1.625.082-.815.809-1.408 1.625-1.328 2.049.206 4.163.2 6.215-.019.816-.092 1.546.503 1.633 1.318.087.815-.503 1.546-1.318 1.633C204.727 550.852 203.545 550.915 202.373 550.915zM192.823 549.427c-.15 0-.303-.023-.454-.071-2.168-.696-4.271-1.625-6.251-2.762-.711-.408-.956-1.315-.548-2.026.409-.711 1.314-.956 2.026-.548 1.799 1.033 3.711 1.877 5.681 2.51.78.25 1.21 1.086.959 1.867C194.034 549.026 193.451 549.427 192.823 549.427zM212.105 549.369c-.624 0-1.205-.397-1.41-1.022-.255-.779.169-1.617.947-1.873 1.967-.645 3.873-1.501 5.665-2.545.707-.413 1.617-.173 2.029.536.412.708.172 1.617-.536 2.029-1.971 1.148-4.068 2.09-6.233 2.8C212.414 549.345 212.258 549.369 212.105 549.369zM181.57 542.972c-.352 0-.706-.125-.989-.378-1.7-1.521-3.244-3.222-4.59-5.059-.485-.661-.342-1.59.319-2.074.662-.484 1.591-.341 2.074.319 1.225 1.67 2.629 3.218 4.175 4.601.611.547.663 1.485.117 2.096C182.383 542.804 181.977 542.972 181.57 542.972zM223.317 542.845c-.404 0-.808-.165-1.1-.488-.55-.607-.504-1.546.104-2.096 1.537-1.392 2.932-2.948 4.147-4.627.481-.664 1.409-.812 2.072-.332.664.481.812 1.409.332 2.072-1.336 1.845-2.87 3.556-4.56 5.086C224.029 542.718 223.673 542.845 223.317 542.845zM173.903 532.51c-.566 0-1.107-.326-1.354-.875-.936-2.079-1.655-4.263-2.135-6.491-.173-.801.336-1.591 1.138-1.764.802-.174 1.591.336 1.764 1.138.437 2.025 1.09 4.009 1.94 5.898.337.747.004 1.626-.744 1.963C174.313 532.468 174.106 532.51 173.903 532.51zM230.922 532.335c-.201 0-.405-.041-.6-.128-.75-.332-1.088-1.209-.756-1.958.839-1.894 1.48-3.883 1.904-5.911.168-.802.955-1.316 1.757-1.149.802.168 1.316.954 1.149 1.756-.467 2.232-1.172 4.421-2.096 6.505C232.034 532.006 231.491 532.335 230.922 532.335zM171.162 519.832c-.82 0-1.484-.664-1.484-1.484v-.129c0-2.288.238-4.574.707-6.793.17-.802.956-1.314 1.759-1.145.802.169 1.315.957 1.145 1.759-.426 2.018-.643 4.097-.643 6.179v.129C172.646 519.168 171.981 519.832 171.162 519.832zM233.584 519.64c-.818 0-1.483-.662-1.484-1.481-.004-2.082-.225-4.16-.655-6.177-.171-.802.34-1.59 1.141-1.762.806-.168 1.591.34 1.762 1.141.473 2.218.716 4.504.72 6.792.001.82-.661 1.485-1.481 1.487C233.586 519.64 233.585 519.64 233.584 519.64zM173.849 507.014c-.202 0-.407-.041-.603-.129-.749-.333-1.085-1.211-.752-1.959.926-2.079 2.077-4.069 3.42-5.916.482-.663 1.41-.809 2.073-.327.663.482.809 1.41.327 2.073-1.221 1.679-2.267 3.489-3.109 5.378C174.959 506.686 174.417 507.014 173.849 507.014zM230.871 506.957c-.567 0-1.108-.327-1.355-.878-.846-1.887-1.895-3.694-3.118-5.37-.483-.662-.339-1.59.324-2.074.661-.484 1.59-.339 2.074.324 1.346 1.843 2.5 3.831 3.43 5.907.335.748 0 1.626-.747 1.961C231.281 506.915 231.074 506.957 230.871 506.957zM181.477 496.52c-.405 0-.809-.165-1.103-.49-.549-.609-.5-1.547.108-2.096 1.694-1.528 3.552-2.881 5.521-4.022.708-.411 1.617-.169 2.028.54.411.709.169 1.617-.54 2.028-1.79 1.037-3.48 2.268-5.021 3.658C182.187 496.393 181.831 496.52 181.477 496.52zM223.223 496.479c-.354 0-.708-.125-.991-.38-1.544-1.387-3.236-2.615-5.029-3.649-.71-.41-.953-1.317-.544-2.027.409-.71 1.316-.954 2.027-.544 1.972 1.138 3.833 2.487 5.529 4.012.61.548.66 1.486.112 2.096C224.035 496.313 223.63 496.479 223.223 496.479zM192.702 490.02c-.625 0-1.207-.398-1.411-1.025-.254-.779.172-1.617.952-1.871 2.165-.705 4.414-1.183 6.684-1.42.816-.085 1.545.507 1.63 1.322.085.815-.507 1.545-1.322 1.63-2.063.216-4.106.65-6.073 1.291C193.009 489.997 192.854 490.02 192.702 490.02zM211.985 490.001c-.151 0-.305-.023-.457-.072-1.968-.636-4.013-1.066-6.078-1.278-.815-.084-1.408-.813-1.325-1.628.084-.816.807-1.408 1.628-1.324 2.271.233 4.521.707 6.687 1.407.78.252 1.208 1.088.956 1.868C213.193 489.601 212.611 490.001 211.985 490.001zM212.31 523.16c0-3.911-2.269-6.1-6.724-7.846v-9.27c2.222.085 3.862.816 4.688 1.269l.959-2.835c-1.153-.654-3.049-1.27-5.647-1.315v-3.757h-2.839v4.022c-3.785.838-6.165 3.568-6.165 7.039 0 3.515 2.331 5.725 6.165 7.27v10.289c-2.254-.079-4.372-.843-5.847-1.751l-.877 2.916c1.411.938 4.169 1.687 6.724 1.714v3.755h2.839v-3.998C210.109 529.787 212.31 526.675 212.31 523.16zM200.093 510.066c0-1.359.768-2.911 2.653-3.628v7.59C200.928 512.998 200.093 511.857 200.093 510.066zM205.585 527.668v-8.736c2.243 1.165 3.171 2.489 3.171 4.508C208.757 525.448 207.617 526.997 205.585 527.668z"/><path fill="#F2BFC2" d="M771.75,760.672c-13.279,4.408-25.811,8.392-30.853,8.713c-12.471,0.8-69.808,18.037-81.832,2.943
	c-5.238-6.563-0.517-16.142,27.612-23.367c28.134-7.232,76.158-15.008,82.055-1.196C770.129,751.036,771.218,755.627,771.75,760.672
	z"/><path fill="#F2BFC2" d="M767.237,835.575c-14.258-2.824-28.173-31.493-30.965-37.548c1.475,0.813,6.104,1.714,19.779,1.385
	c17.918-0.436,3.874-26.623-7.555-38.071c18.034-9.942,58.353-20.494,59.993-18.796c2.763,2.852,8.192,31.978,7.853,36.579
	C815.995,783.722,783.18,838.743,767.237,835.575z"/><path fill="#F7C8CC" d="M718.383,697.54c0,0-83.907,1.685-81.089,17.085c2.818,15.4,42.824,22.339,66.727,16.191
	c23.904-6.149,36.396-9.843,42.284-9.075c5.887,0.768,10.92,13.031,27.449,17.231c16.529,4.201,34.432,12.136,34.432,12.136
	l-21.224-52.103C786.962,699.006,731.424,690.915,718.383,697.54z"/><path fill="#F7C8CC" d="M640.858,747.438c-1.059-12.985,68.716-38.004,84.833-37.136c16.117,0.868,74.396,34.261,74.396,34.261
	l-18.52,27.023c0,0-44.695-25.118-49.914-21.543c-5.219,3.575-60.505,8.685-71.015,7.904
	C650.128,757.165,641.643,757.064,640.858,747.438z"/><path fill="#F2CED0" d="M735.763,796.911c0,0,0.175,0.4,0.51,1.117C735.199,797.446,735.763,796.911,735.763,796.911z"/><path fill="#F7D4D7" d="M835.021,910.237C828.372,923.9,824.441,941.386,822.3,960H714.094
	c-4.508-16.388-12.246-33.811-24.78-53.025c3.005,0.779,6.15,1.503,9.428,2.172c65.201,13.297,71.375-47.046,71.024-73.523
	c-0.016-1.207-0.047-2.343-0.086-3.402c11.576-3.153,36.652-49.95,23.885-68.004c-1.129-1.604-2.258-3.356-3.363-5.224
	c-2.063-3.457-4.064-7.303-5.971-11.304c-1.043-2.172-2.055-4.399-3.029-6.617c-1.308-2.982-2.546-5.971-3.706-8.875
	c-5.496-13.725-9.155-25.551-9.155-25.551s-13.803,1.752-29.327,1.308c-0.233,0-0.475-0.008-0.708-0.016
	c-2.631-0.086-5.177-0.234-7.637-0.428c-3.324-0.265-6.493-0.631-9.521-1.074c-8.159-1.207-15.267-3.028-21.386-5.247
	c-0.584-0.934-1.168-1.845-1.767-2.725c-1.487-2.203-3.021-4.243-4.609-6.096c-2.818-3.285-5.8-5.979-8.969-7.894
	c-0.662-0.413-1.331-0.779-2.009-1.105c-0.016-0.016-0.039-0.023-0.055-0.031c-0.039-0.016-0.07-0.039-0.109-0.047
	c-1.51-0.732-3.06-1.285-4.648-1.635c-0.545-0.125-1.097-0.226-1.658-0.304c-0.965-0.132-1.946-0.195-2.951-0.187
	c-0.319,0.008-0.654,0.023-0.981,0.039c-0.093-0.171-0.187-0.335-0.272-0.498c-0.008-0.008-0.008-0.008-0.008-0.008
	c-3.596-6.688-2.367-11.545,3.293-13.375c2.484-0.802,5.823-1.028,9.981-0.561c1.884,0.21,3.752,0.397,5.598,0.561
	c9.615,0.849,18.708,1.059,27.271,0.973c1.152-0.016,2.304-0.031,3.441-0.055c8.914-0.179,17.245-0.654,24.959-1.043
	c17.953-0.903,32.628-1.339,43.924,3.534c16.364,7.053,45.099,62.243,51.927,76.956c6.835,14.706,20.055,10.074,21.705,32.316
	C865.477,802.257,871.339,835.608,835.021,910.237z"/><path fill="#F7D4D7" d="M699.758,701.19c-14.889-5.398-23.878-13.129-27.754-19.988C682.964,680.536,692.052,688.817,699.758,701.19
	z"/><path fill="#FED348" d="M565.682 428.153c-10.479-5.09-20.957-10.18-31.436-15.27-3.59-1.743-6.279 3.847-2.678 5.596 10.478 5.09 20.957 10.18 31.436 15.27C566.593 435.493 569.283 429.902 565.682 428.153zM596.323 386.166c-12.906-14.126-25.812-28.253-38.718-42.379-1.13-1.237-3.382-.814-4.373.347-1.199 1.403-.788 3.132.346 4.373 12.906 14.126 25.812 28.253 38.718 42.379 1.131 1.238 3.382.814 4.374-.346C597.868 389.137 597.457 387.408 596.323 386.166zM637.084 333.42c1.015 10.628 2.03 21.256 3.044 31.884.379 3.976 6.57 3.568 6.19-.412-1.014-10.628-2.029-21.257-3.043-31.885C642.895 329.032 636.704 329.441 637.084 333.42zM793.471 565.892h.032c0 0-.158.221-.411.537-1.17 1.835-2.373 3.608-3.639 5.348-11.803 17.753-50.059 72.654-50.059 119.771h-94.139c0-44.427-34.873-94.931-49.017-115.119-2.246-2.848-4.399-5.791-6.423-8.829-.095-.159-.19-.253-.19-.253h.031c-12.562-19.112-19.872-41.959-19.872-66.546 0-67.021 54.3-121.321 121.321-121.321 28.321 0 54.395 9.714 75.058 26.011 28.163 22.214 46.262 56.642 46.262 95.31C812.426 524.755 805.433 547.064 793.471 565.892z"/><rect width="87.466" height="11.881" x="646.368" y="714.042" fill="#493D93"/><rect width="87.466" height="5.941" x="646.368" y="750.815" fill="#493D93"/><path fill="#493D93" d="M692.341,799.135h-4.481c-22.916,0-41.492-18.974-41.492-42.379l0,0h87.466l0,0
	C733.834,780.161,715.257,799.135,692.341,799.135z"/><path fill="#CCC" d="M793.471,565.892h0.032c0,0-0.158,0.221-0.411,0.537c-1.17,1.835-2.373,3.608-3.639,5.348
	c-11.803,17.753-50.059,72.654-50.059,119.771h-22.594c-1.613-39.966,26.466-84.824,64.849-154.377
	C820.032,467.651,766.1,405.49,766.1,405.49h0.064c28.163,22.214,46.262,56.642,46.262,95.31
	C812.426,524.755,805.433,547.064,793.471,565.892z"/><path fill="#FFF" d="M742.95,567.966c-1.547-4.62-4.345-7.744-8.315-9.284c-1.323-0.513-2.531-0.875-3.644-1.121
	c-2.386-2.335-7.642-5.618-16.868-2.646c-2.798,0.897-5.192,2.22-7.187,3.818c-3.796-2.56-8.3-4.129-13.195-3.875
	c-3.174,0.159-6.167,1.222-8.857,2.899c-5.307-5.618-12.205-7.303-19.529-4.743c-9.826,3.442-13.347,8.358-14.547,11.959
	c-3.63,1.75-6.298,5.343-7.549,10.31c-3.796,15.119,15.155,73.496,24.75,101.434h-5.972v12.429h10.325
	c0.05,0.145,0.101,0.289,0.152,0.427c0.333,0.94,0.579,1.627,0.708,1.974c0.022,0.058,0.036,0.101,0.051,0.137l0.296,0.817
	l9.472,0.145c0,0,0.007-0.007,0.007,0h0.087l18.857,0.282l0.376-0.615c0.137-0.217,0.289-0.477,0.463-0.766
	c0.376-0.643,0.846-1.453,1.374-2.401h9.992v-12.429h-3.391C725.236,648.382,750.839,591.501,742.95,567.966z M729.726,559.89
	c2.711,3.058,3.283,7.165,2.401,9.768c-0.39,1.171-1.258,2.617-3.145,2.885c-4.158,0.6-6.081-2.097-6.717-3.283
	c-1.374-2.545-1.164-5.755,0.499-7.642c1.128-1.273,2.798-1.909,4.902-1.909C728.309,559.709,728.996,559.767,729.726,559.89z
	 M707.052,561.994c5.025,4.013,8.467,9.898,9.226,14.663c0.347,2.176,0.412,5.972-3.051,6.905
	c-5.242,1.424-9.284-0.759-10.788-5.835C700.964,572.746,702.504,566.491,707.052,561.994z M689.171,586.953
	c-1.258,2.487-3.189,3.63-5.777,3.42c-7.773-0.644-8.843-6.724-8.785-10.289c0.101-6.645,4.063-14.417,9.855-18.936
	C690.567,569.044,692.071,581.205,689.171,586.953z M652.911,566.831c0.716-0.246,1.381-0.383,1.952-0.456
	c3.745-0.463,7.042,1.215,8.084,3.124c0.622,1.15,0.434,2.335-0.564,3.521c-1.655,1.959-3.644,2.632-5.611,1.901
	c-2.4-0.889-4.056-3.579-4.027-6.536C652.745,567.966,652.788,567.439,652.911,566.831z M645.702,575.898
	c0.983-3.904,2.719-6.24,4.519-7.621v0.087c-0.036,4.006,2.299,7.671,5.669,8.922c2.957,1.099,6.102,0.108,8.423-2.639
	c1.656-1.974,1.966-4.288,0.846-6.356c-1.699-3.123-6.167-4.982-10.614-4.418c-0.181,0.022-0.362,0.051-0.542,0.079
	c1.555-2.747,4.938-6.023,12.191-8.561c7.78-2.726,13.224,0.383,16.601,3.832c-6.349,4.989-10.593,13.412-10.708,20.816
	c-0.116,7.454,4.034,12.255,11.106,12.848c3.586,0.318,6.522-1.403,8.228-4.801c3.63-7.201,1.28-20.267-4.88-28.372
	c2.263-1.359,4.743-2.213,7.332-2.343c4.078-0.21,7.845,1.056,11.106,3.138c-4.989,5.148-6.637,12.241-4.952,17.931
	c1.88,6.355,7.324,9.32,13.86,7.556c3.861-1.041,5.683-4.678,4.88-9.739c-0.832-5.264-4.411-11.561-9.739-15.957
	c1.67-1.236,3.622-2.263,5.871-2.986c4.338-1.403,8.214-1.396,11.265-0.036c-2.726,0.354-4.375,1.634-5.285,2.675
	c-2.379,2.69-2.719,7.006-0.832,10.506c1.851,3.435,5.322,5.141,9.299,4.584c2.429-0.347,4.316-2.017,5.177-4.577
	c0.99-2.95,0.549-6.5-1.042-9.53c0.087,0.029,0.167,0.065,0.246,0.094c3.283,1.28,5.517,3.81,6.832,7.737
	c7.455,22.24-17.866,79.411-32.515,107.949h-37.345C661.291,649.337,642.073,590.366,645.702,575.898z M700.588,690.383
	l-23.022-0.34c-0.007-0.007-0.007,0-0.007,0l-0.766-0.015l-1.446-0.022c-0.029-0.08-0.058-0.166-0.094-0.26
	c-0.036-0.101-0.072-0.21-0.116-0.325c-0.029-0.094-0.065-0.181-0.094-0.275h26.275
	C701.065,689.581,700.812,690.015,700.588,690.383z"/><path fill="#CCC" d="M615.257,431.57c-13.268,16.99-17.204,36.087-8.792,42.656c8.411,6.568,25.985-1.88,39.252-18.87
	c13.267-16.99,17.203-36.088,8.792-42.656C646.098,406.131,628.524,414.58,615.257,431.57z"/><rect width="87.528" height="3.716" x="646.306" y="713.042" fill="#CCC"/><rect width="87.466" height="3.717" x="646.368" y="750.815" fill="#CCC"/><path fill="#6458AD" d="M733.229 714.042h-86.627c-6.873 0-12.445-5.573-12.445-12.446l0 0c0-6.874 5.572-12.446 12.445-12.446h86.627c6.873 0 12.446 5.572 12.446 12.446l0 0C745.675 708.469 740.102 714.042 733.229 714.042zM733.229 750.815h-86.627c-6.873 0-12.445-5.572-12.445-12.445l0 0c0-6.875 5.572-12.447 12.445-12.447h86.627c6.873 0 12.446 5.572 12.446 12.447l0 0C745.675 745.242 740.102 750.815 733.229 750.815z"/><path fill="#F7D4D7" d="M698.745,909.15c-3.282-0.672-6.425-1.396-9.428-2.171c-0.653-1.953-1.238-3.664-1.758-5.116
	c-9.106-25.554-4.864-53.311-3.449-72.368c1.419-19.045-1.632-35.346-18.134-75.584c-17.162-41.847-13.188-63.289-2.92-70.277
	c11.44-7.785,26.457,0.465,36.702,17.557c18.785,30.191,30.863,83.322,38.72,93.284c13.111,16.624,19.161,38.41,30.206,37.909
	c0.32-0.017,0.648-0.068,0.998-0.164C770.556,856.443,766.919,923.052,698.745,909.15z"/><path fill="#F7E6E7" d="M700.284,713.915c-1.161,10.029-29.15,21.461-36.677,13.902c-0.537-0.539-14.543-32.664,3.534-41.418
	C685.219,677.646,700.284,713.915,700.284,713.915z"/><path fill="#DDD6FF" d="M339.708,648.424c-0.554-0.289-1.083-0.61-1.596-0.971c0.425,0.145,0.842,0.369,1.211,0.658
	C339.452,648.216,339.58,648.312,339.708,648.424z"/><circle cx="346.481" cy="630.314" r="19.932" fill="#DDD6FF" transform="rotate(-45.001 346.475 630.321)"/><path fill="#DDD6FF" d="M328.005 645.841c.168.217.353.433.538.65-.93.377-1.901.69-2.896.923.088-.08.169-.161.257-.233C326.545 646.635 327.251 646.186 328.005 645.841zM367.462 646.419c-.353-.144-.706-.305-1.051-.473.032-.04.064-.08.104-.128C366.845 645.986 367.157 646.186 367.462 646.419zM364.762 650.406c-1.604-1.253-3.846-1.209-5.424.077-3.431 2.799-7.816 4.485-12.599 4.485-4.628 0-8.885-1.576-12.261-4.225-1.608-1.261-3.887-1.236-5.438.094-4.021 3.448-6.469 8.42-6.469 14.883v.583c0 3.343 2.71 6.052 6.052 6.052h37.246c3.342 0 6.052-2.709 6.052-6.052v-.583C371.92 658.982 369.185 653.862 364.762 650.406z"/><path fill="#DDD6FF" d="M395.064 628.018c0 11.013-8.92 19.933-19.933 19.933-2.711 0-5.302-.545-7.66-1.524l-.008-.008c-.353-.144-.706-.305-1.051-.473.032-.04.064-.08.104-.128 3.417-4.243 5.471-9.642 5.471-15.505 0-7.38-3.241-14.013-8.374-18.545 3.249-2.318 7.227-3.674 11.519-3.674C386.144 608.093 395.064 617.012 395.064 628.018zM400.574 663.432v.578c0 3.345-2.711 6.056-6.056 6.056h-18.457c.433-1.171.674-2.438.674-3.762v-.585c0-4.957-1.228-9.401-3.602-13.171.738.088 1.492.128 2.262.128 4.781 0 9.168-1.684 12.594-4.484 1.58-1.284 3.818-1.332 5.422-.08C397.839 651.569 400.574 656.686 400.574 663.432zM322.502 630.312c0 5.872 2.061 11.286 5.503 15.529.168.217.353.433.538.65-.93.377-1.901.69-2.896.923-1.476.353-3.016.537-4.604.537-11.005 0-19.933-8.92-19.933-19.933 0-11.005 8.928-19.925 19.933-19.925 3.89 0 7.516 1.115 10.588 3.048C326.064 615.673 322.502 622.587 322.502 630.312zM317.753 665.718v.585c0 1.324.241 2.591.674 3.762h-15.249c-3.337 0-6.048-2.711-6.048-6.056v-.578c0-6.465 2.446-11.439 6.473-14.888 1.548-1.332 3.826-1.356 5.43-.096 3.361 2.639 7.588 4.211 12.192 4.227C318.941 656.414 317.753 660.825 317.753 665.718zM339.708 648.424c-.554-.289-1.083-.61-1.596-.971.425.145.842.369 1.211.658C339.452 648.216 339.58 648.312 339.708 648.424z"/><rect width="20.719" height="22.852" x="257.052" y="429.707" fill="#DDD6FF"/><rect width="20.718" height="41.189" x="294.021" y="411.369" fill="#DDD6FF"/><rect width="20.718" height="58.193" x="330.989" y="394.366" fill="#DDD6FF"/><rect width="20.719" height="72.073" x="367.958" y="380.486" fill="#DDD6FF"/><path fill="#DDD6FF" d="M381.174,334.167l-4.915-16.096c-0.345-1.128-1.787-1.463-2.597-0.601l-11.543,12.285
	c-0.809,0.862-0.379,2.272,0.775,2.54l4.822,1.116c-1.219,3.632-2.86,7.13-4.905,10.406c-2.652,4.262-5.974,8.141-9.765,11.552
	c-7.597,6.835-16.986,11.772-26.935,14.908c-9.97,3.124-20.557,4.509-31.092,4.059c-5.267-0.231-10.526-0.931-15.667-2.17
	c-5.137-1.24-10.161-3.023-14.88-5.448c-0.188-0.096-0.422-0.031-0.529,0.153c-0.11,0.19-0.045,0.432,0.145,0.542
	c4.657,2.686,9.677,4.748,14.855,6.265c5.181,1.517,10.524,2.494,15.914,2.991c10.784,0.981,21.769,0.097,32.337-2.661
	c5.28-1.388,10.457-3.257,15.411-5.659c4.951-2.402,9.681-5.34,13.996-8.861c4.312-3.517,8.206-7.625,11.416-12.263
	c2.628-3.785,4.781-7.921,6.404-12.26l4.931,1.142C380.507,336.372,381.519,335.295,381.174,334.167z"/><polygon fill="#DDD6FF" points="799.791 182.641 799.791 182.644 799.787 182.641"/><path fill="#DDD6FF" d="M788.216,204.172c1.422,2.153,3.063,4.152,4.887,5.969C791.512,208.148,789.883,206.156,788.216,204.172z
	 M847.674,209.097c1.702-1.824,3.223-3.82,4.539-5.954C850.668,205.151,849.15,207.135,847.674,209.097z"/><path fill="#DDD6FF" d="M820.251 145.278c-20.727-.197-37.944 16.524-38.323 37.248-.146 8.001 2.181 15.452 6.276 21.635h.004v.004l.008.008c11.311 13.442 21.877 28.88 29.69 43.538.805 1.511 2.99 1.487 3.752-.046 7.103-14.292 20.58-30.385 30.555-44.521 3.571-5.789 5.632-12.606 5.632-19.906C857.845 162.395 841.047 145.475 820.251 145.278zM819.883 207.277c-4.523 0-8.756-1.25-12.37-3.422-6.993-4.206-11.67-11.865-11.67-20.617 0-13.275 10.764-24.035 24.039-24.035 13.276 0 24.039 10.76 24.039 24.035 0 8.481-4.39 15.933-11.024 20.212C829.148 205.87 824.678 207.277 819.883 207.277zM811.495 264.057c0-4.899 3.972-8.87 8.871-8.87s8.87 3.971 8.87 8.87c0 4.899-3.971 8.87-8.87 8.87S811.495 268.956 811.495 264.057z"/><path fill="#DDD6FF" d="M788.216 204.172c1.422 2.153 3.063 4.152 4.887 5.969C791.512 208.148 789.883 206.156 788.216 204.172zM847.674 209.097c1.702-1.824 3.223-3.82 4.539-5.954C850.668 205.151 849.15 207.135 847.674 209.097zM1029.1 412.497c0-12.824-7.44-20.003-22.05-25.729V356.37c7.284.277 12.663 2.677 15.371 4.162l3.144-9.296c-3.782-2.145-9.997-4.166-18.516-4.313v-12.322h-9.31v13.189c-12.413 2.749-20.217 11.699-20.217 23.081 0 11.524 7.643 18.774 20.217 23.839v33.74c-7.393-.259-14.339-2.764-19.172-5.741l-2.878 9.562c4.627 3.077 13.671 5.532 22.05 5.62v12.315h9.31v-13.11C1021.882 434.228 1029.1 424.024 1029.1 412.497zM989.04 369.56c0-4.455 2.519-9.545 8.699-11.896v24.887C991.779 379.177 989.04 375.434 989.04 369.56zM1007.05 427.28v-28.648c7.354 3.82 10.399 8.16 10.399 14.781C1017.448 420.002 1013.711 425.081 1007.05 427.28zM998.646 621.771v52.708h-18.43c-8.684 0-15.728-7.044-15.728-15.729V637.52c0-8.685 7.044-15.749 15.728-15.749H998.646zM1065.362 673.299c-6.323 7.164-59.772 1.181-59.772 1.181v-52.708c0 0 8.74-4.746 11.361-13.491 2.581-8.685 6.459-19.818 13.162-18.037 6.724 1.781 9.194 19.881.91 31.527 0 0 26.113-7.064 33.197.66C1070.945 629.735 1071.285 666.595 1065.362 673.299zM568.999 207.008h-3.446c-.982-4.467-2.62-8.694-4.812-12.557l2.857-2.857c4.269-4.268 4.269-11.189 0-15.458-4.268-4.268-11.189-4.268-15.458 0l-2.44 2.44c-3.758-2.41-7.88-4.268-12.274-5.479-.001 0-.003-.001-.004-.001v-4.04c0-6.037-4.893-10.93-10.93-10.93-6.037 0-10.93 4.894-10.93 10.93v3.446c-4.467.981-8.694 2.62-12.556 4.811l-2.857-2.857c-4.268-4.269-11.189-4.269-15.458 0-4.269 4.269-4.269 11.189 0 15.458l2.439 2.439c-2.411 3.758-4.269 7.881-5.48 12.276 0 .001 0 .002-.001.003h-4.038c-6.037 0-10.93 4.894-10.93 10.93 0 6.037 4.894 10.93 10.93 10.93h3.444c.981 4.468 2.62 8.696 4.812 12.559l-2.855 2.855c-4.269 4.269-4.269 11.189 0 15.458 4.268 4.269 11.189 4.269 15.458 0l2.431-2.431c.001.001.002.001.003.002 3.758 2.401 7.89 4.259 12.284 5.48v4.029c0 6.037 4.894 10.93 10.93 10.93 6.037 0 10.93-4.894 10.93-10.93v-3.443c4.468-.982 8.696-2.621 12.558-4.813l2.855 2.855c4.268 4.268 11.189 4.268 15.458 0 4.268-4.268 4.268-11.189 0-15.458l-2.432-2.432c0 0 0 0 0-.001 2.401-3.758 4.259-7.891 5.48-12.285h4.031c6.037 0 10.93-4.894 10.93-10.93C579.929 211.902 575.035 207.008 568.999 207.008zM553.849 216.753c0 17.969-14.576 32.545-32.545 32.545-17.969 0-32.545-14.576-32.545-32.545 0-17.98 14.576-32.545 32.545-32.545C539.273 184.208 553.849 198.773 553.849 216.753z"/><path fill="#DDD6FF" d="M500.735,216.753c0,11.36,9.209,20.569,20.569,20.569c11.36,0,20.579-9.209,20.579-20.569
	c0-11.36-9.219-20.579-20.579-20.579C509.944,196.174,500.735,205.393,500.735,216.753z"/><path fill="#FFF" d="M271.018 103.254c-2.079 0-4.057.43-5.852 1.204.023-.399.036-.8.036-1.204 0-11.443-9.277-20.72-20.72-20.72-4.164 0-8.041 1.23-11.289 3.344-.536-15.187-13.015-27.335-28.333-27.335-15.659 0-28.354 12.694-28.354 28.354 0 .312.007.621.017.93-3.668-3.29-8.515-5.292-13.83-5.292-11.443 0-20.72 9.277-20.72 20.72 0 .827.05 1.642.144 2.443-2.335-1.544-5.133-2.443-8.141-2.443-8.164 0-14.783 6.618-14.783 14.783 0 8.164 6.618 14.783 14.783 14.783 3.925 0 7.492-1.53 10.139-4.026 3.385 6.837 10.432 11.539 18.578 11.539 5.191 0 9.937-1.91 13.573-5.064 3.292 2.203 7.25 3.489 11.509 3.489 5.666 0 10.8-2.275 14.54-5.96 3.741 3.685 8.874 5.96 14.54 5.96 4.894 0 9.39-1.697 12.935-4.535 3.753 3.773 8.949 6.11 14.691 6.11 7.641 0 14.315-4.137 17.907-10.292 2.428 1.749 5.408 2.779 8.629 2.779 8.164 0 14.783-6.618 14.783-14.783C285.8 109.873 279.182 103.254 271.018 103.254zM943.329 124.235c-1.947 0-3.799.403-5.48 1.128.021-.373.033-.749.033-1.128 0-10.715-8.687-19.402-19.402-19.402-3.899 0-7.53 1.151-10.571 3.131-.502-14.221-12.188-25.597-26.531-25.597-14.663 0-26.55 11.887-26.55 26.55 0 .292.006.582.016.871-3.435-3.081-7.973-4.956-12.951-4.956-10.716 0-19.402 8.687-19.402 19.402 0 .774.047 1.537.135 2.288-2.186-1.446-4.806-2.288-7.623-2.288-7.645 0-13.843 6.198-13.843 13.843 0 7.645 6.198 13.842 13.843 13.842 3.675 0 7.016-1.433 9.494-3.77 3.17 6.402 9.769 10.805 17.396 10.805 4.861 0 9.305-1.788 12.71-4.742 3.083 2.063 6.789 3.267 10.777 3.267 5.306 0 10.113-2.13 13.616-5.581 3.503 3.451 8.31 5.581 13.616 5.581 4.583 0 8.793-1.589 12.113-4.246 3.514 3.533 8.38 5.721 13.757 5.721 7.155 0 13.405-3.874 16.768-9.637 2.274 1.637 5.064 2.603 8.08 2.603 7.645 0 13.842-6.197 13.842-13.842C957.172 130.433 950.974 124.235 943.329 124.235z"/></svg>