<svg xmlns="http://www.w3.org/2000/svg" width="48" height="48" viewBox="0 0 48 48"><g transform="matrix(.85513 .49378 -.4937 .85524 -1772.415 -1936.915)"><g transform="translate(32.39 -7.607)"><path fill="#36d7b7" stroke="#3b3c3d" stroke-width="1.519" d="m 2537.254,795.85008 -10.6094,9.1836 0,32.1582 21.8813,0 -0.1801,-31.9863 z m 0.125,6.0508 c 0.8306,0 1.6271,0.331 2.2207,0.9121 1.2617,1.2351 1.2826,3.2592 0.047,4.5195 -1.2353,1.2593 -3.2578,1.2785 -4.5175,0.043 -1.2604,-1.2349 -1.2814,-3.2575 -0.047,-4.5176 0.6047,-0.6164 1.4333,-0.9616 2.2969,-0.957 z"/><path fill="none" stroke="#3b3c3d" stroke-width="1.519" d="m -2537.924,804.96174 a 7.1460118,7.1460118 0 0 1 -6.5654,-6.58154 7.1460118,7.1460118 0 0 1 5.4933,-7.49963 7.1460118,7.1460118 0 0 1 8.2554,4.2743" transform="scale(-1 1)"/></g><path fill="none" stroke="#3b3c3d" stroke-width="1.524" d="m -1169.2337,-2572.2331 a 6.8382335,6.699779 0 0 1 6.3231,4.3745 6.8382335,6.699779 0 0 1 -1.8947,7.3533 6.8382335,6.699779 0 0 1 -7.6848,0.9097 6.8382335,6.699779 0 0 1 -3.6278,-6.6994" transform="matrix(-.59695 .80228 -.72999 -.68346 0 0)"/><path fill="none" stroke="#3b3c3d" stroke-width="1.519" d="M2573.1352 814.13016l-10.5489 0M2572.0392 817.12216l-9.4833 0"/></g></svg>