<svg xmlns="http://www.w3.org/2000/svg" data-name="Layer 1" viewBox="0 0 128 128"><path d="M122,14H6a6.00656,6.00656,0,0,0-6,6V81.334a20.346,20.346,0,0,1,4-4.193V20a2.00229,2.00229,0,0,1,2-2H122a2.00229,2.00229,0,0,1,2,2V94a2.00229,2.00229,0,0,1-2,2H63.99561v4H122a6.00656,6.00656,0,0,0,6-6V20A6.00656,6.00656,0,0,0,122,14Z" fill="#ffffff" class="color000 svgShape"/><path d="M55.3999 81.48242c-3.1416-3.48828-7.74561-5.38281-13.34912-5.47852h-21.166C8.585 75.7959.19824 83.11621 0 94.26367V112a2 2 0 0 0 4 0L3.99951 94.29883c.19092-10.75 8.80566-14.46484 16.85107-14.29492h21.166c4.49414.07715 7.99707 1.47461 10.41113 4.15527 2.4209 2.6875 3.6543 6.68066 3.56787 11.582V111.999a2 2 0 0 0 4 0l-.00049-16.22266C60.1001 89.87891 58.51074 84.93652 55.3999 81.48242zM46.00024 56a16 16 0 1 0-16 16A15.99747 15.99747 0 0 0 46.00024 56zm-28 0a12 12 0 1 1 12 12A12.01359 12.01359 0 0 1 18.00024 56zM74 27a2.0001 2.0001 0 0 0-2 2v2H70a2 2 0 0 0 0 4h2v2a2 2 0 0 0 4 0V35h2a2 2 0 0 0 0-4H76V29A2.0001 2.0001 0 0 0 74 27zM102 75v1h-1a2 2 0 0 0 0 4h1v1a2 2 0 0 0 4 0V80h1a2 2 0 0 0 0-4h-1V75a2 2 0 0 0-4 0zM96 32h4a2 2 0 0 0 0-4H96a2 2 0 0 0 0 4zM96 38h4a2 2 0 0 0 0-4H96a2 2 0 0 0 0 4zM69.75684 63.24219a1.99986 1.99986 0 0 0 2.82861 0L74 61.82788l1.41455 1.41431a1.99979 1.99979 0 1 0 2.82813-2.82812L76.82837 59l1.41431-1.41406a1.99979 1.99979 0 1 0-2.82812-2.82812L74 56.17212l-1.41455-1.41431a1.99979 1.99979 0 1 0-2.82812 2.82813L71.17163 59l-1.41431 1.41406A1.99971 1.99971 0 0 0 69.75684 63.24219zM103 52H99a2 2 0 0 0 0 4h4a2 2 0 0 0 0-4zM105 60a2.0001 2.0001 0 0 0-2-2H99a2 2 0 0 0 0 4h4A2.0001 2.0001 0 0 0 105 60zM93 73H85a2 2 0 0 0 0 4h8a2 2 0 0 0 0-4zM93 79H85a2 2 0 0 0 0 4h8a2 2 0 0 0 0-4zM78.41406 73.58594a1.99927 1.99927 0 0 0-2.82812 0L74 75.17188l-1.58594-1.58594a1.99979 1.99979 0 0 0-2.82812 2.82813L71.17188 78l-1.58594 1.58594a1.99979 1.99979 0 1 0 2.82813 2.82813L74 80.82813l1.58594 1.58594a1.99979 1.99979 0 0 0 2.82813-2.82812L76.82813 78l1.58594-1.58594A1.99927 1.99927 0 0 0 78.41406 73.58594z" fill="#ffffff" class="color000 svgShape"/><path d="M14 104a2.0001 2.0001 0 0 0-2 2v6a2 2 0 0 0 4 0v-6A2.0001 2.0001 0 0 0 14 104zM46 104a2.0001 2.0001 0 0 0-2 2v6a2 2 0 0 0 4 0v-6A2.0001 2.0001 0 0 0 46 104zM62 42a2.0001 2.0001 0 0 0 2-2V26a1.99992 1.99992 0 0 0-3.30518-1.51562l-4 3.44434A2.00015 2.00015 0 0 0 59.30518 30.96L60 30.36133V40A2.0001 2.0001 0 0 0 62 42zM88 42a2.0001 2.0001 0 0 0 2-2V26a1.99992 1.99992 0 0 0-3.30518-1.51562l-4 3.44434A2.00015 2.00015 0 0 0 85.30518 30.96L86 30.36133V40A2.0001 2.0001 0 0 0 88 42zM114.522 25.65723a5.34653 5.34653 0 0 0-5.33105-1.4668 5.73866 5.73866 0 0 0-4.13281 4.14648 2.00022 2.00022 0 0 0 3.88379.959 1.74489 1.74489 0 0 1 1.27-1.2373 1.38883 1.38883 0 0 1 1.40576.34863c.27051.28613.51172 1.14746-.86719 3.623l-4.29395 6.915A2 2 0 0 0 108.15576 42H116a2 2 0 0 0 0-4h-4.249l2.44531-3.94043C114.95557 32.69824 117.26709 28.55566 114.522 25.65723zM64 50a1.99992 1.99992 0 0 0-3.30518-1.51562l-4 3.44434A2.00015 2.00015 0 0 0 59.30518 54.96L60 54.36133V64a2 2 0 0 0 4 0zM83.52051 54.75781a1.9997 1.9997 0 0 0 2.42139-1.46191 1.74489 1.74489 0 0 1 1.27-1.2373 1.39116 1.39116 0 0 1 1.40576.34863c.27051.28613.51172 1.14746-.86719 3.623l-4.29395 6.915A2 2 0 0 0 85.15576 66H93a2 2 0 0 0 0-4H88.751l2.44531-3.94043c.75928-1.36133 3.0708-5.50391.32568-8.40234a5.34443 5.34443 0 0 0-5.33105-1.4668 5.73866 5.73866 0 0 0-4.13281 4.14648A2 2 0 0 0 83.52051 54.75781z" fill="#ffffff" class="color000 svgShape"/></svg>