<svg xmlns="http://www.w3.org/2000/svg" viewBox="0 0 64 64"><path fill="#343433" d="M47.6 54.6v.1H46v-.2c0-3.1-.1-6.1 0-9.2 0-2.1-.7-3.9-2.1-5.5-1.5-1.8-3.3-3.1-5.2-4.4-1.1-.8-2.2-1.5-3.2-2.4-.4-.4-.7-.8-.7-1.2v-.1c0-.5.2-.9.7-1.4.7-.6 1.4-1.1 2.1-1.7 2-1.4 4.1-2.8 5.8-4.7 1.5-1.6 2.4-3.5 2.5-5.7V18v-.3V16v-1.1-2.6-3.6h1.6v9.5c0 2.3-.9 4.2-2.3 6-1.7 2.1-3.8 3.6-6 5.1l-2.1 1.5-.7.7c.1 0 .1.1.2.1.4.3.8.7 1.2.9 1.8 1.4 3.8 2.7 5.5 4.1 1.9 1.5 3.4 3.3 4 5.7.2.9.3 1.9.3 2.8 0 3.4-.1 6.4 0 9.5z"/><path fill="#343433" d="M47.6 54.6v.1H46v-.2c0-3.1-.1-6.1 0-9.2 0-2.1-.7-3.9-2.1-5.5-1.5-1.8-3.3-3.1-5.2-4.4-1.1-.8-2.2-1.5-3.2-2.4-.4-.4-.7-.8-.7-1.2v-.1c0-.5.2-.9.7-1.4.7-.6 1.4-1.1 2.1-1.7 2-1.4 4.1-2.8 5.8-4.7 1.5-1.6 2.4-3.5 2.5-5.7V18v-.2V16v-1.1-2.6-3.6h1.6v9.5c0 2.3-.9 4.2-2.3 6-1.7 2.1-3.8 3.6-6 5.1l-2.1 1.5-.7.7c.1 0 .1.1.2.1.4.3.8.7 1.2.9 1.8 1.4 3.8 2.7 5.5 4.1 1.9 1.5 3.4 3.3 4 5.7.2.9.3 1.9.3 2.8 0 3.4-.1 6.4 0 9.5zM29.7 31.8c-.1.5-.3.9-.8 1.4-1 .8-2 1.6-3.1 2.3-1.9 1.3-3.7 2.7-5.2 4.4-1.3 1.6-2.1 3.4-2 5.5.1 3.1 0 6.1 0 9.2v.2H17v-.7-9.2c0-2.1.7-3.9 2-5.5 1.6-2.1 3.7-3.7 5.8-5.1.8-.6 1.6-1.1 2.4-1.7.2-.2.4-.4.7-.6l.2-.2c-.8-.6-1.6-1.2-2.3-1.7-2.1-1.5-4.3-2.9-6-4.8-1.4-1.5-2.5-3.2-2.8-5.3-.1-.8-.1-1.7-.1-2.5v-4.7-3.6h1.6V19c0 .4.1.8.2 1.2.4 1.6 1.3 2.9 2.4 4.1 1.4 1.5 3.1 2.7 4.8 3.9 1 .7 2 1.4 2.9 2.2.6.4.9.9.9 1.4z"/><path fill="#343433" d="M29.7 31.8c-.1.5-.3.9-.8 1.4-1 .8-2 1.6-3.1 2.3-1.9 1.3-3.7 2.7-5.2 4.4-1.3 1.6-2.1 3.4-2 5.5.1 3.1 0 6.1 0 9.2v.2H17v-.7-9.2c0-2.1.7-3.9 2-5.5 1.6-2.1 3.7-3.7 5.8-5.1.8-.6 1.6-1.1 2.4-1.7.2-.2.4-.4.7-.6l.2-.2c-.8-.6-1.6-1.2-2.3-1.7-2.1-1.5-4.3-2.9-6-4.8-1.4-1.5-2.5-3.2-2.8-5.3-.1-.8-.1-1.7-.1-2.5v-4.7-3.6h1.6V19c0 .4.1.8.2 1.2.4 1.6 1.3 2.9 2.4 4.1 1.4 1.5 3.1 2.7 4.8 3.9 1 .7 2 1.4 2.9 2.2.6.4.9.9.9 1.4zM48.9 6c0 .8-.7 1.5-1.5 1.5l-30.9.1c-.8 0-1.5-.7-1.5-1.5V3.5c0-.8.7-1.5 1.5-1.5l30.9-.1c.8 0 1.5.7 1.5 1.5V6zM49.1 60.5c0 .8-.7 1.5-1.5 1.5l-30.9.1c-.8 0-1.5-.7-1.5-1.5V58c0-.8.7-1.5 1.5-1.5l30.9-.1c.8 0 1.5.7 1.5 1.5v2.6z"/><path fill="#343433" d="M42 22.8c-1.4 1.5-3.1 2.7-4.8 3.9-.2.2-.5.3-.7.5-.8.5-1.6 1.1-2.3 1.8-.5.5-.9 1-1.1 1.7-.1.2-.1.5-.2.7 0 .5 0 1.1-.6 1.1h-.1c-.7 0-.6-.7-.6-1.2s-.3-1.1-.6-1.5c-.2-.4-.5-.7-.8-.9-.9-.8-1.9-1.5-2.8-2.1l-.4-.2c-1.5-1.1-3.2-2.2-4.6-3.7-1.1-1.2-1.7-2.2-2-3.3-.1-.3-.1-.6-.1-.9v-2.4H44v1.6c.1 1.8-.5 3.4-2 4.9zM44.2 48.2v3.7l-23.7.1v-3.7c0-3.3 5.3-6 11.8-6 6.6-.1 11.9 2.6 11.9 5.9z"/></svg>