<svg xmlns="http://www.w3.org/2000/svg" data-name="Layer 1" viewBox="0 0 128 128"><path d="M91.41406 103.34326a1.99979 1.99979 0 0 0-2.82812 2.82813L89.41443 107H53a4.00427 4.00427 0 0 1-4-4V82H67.41443l-.82849.82861a1.99979 1.99979 0 1 0 2.82813 2.82813l4.24219-4.24268a1.9993 1.9993 0 0 0 0-2.82812l-4.24219-4.24268a1.99979 1.99979 0 0 0-2.82812 2.82813L67.41443 78H49V51H67.41443l-.82849.82861a1.99979 1.99979 0 1 0 2.82813 2.82813l4.24219-4.24268a1.9993 1.9993 0 0 0 0-2.82812l-4.24219-4.24268a1.99979 1.99979 0 0 0-2.82812 2.82813L67.41443 47H49V25a4.00427 4.00427 0 0 1 4-4H89.41443l-.82849.82861a1.99979 1.99979 0 1 0 2.82813 2.82813l4.24219-4.24268a1.9993 1.9993 0 0 0 0-2.82812l-4.24219-4.24268a1.99979 1.99979 0 0 0-2.82812 2.82813L89.41443 17H53a8.00917 8.00917 0 0 0-8 8V62H39.46411L31.473 48.01544A3.99989 3.99989 0 0 0 28 46H12a3.99989 3.99989 0 0 0-3.473 2.01544l-8 14a4 4 0 0 0 0 3.96912l8 14A4 4 0 0 0 12 82H28a4 4 0 0 0 3.473-2.01544L39.46411 66H45v37a8.00917 8.00917 0 0 0 8 8H89.41443l-.82849.82861a1.99979 1.99979 0 1 0 2.82813 2.82813l4.24219-4.24268a1.9993 1.9993 0 0 0 0-2.82812zM28 78H12L4 64l8-14H28l8 14zM105.50336 29.94257A4.00015 4.00015 0 0 0 109 32h10a4.00015 4.00015 0 0 0 3.49664-2.05743l5-9a4.00007 4.00007 0 0 0 0-3.88513l-5-9A4 4 0 0 0 119 6H109a4 4 0 0 0-3.49664 2.05743l-5 9a4.00007 4.00007 0 0 0 0 3.88513zM109 10h10l5 9-5 9H109l-5-9zM122.49664 98.05743A4 4 0 0 0 119 96H109a4 4 0 0 0-3.49664 2.05743l-5 9a4.00007 4.00007 0 0 0 0 3.88513l5 9A4.00015 4.00015 0 0 0 109 122h10a4.00015 4.00015 0 0 0 3.49664-2.05743l5-9a4.00007 4.00007 0 0 0 0-3.88513zM119 118H109l-5-9 5-9h10l5 9z" fill="#207174" class="color000 svgShape"/><path d="M101.49664 90.94257l5-9a4.00007 4.00007 0 0 0 0-3.88513l-5-9A4 4 0 0 0 98 67H88a4 4 0 0 0-3.49664 2.05743l-5 9a4.00007 4.00007 0 0 0 0 3.88513l5 9A4.00015 4.00015 0 0 0 88 93H98A4.00015 4.00015 0 0 0 101.49664 90.94257zM88 89l-5-9 5-9H98l5 9-5 9zM83.50336 38.05743l-5 9a4.00007 4.00007 0 0 0 0 3.88513l5 9A4.00015 4.00015 0 0 0 87 62H97a4.00015 4.00015 0 0 0 3.49664-2.05743l5-9a4.00007 4.00007 0 0 0 0-3.88513l-5-9A4 4 0 0 0 97 36H87A4 4 0 0 0 83.50336 38.05743zM102 49l-5 9H87l-5-9 5-9H97z" fill="#207174" class="color000 svgShape"/></svg>