<svg xmlns="http://www.w3.org/2000/svg" enable-background="new 0 0 64 64" viewBox="0 0 64 64"><path d="M2.553 52.895L4 53.618V61c0 .552.447 1 1 1h6c.553 0 1-.448 1-1v-7.382l1-.5 1 .5V61c0 .552.447 1 1 1h6c.553 0 1-.448 1-1v-7.382l1.447-.724C23.786 52.725 24 52.379 24 52v-5c0-2-1.188-3.717-2.889-4.516C21.658 41.799 22 40.943 22 40c0-2.206-1.794-4-4-4s-4 1.794-4 4c0 .943.342 1.799.889 2.484-.752.353-1.398.887-1.889 1.547-.492-.66-1.137-1.194-1.889-1.547C11.658 41.799 12 40.943 12 40c0-2.206-1.794-4-4-4s-4 1.794-4 4c0 .943.342 1.799.889 2.484C3.188 43.283 2 45 2 47v5C2 52.379 2.214 52.725 2.553 52.895zM18 38c1.103 0 2 .897 2 2s-.897 2-2 2-2-.897-2-2S16.897 38 18 38zM17 44h2c1.654 0 3 1.346 3 3v4.382l-1.447.724C20.214 52.275 20 52.621 20 53v7h-4v-7c0-.379-.214-.725-.553-.895L14 51.382V47C14 45.346 15.346 44 17 44zM8 38c1.103 0 2 .897 2 2s-.897 2-2 2-2-.897-2-2S6.897 38 8 38zM4 47c0-1.654 1.346-3 3-3h2c1.654 0 3 1.346 3 3v4.382l-1.447.724C10.214 52.275 10 52.621 10 53v7H6v-7c0-.379-.214-.725-.553-.895L4 51.382V47zM32 28c5.514 0 10-4.486 10-10S37.514 8 32 8s-10 4.486-10 10S26.486 28 32 28zM32 10c4.411 0 8 3.589 8 8s-3.589 8-8 8-8-3.589-8-8S27.589 10 32 10z"/><path d="M17,14c-0.553,0-1,0.448-1,1v6c0,0.552,0.447,1,1,1h1.594c0.274,0.918,0.642,1.804,1.1,2.649l-1.128,1.129
	c-0.391,0.391-0.391,1.023,0,1.414l4.242,4.243c0.375,0.375,1.039,0.375,1.414,0l1.129-1.129c0.845,0.458,1.731,0.826,2.649,1.1V33
	c0,0.552,0.447,1,1,1h6c0.553,0,1-0.448,1-1v-1.594c0.918-0.274,1.805-0.642,2.649-1.1l1.129,1.129c0.375,0.375,1.039,0.375,1.414,0
	l4.242-4.243c0.391-0.391,0.391-1.023,0-1.414l-1.128-1.129c0.458-0.845,0.825-1.731,1.1-2.649H47c0.553,0,1-0.448,1-1v-6
	c0-0.552-0.447-1-1-1h-1.594c-0.274-0.918-0.642-1.804-1.1-2.649l1.128-1.129c0.391-0.391,0.391-1.023,0-1.414l-4.242-4.243
	c-0.375-0.375-1.039-0.375-1.414,0l-1.129,1.129c-0.845-0.458-1.731-0.826-2.649-1.1V3c0-0.552-0.447-1-1-1h-6c-0.553,0-1,0.448-1,1
	v1.594c-0.918,0.274-1.805,0.642-2.649,1.1l-1.129-1.129c-0.375-0.375-1.039-0.375-1.414,0l-4.242,4.243
	c-0.391,0.391-0.391,1.023,0,1.414l1.128,1.129c-0.458,0.845-0.825,1.731-1.1,2.649H17z M20.334,15.23
	c0.295-1.242,0.786-2.426,1.46-3.519c0.244-0.395,0.185-0.904-0.144-1.232l-0.964-0.965l2.828-2.829l0.965,0.965
	c0.326,0.327,0.839,0.387,1.232,0.144c1.093-0.675,2.276-1.166,3.519-1.46C29.682,6.228,30,5.825,30,5.362V4h4v1.362
	c0,0.463,0.318,0.866,0.77,0.973c1.242,0.294,2.426,0.785,3.519,1.46c0.393,0.243,0.904,0.183,1.232-0.144l0.965-0.965l2.828,2.829
	l-0.964,0.965c-0.328,0.328-0.388,0.838-0.144,1.232c0.674,1.093,1.165,2.277,1.46,3.519c0.106,0.451,0.509,0.77,0.973,0.77H46v4
	h-1.361c-0.464,0-0.866,0.318-0.973,0.77c-0.295,1.242-0.786,2.426-1.46,3.519c-0.244,0.395-0.185,0.904,0.144,1.232l0.964,0.965
	l-2.828,2.829l-0.965-0.965c-0.328-0.329-0.84-0.388-1.232-0.144c-1.093,0.675-2.276,1.166-3.519,1.46
	c-0.451,0.107-0.77,0.51-0.77,0.973V32h-4v-1.362c0-0.463-0.318-0.866-0.77-0.973c-1.242-0.294-2.426-0.785-3.519-1.46
	c-0.394-0.244-0.906-0.185-1.232,0.144l-0.965,0.965l-2.828-2.829l0.964-0.965c0.328-0.328,0.388-0.838,0.144-1.232
	c-0.674-1.093-1.165-2.277-1.46-3.519C20.228,20.318,19.825,20,19.361,20H18v-4h1.361C19.825,16,20.228,15.682,20.334,15.23z"/><path d="M28.932 19.443l-.391 2.396c-.062.378.099.758.411.978.313.221.725.242 1.061.058L32 21.776l1.987 1.099C34.139 22.958 34.306 23 34.472 23c.202 0 .404-.062.576-.183.312-.22.473-.6.411-.978l-.391-2.396 1.647-1.689c.262-.268.352-.66.232-1.016s-.427-.615-.797-.671l-2.236-.342-1.01-2.15C32.74 13.224 32.388 13 32 13s-.74.224-.905.575l-1.01 2.15-2.236.342c-.37.056-.678.315-.797.671s-.029.748.232 1.016L28.932 19.443zM30.915 17.622c.329-.05.612-.261.754-.563L32 16.353l.331.705c.142.302.425.513.754.563l.84.128-.641.657c-.222.227-.322.546-.271.859l.141.862-.669-.37c-.151-.083-.317-.125-.484-.125s-.333.042-.484.125l-.669.37.141-.862c.051-.313-.05-.632-.271-.859l-.641-.657L30.915 17.622zM59 38H41c-1.654 0-3 1.346-3 3v13c0 1.654 1.346 3 3 3h6v3h-4v2h14v-2h-4v-3h6c1.654 0 3-1.346 3-3V41C62 39.346 60.654 38 59 38zM51 60h-2v-3h2V60zM60 54c0 .551-.448 1-1 1H41c-.552 0-1-.449-1-1V41c0-.551.448-1 1-1h18c.552 0 1 .449 1 1V54z"/><path d="M54.707 43.293l-1.414 1.414L55.586 47l-2.293 2.293 1.414 1.414 3-3c.391-.391.391-1.023 0-1.414L54.707 43.293zM46.293 43.293l-3 3c-.391.391-.391 1.023 0 1.414l3 3 1.414-1.414L45.414 47l2.293-2.293L46.293 43.293z"/><rect width="10.05" height="2" x="45.475" y="46" transform="rotate(-84.284 50.502 47.001)"/><rect width="2" height="2" x="50" y="34"/><rect width="2" height="2" x="50" y="30"/><rect width="2" height="2" x="50" y="26"/><rect width="2" height="2" x="50" y="22"/><rect width="2" height="2" x="50" y="18"/><rect width="2" height="2" x="12" y="34"/><rect width="2" height="2" x="12" y="30"/><rect width="2" height="2" x="12" y="26"/><rect width="2" height="2" x="12" y="22"/><rect width="2" height="2" x="12" y="18"/></svg>