<svg xmlns="http://www.w3.org/2000/svg" enable-background="new 0 0 100 100" viewBox="0 0 100 100"><path fill="#fff" d="M50,23.111c14.85,0,26.889,12.038,26.889,26.888C76.889,64.85,64.85,76.889,50,76.889
							C35.15,76.889,23.111,64.85,23.111,50C23.111,35.15,35.15,23.111,50,23.111z"/><path fill="#0056cd" d="M50,78.57c-15.754,0-28.569-12.816-28.569-28.57c0-15.754,12.816-28.569,28.569-28.569
							c15.754,0,28.569,12.816,28.569,28.569C78.569,65.753,65.754,78.57,50,78.57z M50,24.792c-13.9,0-25.208,11.307-25.208,25.208
							S36.1,75.208,50,75.208C63.901,75.208,75.208,63.9,75.208,50S63.901,24.792,50,24.792z"/><path fill="#0056cd" d="M50,78.57c-10.596,0-19.216-12.816-19.216-28.57c0-15.754,8.62-28.569,19.216-28.569
							c9.279,0,17.226,9.809,18.896,23.324c0.115,0.922-0.54,1.761-1.461,1.874c-0.929,0.126-1.76-0.541-1.874-1.46
							C64.103,33.362,57.558,24.792,50,24.792c-8.742,0-15.855,11.307-15.855,25.208S41.258,75.208,50,75.208
							c0.928,0,1.681,0.751,1.681,1.68C51.681,77.818,50.928,78.57,50,78.57z"/><path fill="#0056cd" d="M50,78.57c-0.928,0-1.681-0.752-1.681-1.681V23.111c0-0.929,0.753-1.681,1.681-1.681
							c0.928,0,1.681,0.752,1.681,1.681v53.777C51.681,77.818,50.928,78.57,50,78.57z"/><path fill="#0056cd" d="M50 40.975L50 40.975c-8.319 0-15.915-1.916-21.393-5.395-.37-.252-.639-.621-.723-1.058-.101-.437-.034-.891.218-1.261.471-.756 1.563-1.009 2.319-.522 4.84 3.11 11.965 4.891 19.545 4.891h.067c7.58 0 14.688-1.78 19.544-4.891.757-.469 1.833-.234 2.321.522.486.773.267 1.815-.522 2.319C65.898 39.06 58.301 40.975 50 40.975zM70.469 67.88c-.319 0-.622-.1-.892-.269-4.839-3.109-11.964-4.891-19.544-4.891h-.085c-7.563 0-14.687 1.782-19.528 4.891-.756.487-1.832.237-2.319-.52-.236-.369-.319-.824-.218-1.261.084-.436.353-.823.723-1.058 5.478-3.479 13.074-5.394 21.393-5.394 8.301 0 15.898 1.915 21.376 5.394.017 0 .017.016.017.016.773.487.991 1.53.505 2.319C71.578 67.595 71.058 67.88 70.469 67.88zM76.889 51.681h-6.722c-.929 0-1.681-.752-1.681-1.681 0-.929.752-1.68 1.681-1.68h6.722c.929 0 1.68.751 1.68 1.68C78.569 50.929 77.818 51.681 76.889 51.681zM60.083 51.681H31.514c-.928 0-1.681-.752-1.681-1.681 0-.929.752-1.68 1.681-1.68h28.569c.929 0 1.681.751 1.681 1.68C61.764 50.929 61.012 51.681 60.083 51.681z"/><path fill="#fff" d="M83.611,60.083H73.528l-8.403-6.722v6.722h-1.681c-3.131,0-5.041,2.436-5.041,5.483v17.546
					c0,3.048,2.561,5.541,5.692,5.541H82.96c3.131,0,5.692-2.493,5.692-5.541V65.566C88.653,62.519,86.742,60.083,83.611,60.083z"/><path fill="#fdb021" d="M82.954,90.333H64.099c-4.067,0-7.361-3.245-7.377-7.226V65.561c0-1.915,0.622-3.698,1.764-4.991
					c1.193-1.379,2.992-2.168,4.924-2.168h0.034v-5.041c0-0.657,0.37-1.228,0.957-1.514c0.573-0.285,1.279-0.202,1.766,0.202
					l7.948,6.353h9.529c1.933,0,3.732,0.789,4.925,2.168c1.142,1.293,1.764,3.076,1.764,4.991v17.546
					C90.317,87.088,87.005,90.333,82.954,90.333z M63.444,61.764c-2.1,0.051-3.277,1.361-3.361,3.814v17.529
					c0,2.134,1.797,3.865,4.016,3.865h18.855c2.219,0,4.018-1.731,4.018-3.865V65.561c-0.102-2.437-1.261-3.747-3.361-3.798H73.528
					c-0.387,0-0.757-0.134-1.059-0.369l-5.664-4.538v3.227c0,0.453-0.169,0.873-0.487,1.193c-0.32,0.318-0.74,0.487-1.193,0.487
					H63.444z"/><path fill="#fff" d="M36.556,39.917H26.472v6.722l-8.403-6.722h-1.68c-3.131,0-5.042-2.436-5.042-5.483V16.888
					c0-3.048,2.561-5.541,5.692-5.541h18.866c3.131,0,5.692,2.493,5.692,5.541v17.545C41.597,37.481,39.686,39.917,36.556,39.917z"/><path fill="#fdb021" d="M26.472,48.319c-0.387,0-0.756-0.135-1.059-0.37l-7.932-6.353h-1.126
					c-1.933,0-3.731-0.79-4.925-2.168c-1.143-1.295-1.764-3.076-1.764-4.991V16.892c0.016-3.983,3.31-7.226,7.377-7.226H35.9
					c4.067,0,7.361,3.243,7.378,7.226v17.546c0,1.915-0.622,3.695-1.765,4.991c-1.194,1.378-2.992,2.168-4.924,2.168h-8.437v5.041
					c0,0.639-0.37,1.244-0.959,1.512C26.959,48.268,26.724,48.319,26.472,48.319z M18.069,38.236c0.387,0,0.756,0.134,1.042,0.369
					l5.681,4.537v-3.226c0-0.455,0.184-0.875,0.487-1.193c0.319-0.304,0.739-0.487,1.193-0.487h10.084
					c2.1-0.051,3.276-1.362,3.361-3.816V16.892c0-2.134-1.799-3.865-4.017-3.865H17.044c-2.218,0-4.016,1.731-4.016,3.865v17.546
					c0.101,2.435,1.26,3.747,3.361,3.798H18.069z"/><g><path fill="#fd3e5f" d="M29.833,33.194c-0.928,0-1.68-0.752-1.68-1.681v-9.243c0-1.39-1.131-2.521-2.521-2.521
				c-1.39,0-2.521,1.131-2.521,2.521v9.243c0,0.929-0.752,1.681-1.68,1.681c-0.928,0-1.681-0.752-1.681-1.681v-9.243
				c0-3.243,2.639-5.882,5.882-5.882c3.243,0,5.882,2.639,5.882,5.882v9.243C31.514,32.443,30.761,33.194,29.833,33.194z"/><path fill="#fd3e5f" d="M29.833,28.153h-8.402c-0.928,0-1.681-0.752-1.681-1.68c0-0.929,0.752-1.681,1.681-1.681h8.402
				c0.928,0,1.681,0.752,1.681,1.681C31.514,27.401,30.761,28.153,29.833,28.153z"/></g><g><path fill="#943ece" d="M79.795 78.57H68.031c-.928 0-1.68-.752-1.68-1.681 0-.929.752-1.68 1.68-1.68h11.764c.929 0 1.681.751 1.681 1.68C81.476 77.818 80.724 78.57 79.795 78.57zM68.486 72.372c-.43 0-.86-.164-1.188-.492l-1.681-1.68c-.656-.657-.656-1.72 0-2.377.657-.657 1.72-.657 2.377 0l1.68 1.68c.657.657.657 1.72 0 2.376C69.346 72.208 68.916 72.372 68.486 72.372z"/><path fill="#943ece" d="M68.873,83.611c-0.596,0-1.172-0.317-1.477-0.877c-0.445-0.814-0.145-1.835,0.671-2.28
				c3.396-1.853,4.082-3.203,4.188-3.843c0.123-0.739,0.722-1.306,1.467-1.392c0.746-0.102,1.456,0.333,1.743,1.026
				c0.649,1.567,2.023,2.91,4.324,4.226c0.805,0.461,1.085,1.489,0.624,2.295c-0.459,0.804-1.483,1.086-2.294,0.624
				c-1.741-0.998-3.09-2.047-4.1-3.205c-0.986,1.109-2.429,2.176-4.345,3.222C69.422,83.545,69.146,83.611,68.873,83.611z"/><path fill="#943ece" d="M73.913,78.57c-0.929,0-1.681-0.752-1.681-1.681v-8.402c0-0.929,0.752-1.681,1.681-1.681
				c0.929,0,1.68,0.752,1.68,1.681v8.402C75.594,77.818,74.842,78.57,73.913,78.57z"/></g></svg>