<svg xmlns="http://www.w3.org/2000/svg" enable-background="new 0 0 1024 1024" viewBox="0 0 1024 1024"><path fill="#c5c2d7" d="M477.01,161.13v47.43H170.54c-12.46,0-22.56,10.09-22.56,22.55v220.82h-47.42c-12.46,0-22.56-10.1-22.56-22.56V161.13c0-12.46,10.1-22.56,22.56-22.56h353.89C466.91,138.57,477.01,148.67,477.01,161.13z"/><path fill="#e85b69" d="M876.02,482.84v268.25c0,12.45-10.1,22.55-22.56,22.55h-147.2l-36.29,39.24l-22.98,24.85l-43.52,47.05c-1.24,1.34-3.48,0.46-3.48-1.36V773.64H499.57c-12.46,0-22.56-10.1-22.56-22.55V521.91h47.42c12.46,0,22.56-10.1,22.56-22.55v-39.07h306.47C865.92,460.29,876.02,470.38,876.02,482.84z"/><path fill="#f3889f" d="M876.02,482.84v263.8H753.26l-24.97,27h-22.03l-36.29,39.24l-22.98,24.85v-91.09H546.57c-12.46,0-22.56-10.1-22.56-22.55V494.91h47.42c12.46,0,22.56-10.1,22.56-22.55v-12.07h259.47C865.92,460.29,876.02,470.38,876.02,482.84z"/><path fill="#c5c2d7" d="M946,412.86V681.1c0,12.46-10.1,22.56-22.56,22.56h-47.42V482.84c0-12.46-10.1-22.55-22.56-22.55H546.99V390.3h376.45C935.9,390.3,946,400.4,946,412.86z"/><path fill="#eceaf0" d="M477.01 161.13v16.43H205.54c-12.46 0-22.56 10.09-22.56 22.55v220.82h-47.42c-12.46 0-22.56-10.1-22.56-22.56v-259.8h341.45C466.91 138.57 477.01 148.67 477.01 161.13zM946 412.86v259.8h-34.98V451.84c0-12.46-10.1-22.55-22.56-22.55H581.99V390.3h341.45C935.9 390.3 946 400.4 946 412.86z"/><path fill="#5acbf2" d="M546.99,231.11v268.25c0,12.45-10.1,22.55-22.56,22.55H424.01v109.78c0,1.82-2.24,2.7-3.48,1.36l-66.5-71.91l-36.29-39.23h-147.2c-12.46,0-22.56-10.1-22.56-22.55V231.11c0-12.46,10.1-22.55,22.56-22.55h353.89C536.89,208.56,546.99,218.65,546.99,231.11z"/><path fill="#80d7fd" d="M546.99,231.11v255.8h-76.98v35h-46v30.16l-23.98-25.93l-36.29-39.23h-147.2c-12.46,0-22.56-10.1-22.56-22.55v-255.8h330.45C536.89,208.56,546.99,218.65,546.99,231.11z"/><path fill="none" stroke="#2d4960" stroke-miterlimit="10" stroke-width="15" d="M546.992,231.112v268.243c0,12.458-10.099,22.557-22.557,22.557H424.009v109.776c0,1.825-2.239,2.701-3.478,1.362l-66.505-71.905l-36.287-39.232H170.541c-12.458,0-22.557-10.099-22.557-22.557V231.112c0-12.458,10.099-22.557,22.557-22.557h353.894C536.892,208.555,546.992,218.654,546.992,231.112z"/><path fill="none" stroke="#2d4960" stroke-miterlimit="10" stroke-width="15" d="M477.008 161.129v47.426H170.541c-12.458 0-22.557 10.099-22.557 22.557v220.817h-47.426C88.099 451.929 78 441.83 78 429.372V161.129c0-12.458 10.099-22.557 22.557-22.557h353.894C466.909 138.572 477.008 148.671 477.008 161.129zM876.017 482.843v268.243c0 12.458-10.099 22.557-22.557 22.557H706.261l-36.287 39.232-66.505 71.905c-1.239 1.34-3.478.463-3.478-1.362V773.643H499.566c-12.458 0-22.557-10.099-22.557-22.557V521.912h47.426c12.458 0 22.557-10.099 22.557-22.557v-39.07h306.468C865.918 460.285 876.017 470.385 876.017 482.843z"/><path fill="none" stroke="#2d4960" stroke-miterlimit="10" stroke-width="15" d="M546.992,390.302v69.983h306.468c12.458,0,22.557,10.099,22.557,22.557V703.66h47.426c12.458,0,22.557-10.099,22.557-22.557V412.86c0-12.458-10.099-22.557-22.557-22.557H546.992z"/><path fill="none" stroke="#fff" stroke-linejoin="round" stroke-miterlimit="10" stroke-width="15" d="M398.143,445.662V318.639c0-18.686-15.148-33.834-33.833-33.834h-33.652c-18.686,0-33.833,15.148-33.833,33.834v127.023"/><line x1="296.824" x2="398.143" y1="365.234" y2="365.234" fill="none" stroke="#fff" stroke-linejoin="round" stroke-miterlimit="10" stroke-width="15"/><line x1="585.671" x2="756.232" y1="550.899" y2="550.899" fill="none" stroke="#fff" stroke-linejoin="round" stroke-miterlimit="10" stroke-width="15"/><path fill="none" stroke="#fff" stroke-linejoin="round" stroke-miterlimit="10" stroke-width="15" d="M725.842 550.899c0 0 6.518 122.818-137.974 151.716M625.183 582.603c0 0 13.257 91.114 128.85 120.012"/><line x1="670.951" x2="670.951" y1="550.899" y2="527.135" fill="none" stroke="#fff" stroke-linejoin="round" stroke-miterlimit="10" stroke-width="15"/><line x1="147.983" x2="147.983" y1="573" y2="585" fill="none" stroke="#2d4960" stroke-miterlimit="10" stroke-width="15"/><path fill="none" stroke="#2d4960" stroke-dasharray="24.661 24.661" stroke-miterlimit="10" stroke-width="15" d="M147.983,609.661v176.013c0,32.765,26.561,59.326,59.326,59.326h310.344"/><line x1="529.983" x2="541.983" y1="845" y2="845" fill="none" stroke="#2d4960" stroke-miterlimit="10" stroke-width="15"/><line x1="869" x2="869" y1="340.572" y2="328.572" fill="none" stroke="#2d4960" stroke-miterlimit="10" stroke-width="15"/><path fill="none" stroke="#2d4960" stroke-dasharray="23.168 23.168" stroke-miterlimit="10" stroke-width="15" d="M869,305.404V197.898c0-32.765-26.561-59.326-59.326-59.326h-251.09"/><line x1="547" x2="535" y1="138.572" y2="138.572" fill="none" stroke="#2d4960" stroke-miterlimit="10" stroke-width="15"/></svg>