<svg xmlns="http://www.w3.org/2000/svg" enable-background="new 0 0 100 100" viewBox="0 0 100 100"><path fill="#fff" d="M83.611,80.247H71.847v6.722l-8.403-6.722H46.639c-3.131,0-5.042-2.436-5.042-5.483V48.815
					c0-3.048,2.561-5.541,5.692-5.541h35.671c3.131,0,5.692,2.493,5.692,5.541v25.949C88.653,77.811,86.742,80.247,83.611,80.247z"/><path fill="#0056cd" d="M71.847,88.649c-0.387,0-0.757-0.135-1.042-0.37l-7.949-6.352H46.605
					c-1.934,0-3.731-0.79-4.925-2.168c-1.143-1.311-1.764-3.076-1.764-4.992V48.82c0.016-3.983,3.327-7.227,7.377-7.227h35.662
					c4.067,0,7.361,3.243,7.378,7.227v9.176c0,0.925-0.756,1.68-1.68,1.68c-0.925,0-1.681-0.756-1.681-1.68V48.82
					c0-2.135-1.799-3.865-4.017-3.865H47.294c-2.218,0-4.016,1.73-4.016,3.865v25.947c0.101,2.437,1.26,3.748,3.361,3.799h16.805
					c0.387,0,0.756,0.134,1.042,0.369l5.681,4.538v-3.227c0-0.437,0.184-0.874,0.487-1.193c0.319-0.303,0.739-0.487,1.193-0.487
					h11.764c2.1-0.051,3.276-1.362,3.361-3.815V71.44c0-0.016,0-0.016,0-0.034c0.017-0.908,0.756-1.647,1.681-1.647
					c0.924,0,1.68,0.756,1.68,1.68v3.327c0,1.916-0.622,3.698-1.765,4.992c-1.193,1.378-2.991,2.168-4.924,2.168H73.528v5.041
					c0,0.639-0.37,1.244-0.959,1.513C72.351,88.598,72.099,88.649,71.847,88.649z M88.653,66.399c-0.925,0-1.681-0.756-1.681-1.681
					c0-0.941,0.756-1.68,1.681-1.68c0.924,0,1.68,0.739,1.68,1.68C90.333,65.643,89.577,66.399,88.653,66.399z"/><path fill="#fff" d="M16.389,19.747h11.764v-6.722l8.402,6.722h16.806c3.131,0,5.042,2.436,5.042,5.484v25.948
					c0,3.048-2.562,5.541-5.693,5.541H17.039c-3.131,0-5.692-2.493-5.692-5.541V25.23C11.347,22.183,13.258,19.747,16.389,19.747z"/><path fill="#fdb021" d="M52.706,58.4L52.706,58.4H17.044c-4.05,0-7.361-3.244-7.377-7.227v-9.176
					c0-0.924,0.756-1.681,1.681-1.681c0.924,0,1.681,0.757,1.681,1.681v9.176c0,2.135,1.798,3.866,4.016,3.866h35.662
					c2.218,0,4.017-1.731,4.017-3.866V25.225c-0.101-2.437-1.261-3.748-3.361-3.798H36.555c-0.386,0-0.756-0.135-1.059-0.37
					l-5.663-4.538v3.227c0,0.454-0.168,0.874-0.487,1.194c-0.319,0.319-0.739,0.487-1.193,0.487H16.389
					c-2.101,0.05-3.277,1.361-3.361,3.798v3.327c0,0.924-0.756,1.68-1.681,1.68c-0.925,0-1.681-0.756-1.681-1.68v-3.327
					c0-1.916,0.621-3.697,1.764-4.991c1.193-1.378,2.991-2.167,4.924-2.167h0.034h10.083v-5.042c0-0.656,0.369-1.227,0.958-1.513
					c0.571-0.268,1.277-0.201,1.764,0.202l7.949,6.353h16.251c1.933,0,3.731,0.789,4.924,2.167c1.143,1.311,1.765,3.075,1.765,4.991
					v25.947C60.066,55.156,56.772,58.4,52.706,58.4z M11.347,36.955c-0.925,0-1.681-0.756-1.681-1.68
					c0-0.924,0.756-1.681,1.681-1.681c0.924,0,1.681,0.757,1.681,1.681C13.028,36.199,12.271,36.955,11.347,36.955z"/><path fill="#fd3e5f" d="M41.597,49.997c-0.928,0-1.68-0.752-1.68-1.68v-15.02c0-2.838-2.31-5.147-5.147-5.147
				c-2.837,0-5.147,2.309-5.147,5.147v15.02c0,0.928-0.752,1.68-1.68,1.68c-0.928,0-1.681-0.752-1.681-1.68v-15.02
				c0-4.691,3.816-8.508,8.508-8.508c4.691,0,8.508,3.816,8.508,8.508v15.02C43.278,49.244,42.525,49.997,41.597,49.997z"/><path fill="#fd3e5f" d="M41.597,41.804H27.943c-0.928,0-1.681-0.752-1.681-1.68c0-0.928,0.752-1.681,1.681-1.681h13.654
				c0.928,0,1.681,0.752,1.681,1.681C43.278,41.051,42.525,41.804,41.597,41.804z"/><g><path fill="#943ece" d="M77.309 65.962H59.663c-.928 0-1.68-.752-1.68-1.681 0-.928.752-1.68 1.68-1.68h17.646c.928 0 1.68.752 1.68 1.68C78.99 65.21 78.237 65.962 77.309 65.962zM76.049 58.4c-.43 0-.86-.164-1.188-.492-.657-.657-.657-1.72 0-2.377l2.521-2.521c.656-.657 1.72-.657 2.377 0 .656.656.656 1.72 0 2.376l-2.521 2.521C76.909 58.236 76.479 58.4 76.049 58.4z"/><path fill="#943ece" d="M76.047,73.524c-0.272,0-0.547-0.065-0.803-0.205c-3.246-1.771-5.54-3.565-6.921-5.423
				c-1.502,1.977-3.65,3.737-6.565,5.405c-0.804,0.462-1.833,0.183-2.292-0.624c-0.461-0.805-0.182-1.833,0.624-2.293
				c3.619-2.072,5.794-4.216,6.844-6.748c0.287-0.693,1-1.118,1.744-1.026c0.745,0.086,1.343,0.654,1.466,1.394
				c0.227,1.357,1.574,3.562,6.71,6.364c0.815,0.445,1.115,1.465,0.67,2.28C77.218,73.208,76.642,73.524,76.047,73.524z"/><path fill="#943ece" d="M68.486,65.962c-0.928,0-1.681-0.752-1.681-1.681V51.677c0-0.928,0.753-1.681,1.681-1.681
				c0.928,0,1.681,0.752,1.681,1.681v12.604C70.167,65.21,69.414,65.962,68.486,65.962z"/></g></svg>