<svg xmlns="http://www.w3.org/2000/svg" id="Layer_1" x="0" y="0" version="1.1" viewBox="0 0 48 48" xml:space="preserve"><path fill="#333" d="M47.3 18h-4c-.4 0-.7.3-.7.7s.3.7.7.7h4c.4 0 .7-.3.7-.7s-.3-.7-.7-.7zM5.4 18h-4c-.4 0-.7.3-.7.7s.3.7.7.7h4c.4 0 .7-.3.7-.7s-.3-.7-.7-.7zM38.2 31.6c-.3-.3-.8-.3-1 0-.3.3-.3.8 0 1l2.9 2.9c.3.3.8.3 1 0 .3-.3.3-.8 0-1l-2.9-2.9zM10.4 5.9c.3.3.8.3 1 0s.3-.8 0-1L8.6 2c-.3-.3-.8-.3-1 0s-.3.8 0 1l2.8 2.9zM10.4 31.6l-2.9 2.9c-.3.3-.3.8 0 1 .3.3.8.3 1 0l2.9-2.9c.3-.3.3-.8 0-1s-.7-.3-1 0zM40 2l-2.9 2.9c-.3.3-.3.8 0 1 .3.3.8.3 1 0L41 3c.3-.3.3-.8 0-1-.2-.3-.7-.3-1 0z" opacity=".15"/><path fill="#333" d="M34 4.3C30.7 1.4 26.3 0 21.9.5c-6.8.7-12.5 6.2-13.5 13-.7 4.9.9 9.8 4.4 13.3 2.6 2.6 4 5.9 4 9.2v1.8h13.7V36c0-3.4 1.4-6.7 4-9.2 2.9-2.9 4.6-6.8 4.6-11 .1-4.4-1.8-8.6-5.1-11.5zM46.7 17h-4c-.4 0-.7.3-.7.7s.3.7.7.7h4c.4 0 .7-.3.7-.7s-.3-.7-.7-.7zM4.8 17h-4c-.5 0-.8.4-.8.8s.3.7.7.7h4c.4 0 .7-.3.7-.7s-.2-.8-.6-.8zM37.6 30.6c-.3-.3-.8-.3-1 0-.3.3-.3.8 0 1l2.9 2.9c.3.3.8.3 1 0 .3-.3.3-.8 0-1l-2.9-2.9zM8 1C7.7.7 7.2.7 7 1s-.3.8 0 1l2.9 2.9c.3.3.8.3 1 0s.3-.8 0-1L8 1zM9.8 30.6l-2.9 2.9c-.3.3-.3.8 0 1 .3.3.8.3 1 0l2.9-2.9c.3-.3.3-.8 0-1s-.7-.3-1 0zM39.4 1l-2.9 2.9c-.3.3-.3.8 0 1 .3.3.8.3 1 0L40.4 2c.3-.3.3-.8 0-1-.2-.3-.7-.3-1 0z"/><path fill="#ffcf0e" d="M37.7 15.8c0-8.3-7.2-14.8-15.6-13.9-6.2.7-11.4 5.6-12.3 11.9-.7 4.7 1 9 4 12 2.8 2.7 4.5 6.4 4.5 10.3v.3h10.8V36c0-3.9 1.7-7.5 4.5-10.3 2.5-2.5 4.1-6 4.1-9.9z"/><path fill="#fff" d="M22.9 5.5c-.4 0-.7-.3-.7-.7 0-.4.3-.8.7-.8h.8c.4 0 .7.3.7.7 0 .4-.3.7-.7.7-.2.1-.5.1-.8.1.1 0 0 0 0 0zM12.7 14.9c-.4-.1-.7-.4-.6-.8.6-4.6 4.1-8.4 8.6-9.6.4-.1.8.1.9.5.1.4-.1.8-.5.9-3.9 1.1-7 4.4-7.5 8.4-.1.4-.5.7-.9.6z"/><path fill="#333" d="M22.1 1.9c-3.5.4-6.6 2.1-8.8 4.6 2.1-1.9 4.9-3.3 7.8-3.6 8.5-.9 15.6 5.6 15.6 13.9 0 3.9-1.6 7.4-4.1 9.9-2.6 2.6-4.3 6-4.4 9.6h1V36c0-3.9 1.7-7.5 4.5-10.3 2.6-2.5 4.1-6 4.1-9.9C37.7 7.6 30.5 1 22.1 1.9z" opacity=".15"/><path fill="#333" d="M28.6 40h-9.8c-.8 0-1.5.7-1.5 1.5v2.7c0 1.9 1.6 3.5 3.5 3.5h5.9c1.9 0 3.5-1.6 3.5-3.5v-2.7c-.1-.8-.8-1.5-1.6-1.5z"/><path fill="#cd4343" d="M28.6 41.5v2.7c0 1.1-.9 2-2 2h-5.9c-1.1 0-2-.9-2-2v-2.7h9.9z"/><path fill="#333" d="M18.8 43v.2c0 .3.1.5.2.8h9.5c.1-.2.2-.5.2-.8V43h-9.9z" opacity=".15"/><path fill="#fca211" d="M20.2 24.4c.1.1.3.2.5.2s.4-.1.5-.2l1.7-1.7v13.6h1.5V22.7l1.7 1.7c.1.1.3.2.5.2s.4-.1.5-.2l3-2.9c.3-.3.3-.8 0-1s-.8-.3-1 0l-2.4 2.4-2.4-2.4c-.3-.3-.8-.3-1 0l-2.4 2.4-2.4-2.4c-.3-.3-.8-.3-1 0-.3.3-.3.8 0 1l2.7 2.9z"/><path fill="#333" d="M29.4 34.9H18c-2.2 0-4.1 1.8-4.1 4.1 0 2.2 1.8 4.1 4.1 4.1h11.4c2.2 0 4.1-1.8 4.1-4.1s-1.8-4.1-4.1-4.1z"/><path fill="#d2d2d2" d="M32 38.9c0 1.4-1.2 2.6-2.6 2.6H18c-1.4 0-2.6-1.2-2.6-2.6 0-1.4 1.2-2.6 2.6-2.6h11.4c1.4 0 2.6 1.2 2.6 2.6z"/><path fill="#333" d="M29.4 36.3H18c-1 0-1.8.5-2.2 1.3.4-.2.8-.3 1.3-.3h11.4c1.4 0 2.6 1.2 2.6 2.6 0 .5-.1.9-.3 1.3.8-.4 1.3-1.3 1.3-2.2-.1-1.5-1.3-2.7-2.7-2.7z" opacity=".15"/></svg>