<svg xmlns="http://www.w3.org/2000/svg" enable-background="new 0 0 100 100" viewBox="0 0 100 100"><path d="M65.905,29.23c-4.658-4.411-10.772-6.642-17.187-6.297C36.598,23.589,27,33.623,26.866,45.777
	c-0.064,6.069,2.212,11.824,6.409,16.206c3.813,3.983,5.914,9.074,5.914,14.336v1.112c-0.002,0.151,0.008,0.303,0.041,0.457
	c0.055,0.251,0.157,0.478,0.291,0.68c0.017,0.025,0.037,0.048,0.055,0.073c0.053,0.072,0.108,0.141,0.169,0.204
	c0.032,0.034,0.066,0.064,0.101,0.095c0.052,0.048,0.106,0.093,0.163,0.135c0.046,0.034,0.092,0.064,0.141,0.094
	c0.051,0.031,0.103,0.059,0.156,0.085c0.057,0.028,0.114,0.056,0.174,0.079c0.05,0.019,0.101,0.032,0.152,0.047
	c0.067,0.019,0.132,0.04,0.201,0.053c0.042,0.008,0.085,0.008,0.128,0.013c0.076,0.009,0.151,0.023,0.229,0.023
	c0.16,0,0.313-0.024,0.462-0.059l17.766-3.856c0.027-0.006,0.05-0.018,0.076-0.025c0.047-0.012,0.091-0.029,0.137-0.045
	c0.083-0.028,0.164-0.057,0.242-0.095c0.031-0.015,0.06-0.034,0.09-0.051c0.083-0.046,0.164-0.095,0.239-0.152
	c0.028-0.022,0.053-0.047,0.081-0.069c0.068-0.058,0.135-0.117,0.195-0.183c0.033-0.037,0.062-0.078,0.092-0.117
	c0.046-0.059,0.092-0.118,0.131-0.182c0.032-0.052,0.057-0.108,0.084-0.164c0.029-0.06,0.059-0.119,0.082-0.181
	c0.022-0.059,0.037-0.12,0.053-0.182c0.018-0.067,0.035-0.133,0.046-0.203c0.003-0.021,0.012-0.041,0.014-0.062
	c0.536-4.357,2.55-8.543,5.669-11.781c4.184-4.322,6.488-10.016,6.488-16.031C73.135,39.612,70.567,33.646,65.905,29.23z
	 M63.77,59.283c-3.379,3.509-5.655,7.957-6.526,12.649l-14.096,3.059c-0.325-5.818-2.774-11.377-6.984-15.775
	c-3.47-3.622-5.352-8.38-5.298-13.396c0.11-10.052,8.046-18.351,18.069-18.893c5.319-0.281,10.368,1.56,14.219,5.207
	c3.856,3.652,5.98,8.587,5.98,13.896C69.135,51.002,67.231,55.708,63.77,59.283z"/><path d="M54.903 43.316l-4.902 4.901-4.902-4.901c-.586-.586-1.536-.586-2.121 0-.586.586-.586 1.535 0 2.121l5.523 5.523v18.901c0 .828.671 1.5 1.5 1.5s1.5-.672 1.5-1.5V50.96l5.523-5.523c.586-.586.586-1.535 0-2.121C56.439 42.73 55.489 42.73 54.903 43.316zM41.521 85.242l17.808-3.866c1.08-.234 1.765-1.299 1.53-2.379-.234-1.078-1.299-1.766-2.379-1.529l-17.808 3.866c-1.08.234-1.765 1.299-1.53 2.379.204.936 1.032 1.575 1.953 1.575C41.236 85.288 41.378 85.273 41.521 85.242zM60.947 84.821c-.234-1.078-1.297-1.763-2.379-1.529L40.76 87.158c-1.08.234-1.765 1.299-1.53 2.379.204.936 1.032 1.575 1.953 1.575.141 0 .283-.015.426-.046L59.417 87.2C60.497 86.966 61.182 85.901 60.947 84.821zM49.996 95c2.781 0 5.078-2.066 5.431-4.746l-10.066 2.176c.212.353.474.675.756.957C47.114 94.385 48.484 95 49.996 95zM11.263 46.737h9.493c.829 0 1.5-.672 1.5-1.5s-.671-1.5-1.5-1.5h-9.493c-.829 0-1.5.672-1.5 1.5S10.435 46.737 11.263 46.737zM90.237 45.237c0-.828-.671-1.5-1.5-1.5h-9.493c-.829 0-1.5.672-1.5 1.5s.671 1.5 1.5 1.5h9.493C89.565 46.737 90.237 46.065 90.237 45.237zM50 17.493c.829 0 1.5-.672 1.5-1.5V6.5C51.5 5.672 50.829 5 50 5s-1.5.672-1.5 1.5v9.493C48.5 16.821 49.171 17.493 50 17.493zM78.452 16.785c-.586-.586-1.535-.586-2.121 0l-6.712 6.713c-.586.586-.586 1.535 0 2.121.293.293.677.439 1.061.439.384 0 .768-.146 1.061-.439l6.712-6.713C79.038 18.32 79.038 17.371 78.452 16.785zM28.261 64.855l-6.712 6.712c-.586.586-.586 1.535 0 2.121.293.293.677.439 1.061.439s.768-.146 1.061-.439l6.712-6.712c.586-.586.586-1.535 0-2.121S28.847 64.27 28.261 64.855zM30.382 25.619c.586-.586.586-1.535 0-2.121l-6.712-6.713c-.586-.586-1.535-.586-2.121 0s-.586 1.535 0 2.121l6.712 6.713c.293.293.677.439 1.061.439C29.705 26.059 30.089 25.912 30.382 25.619zM69.618 64.855c-.586.586-.586 1.535 0 2.121l6.712 6.712c.293.293.677.439 1.061.439s.768-.146 1.061-.439c.586-.586.586-1.535 0-2.121l-6.712-6.712C71.153 64.27 70.204 64.27 69.618 64.855z"/></svg>