<?xml version="1.0" encoding="utf-8"?>
<!-- Generator: Adobe Illustrator 25.4.1, SVG Export Plug-In . SVG Version: 6.00 Build 0)  -->
<svg version="1.1" id="Ebene_1" xmlns="http://www.w3.org/2000/svg" xmlns:xlink="http://www.w3.org/1999/xlink" x="0px" y="0px"
	 viewBox="0 0 1459.7 668.1" style="enable-background:new 0 0 1459.7 668.1;" xml:space="preserve">
<style type="text/css">
	.st0{display:none;}
	.st1{display:inline;fill:#6EC6D9;}
	.st2{display:inline;fill:none;stroke:#6EC6D9;stroke-miterlimit:10;}
	.st3{fill:#E5005B;}
</style>
<g id="Raspberry_x5F_Background" class="st0">
</g>
<g id="Guides">
</g>
<g id="Exclusion_x5F_Zone" class="st0">
	<path class="st1" d="M840.6,112.6c-8.2,3.5-17.1,6.1-25.7,8c-3.1,59.4-45,101.7-102,101.7c-59.2,0-102.2-45.7-102.2-108.7V4.5h57.6
		v109.2c0,23.6,11.7,51.1,44.7,51.1c30.3,0,42.7-23.3,44.4-45.4c-23.9-10.1-38.7-34.3-38.7-66.5c0-15.2,5.4-29,15.2-38.8
		c9-9,21.2-14.1,33.7-14.1c27.4,0,47.3,25.6,47.5,60.9c1.1-0.4,2.2-0.8,3.2-1.3c8.9-3.6,21.2,5.3,27.4,19.9
		C851.7,94.2,849.5,109,840.6,112.6z"/>
	<path class="st1" d="M840.6,558.4c-8.2,3.5-17.1,6.1-25.7,8c-3.1,59.4-45,101.7-102,101.7c-59.2,0-102.2-45.7-102.2-108.7V450.3
		h57.6v109.2c0,23.6,11.7,51.1,44.7,51.1c30.3,0,42.7-23.3,44.4-45.4c-23.9-10.1-38.7-34.3-38.7-66.5c0-15.2,5.4-29,15.2-38.8
		c9-9,21.2-14.1,33.7-14.1c27.4,0,47.3,25.6,47.5,60.9c1.1-0.4,2.2-0.8,3.2-1.3c8.9-3.6,21.2,5.3,27.4,19.9
		C851.7,540,849.5,554.8,840.6,558.4z"/>
	<rect x="238.4" y="222.4" class="st2" width="982.9" height="223.4"/>
	<rect y="0" class="st2" width="1459.7" height="668.1"/>
	<path class="st1" d="M229.9,335.9c-8.2,3.5-17.1,6.1-25.6,8c-3.1,59.4-45.1,101.7-102,101.7C43,445.6,0,399.9,0,337V227.8h57.6V337
		c0,23.6,11.7,51.1,44.7,51.1c30.3,0,42.7-23.3,44.4-45.4c-23.9-10.1-38.7-34.3-38.7-66.5c0-15.2,5.4-29,15.2-38.8
		c9-9,21.2-14.1,33.7-14.1c27.4,0,47.3,25.6,47.5,60.9c1.1-0.4,2.2-0.8,3.2-1.3c8.9-3.6,21.2,5.3,27.4,19.9
		C241.1,317.5,238.9,332.3,229.9,335.9z"/>
	<path class="st1" d="M1451.2,335.9c-8.2,3.5-17.1,6.1-25.7,8c-3.1,59.4-45.1,101.7-102,101.7c-59.2,0-102.2-45.7-102.2-108.7V227.8
		h57.6V337c0,23.6,11.7,51.1,44.7,51.1c30.3,0,42.7-23.3,44.4-45.4c-23.9-10.1-38.7-34.3-38.7-66.5c0-15.2,5.4-29,15.2-38.8
		c9-9,21.2-14.1,33.7-14.1c27.4,0,47.3,25.6,47.5,60.9c1.1-0.4,2.2-0.8,3.2-1.3c8.9-3.6,21.2,5.3,27.4,19.9
		C1462.4,317.5,1460.2,332.3,1451.2,335.9z"/>
</g>
<g id="Unzer_x5F_Logo">
	<path class="st3" d="M661,302.5V442h-57.5V325.4c0-28.7-21.4-44.2-41.5-44.2c-17.4,0-31,8.3-44.1,27V442h-57.5V339.1
		c-5.8,2-11.8,3.7-17.6,5c-3.1,59.4-45,101.7-102,101.7c-59.2,0-102.2-45.7-102.2-108.7V227.9H296v109.2c0,23.6,11.7,51.1,44.7,51.1
		c30.3,0,42.7-23.3,44.4-45.4c-23.9-10.1-38.7-34.3-38.7-66.5c0-33.3,24.9-52.9,48.8-52.9c30.7,0,47.7,30.6,47.5,60.9
		c0,0,8.5-3,17.6-8.2v-48.2h57.5v18.4c19.7-16,37.9-23.2,58.8-23.2c23.2,0,44.5,8.1,60.2,22.8C652.5,260.7,661,280.8,661,302.5z
		 M684,278.7h97.4l-102.7,122l-0.1,0.1V442h182.4v-50.7H757.9L861,267.7l0.1-0.1v-39.7H684V278.7z M1047.6,253.1
		c19.3,19.6,29.5,47.4,29.5,80.3v19.9H922.5c4,26.4,23,42.2,50.9,42.2c23.2,0,43.2-9.3,52.3-24.3l0.2-0.3l0.3,0.1l45.1,20.3
		l-0.2,0.3c-18,34.6-53.9,54.5-98.5,54.5c-64,0-107-44.6-107-111.1c0-31.3,11.4-59.9,32.1-80.4c19.9-19.8,46.5-30.6,74.9-30.6
		C1002.9,223.9,1028.8,234,1047.6,253.1z M1021.1,308.3c-4.7-22.1-22.8-35.3-48.5-35.3c-23.4,0-41.5,13.2-48.3,35.3H1021.1z
		 M1221.3,226.4c-7.6-2.4-16.3-2.4-16.3-2.4c-18.9,0-37.1,7.3-52.7,21.1v-17.1h-57.6V442h57.6V309.2c11.3-21.5,28.8-33.4,49.1-33.4
		c0,0,9.1,0.1,14.8,1.8L1221.3,226.4z"/>
</g>
</svg>
