<svg xmlns="http://www.w3.org/2000/svg" enable-background="new 0 0 1364 960" viewBox="0 0 1364 960"><path fill="#FFC7DB" d="M1121.311 736.962c1.616-3.104 6.082-3.758 9.165-2.118 3.084 1.639 4.977 4.894 6.234 8.165 2.034 5.291 2.757 10.538 3.27 16.054 1.715-4.97 3.61-9.876 5.653-14.707 1.351-3.194 2.774-6.361 4.265-9.498-6.956-3.682-12.781-9.482-16.469-16.436-1.398-2.636-2.485-5.877-1.1-8.52 1.618-3.088 6.083-3.741 9.166-2.113 3.083 1.628 4.973 4.864 6.228 8.116 2.107 5.461 2.801 10.876 3.316 16.591 4.704-9.613 10.087-18.901 16.236-27.651-6.15-4.725-10.88-11.284-13.382-18.627-.963-2.824-1.522-6.197.264-8.587 2.087-2.792 6.6-2.729 9.385-.632 2.786 2.096 4.139 5.59 4.863 9.001 1.172 5.526 1.052 10.8.684 16.308 6.627-9.121 14.335-17.976 23.879-24.041.198-.126.403-.244.602-.369-5.51-5.579-9.321-12.824-10.765-20.534-.55-2.933-.622-6.351 1.487-8.461 2.464-2.466 6.922-1.759 9.38.714 2.458 2.472 3.298 6.124 3.527 9.602.404 6.129-.662 11.746-1.958 17.658 11.215-6.706 23.714-11.373 34.68-18.454-5.665-5.616-9.584-12.975-11.053-20.817-.55-2.933-.622-6.351 1.487-8.462 2.464-2.465 6.922-1.758 9.379.714 2.458 2.472 3.299 6.124 3.528 9.602.415 6.294-.721 12.048-2.063 18.136 2.709-1.818 5.316-3.796 7.774-6.01 4.977-4.483 8.945-9.988 11.933-16.045-7.137-3.958-13.006-10.172-16.524-17.537-1.286-2.692-2.236-5.977-.742-8.559 1.746-3.017 6.236-3.482 9.247-1.726 3.011 1.756 4.765 5.068 5.882 8.37 2.049 6.055 2.417 11.985 2.688 18.307 4.618-9.874 6.678-21.106 6.245-31.748-5.99-4.353-10.74-10.407-13.502-17.28-1.112-2.769-1.852-6.107-.196-8.589 1.935-2.9 6.445-3.078 9.338-1.135 2.893 1.944 4.432 5.361 5.337 8.728 1.443 5.37 1.623 10.565 1.56 15.99.102.174.171.381.187.627.571 9.05-.726 18.178-3.526 26.792-.617 1.899-1.307 3.785-2.067 5.645 5.041-5.145 11.498-8.902 18.478-10.69 2.891-.74 6.297-1.036 8.541.931 2.622 2.298 2.208 6.792-.099 9.406-2.306 2.614-5.896 3.692-9.352 4.149-6.446.851-12.428.021-18.804-.96-1.766 3.829-3.885 7.49-6.495 10.794-3.952 5.005-8.701 9.041-13.867 12.531 7.007-2.471 14.716-2.943 21.964-1.296 2.91.661 6.076 1.952 7.175 4.726 1.283 3.241-1.136 7.05-4.381 8.324-3.245 1.273-6.93.594-10.214-.577-6.291-2.245-11.338-5.845-16.722-9.748-8.687 5.508-18.373 9.687-27.396 14.394-2.84 1.482-5.617 3.033-8.297 4.725 7.464-3.064 15.874-3.787 23.745-2.009 2.91.657 6.078 1.944 7.181 4.717 1.288 3.239-1.127 7.052-4.37 8.33-3.243 1.278-6.93.604-10.214-.564-6.438-2.287-11.574-5.994-17.104-9.993-2.836 1.836-5.552 3.848-8.094 6.145-4.649 4.201-8.814 8.926-12.657 13.867-1.022 1.314-2.019 2.647-2.999 3.994 6.473-3.411 13.902-5.004 21.204-4.502 2.977.205 6.303.993 7.816 3.565 1.768 3.005-.036 7.142-3.046 8.9-3.01 1.758-6.756 1.655-10.181 1.002-6.327-1.204-11.704-3.831-17.389-6.731-6.006 8.549-11.217 17.681-15.794 27.073 5.674-5.11 12.845-8.549 20.392-9.728 2.948-.46 6.367-.429 8.413 1.743 2.389 2.538 1.548 6.972-.997 9.353-2.545 2.382-6.221 3.112-9.705 3.236-6.611.234-12.578-1.217-18.953-2.836-.597 1.25-1.186 2.503-1.762 3.76-3.157 6.902-6.014 13.974-8.468 21.18 5.603-4.892 12.598-8.183 19.95-9.331 2.948-.46 6.367-.429 8.413 1.742 2.389 2.538 1.548 6.972-.997 9.354-2.545 2.381-6.221 3.111-9.705 3.235-6.43.228-12.249-1.138-18.427-2.702-2.7 8.248-4.861 16.668-6.321 25.212-.304 1.78-3.043 1.185-2.74-.591 1.474-8.628 3.675-17.126 6.406-25.452-6.985-3.706-12.836-9.554-16.54-16.57C1121.017 742.879 1119.928 739.619 1121.311 736.962zM165.776 879.294c-2.855-1.168-4.679-4.225-4.857-7.3-.177-3.076 1.104-6.108 3.029-8.514 1.926-2.406 4.459-4.254 7.074-5.885 4.329-2.7 9.144-4.92 14.173-5.48-5.937-4.562-12.23-8.664-18.806-12.267-.598-.328-1.202-.644-1.804-.964-2.23 4.854-4.46 9.708-6.691 14.562-1.488 3.238-3.035 6.562-5.626 9.012-2.591 2.45-6.507 3.849-9.81 2.498-2.855-1.168-4.679-4.225-4.856-7.301-.178-3.076 1.104-6.107 3.029-8.514 1.925-2.406 4.459-4.254 7.074-5.885 4.465-2.785 9.448-5.062 14.649-5.53-7.418-3.773-15.149-6.925-23.091-9.407-2.448 4.832-4.897 9.662-7.345 14.494-1.611 3.179-3.286 6.44-5.968 8.789-2.683 2.349-6.65 3.597-9.899 2.121-2.809-1.277-4.513-4.401-4.572-7.481s1.337-6.061 3.354-8.391c2.016-2.331 4.619-4.08 7.295-5.61 4.285-2.45 9.009-4.438 13.882-4.896-5.785-1.664-11.67-2.981-17.618-3.922-1.761-.278-3.528-.512-5.297-.723-2.682 4.886-5.363 9.772-8.045 14.657-1.715 3.124-3.495 6.33-6.254 8.589-2.758 2.259-6.765 3.377-9.964 1.795-2.765-1.368-4.366-4.547-4.324-7.627.042-3.081 1.536-6.014 3.628-8.277 2.092-2.263 4.751-3.926 7.476-5.367 3.895-2.06 8.125-3.736 12.463-4.286-6.024-.502-12.078-.618-18.121-.341-4.567 2.944-9.135 5.887-13.703 8.831-2.998 1.932-6.091 3.904-9.595 4.579-3.504.675-7.561-.246-9.622-3.157-1.781-2.517-1.675-6.072-.169-8.761 1.505-2.688 4.217-4.557 7.136-5.552 2.919-.996 6.05-1.194 9.135-1.166 5.685.051 11.561.924 16.428 3.8.02-.002.037-.008.057-.008 6.431-.307 12.877-.168 19.285.401-4.158-1.934-7.793-5.046-10.942-8.432-2.1-2.258-4.064-4.703-5.296-7.529-1.232-2.826-1.679-6.087-.706-9.01.973-2.923 3.529-5.398 6.59-5.78 3.541-.442 6.957 1.932 8.82 4.973 1.862 3.041 2.49 6.654 3.083 10.169.903 5.353 1.805 10.706 2.707 16.058 7.819.928 15.563 2.494 23.135 4.667-3.827-2.942-6.755-7.056-9.081-11.333-1.473-2.708-2.769-5.563-3.26-8.605-.491-3.042-.114-6.312 1.556-8.901 1.669-2.59 4.761-4.354 7.822-3.965 3.541.449 6.26 3.595 7.309 7.002 1.049 3.408.759 7.062.46 10.613-.456 5.406-.912 10.811-1.368 16.217.236.074.474.143.711.218 7.744 2.47 15.281 5.572 22.522 9.251-3.833-3.816-6.189-8.981-7.768-14.192-.894-2.949-1.584-6.006-1.448-9.084.136-3.078 1.169-6.203 3.329-8.402 2.16-2.199 5.546-3.3 8.465-2.3 3.376 1.156 5.402 4.786 5.739 8.335.336 3.548-.688 7.068-1.702 10.485-1.593 5.368-3.185 10.737-4.777 16.105.1.053.2.107.3.16l.139-.076c-.019.04-.037.08-.055.121 6.986 3.698 13.679 7.944 19.992 12.709-1.817-4.506-2.285-9.565-2.152-14.466.085-3.139.401-6.317 1.522-9.25 1.121-2.933 3.124-5.625 5.917-7.059 2.793-1.434 6.418-1.414 8.917.488 2.89 2.2 3.68 6.36 2.864 9.9-.816 3.54-2.938 6.616-5.015 9.595-2.951 4.232-5.901 8.464-8.852 12.695-.065.142-.131.285-.196.427 6.812 5.431 13.125 11.474 18.824 18.063.602.696-.37 1.769-.98 1.064-5.603-6.478-11.796-12.421-18.468-17.771-2.116 4.605-4.231 9.21-6.347 13.815-1.488 3.238-3.035 6.562-5.626 9.012C172.995 879.245 169.079 880.645 165.776 879.294zM599.329 856.172c2.172-2.191 2.655-5.718 1.617-8.618-1.039-2.9-3.403-5.191-6.116-6.653-2.713-1.462-5.767-2.173-8.812-2.652-5.04-.794-10.34-.955-15.187.495 3.682-6.519 7.871-12.755 12.516-18.641.422-.535.854-1.063 1.284-1.592 3.95 3.596 7.9 7.193 11.85 10.789 2.635 2.399 5.359 4.854 8.7 6.096 3.342 1.242 7.494 1 10.007-1.535 2.172-2.191 2.655-5.718 1.616-8.618-1.039-2.9-3.403-5.19-6.116-6.652-2.713-1.462-5.767-2.172-8.812-2.652-5.198-.818-10.675-.967-15.645.636 5.353-6.372 11.237-12.295 17.577-17.684 4.142 3.49 8.284 6.98 12.426 10.47 2.726 2.296 5.542 4.644 8.929 5.758 3.388 1.113 7.527.712 9.941-1.917 2.086-2.273 2.434-5.815 1.285-8.673-1.149-2.858-3.6-5.056-6.367-6.413-2.767-1.357-5.846-1.95-8.908-2.313-4.902-.58-10.027-.564-14.692.919 4.675-3.793 9.576-7.306 14.684-10.496 1.512-.945 3.047-1.85 4.593-2.736 4.378 3.449 8.756 6.898 13.134 10.347 2.8 2.206 5.691 4.46 9.114 5.461 3.422 1.002 7.547.465 9.873-2.242 2.01-2.34 2.241-5.891.999-8.71-1.243-2.819-3.764-4.935-6.574-6.2-2.81-1.265-5.907-1.757-8.979-2.018-4.39-.374-8.939-.263-13.147.926 5.348-2.817 10.875-5.29 16.547-7.396 5.354.924 10.71 1.848 16.064 2.773 3.514.607 7.133 1.212 10.622.464 3.489-.748 6.864-3.182 7.622-6.667.655-3.013-.832-6.244-3.268-8.13-2.436-1.886-5.663-2.546-8.739-2.321-3.076.225-6.036 1.266-8.865 2.497-5.213 2.269-10.28 5.369-13.636 9.918-.019.006-.037.007-.056.015-6.04 2.231-11.918 4.879-17.594 7.907 3.071-3.405 5.201-7.691 6.775-12.038 1.05-2.9 1.902-5.918 1.932-9 .029-3.082-.834-6.259-2.872-8.569-2.038-2.311-5.358-3.589-8.325-2.744-3.432.977-5.649 4.498-6.174 8.025-.526 3.527.309 7.098 1.137 10.565 1.261 5.28 2.523 10.56 3.785 15.839-6.835 3.91-13.35 8.379-19.47 13.338 2.373-4.204 3.459-9.135 3.93-13.981.298-3.068.374-6.203-.363-9.194-.737-2.992-2.362-5.854-4.911-7.585-2.549-1.732-6.084-2.146-8.749-.592-3.083 1.797-4.357 5.756-3.99 9.302.367 3.546 2.062 6.797 3.725 9.949 2.533 4.797 5.065 9.595 7.598 14.392-.188.161-.381.317-.569.479-6.162 5.3-11.888 11.101-17.114 17.318 2.036-5.011 2.186-10.686 1.603-16.099-.33-3.064-.89-6.148-2.218-8.927-1.328-2.78-3.5-5.253-6.348-6.432-2.848-1.18-6.395-.869-8.691 1.191-2.656 2.384-3.102 6.517-2.024 9.915 1.078 3.397 3.396 6.237 5.665 8.985 3.564 4.319 7.128 8.638 10.692 12.957-.072.088-.142.177-.214.265l-.158-.016c.033.03.066.059.098.089-4.985 6.134-9.486 12.659-13.434 19.512-.088-4.858-1.636-9.698-3.673-14.157-1.305-2.856-2.838-5.657-5.016-7.919-2.178-2.262-5.074-3.956-8.205-4.185s-6.46 1.207-8.017 3.934c-1.8 3.155-.902 7.293 1.233 10.232 2.135 2.939 5.29 4.941 8.367 6.871 4.37 2.742 8.74 5.484 13.11 8.225.116.106.232.211.347.316-4.148 7.662-7.597 15.691-10.267 23.984-.282.876 1.032 1.484 1.318.596 2.625-8.153 6.003-16.043 10.053-23.576 3.747 3.412 7.495 6.823 11.242 10.235 2.635 2.399 5.359 4.853 8.7 6.096C592.665 858.95 596.817 858.707 599.329 856.172z"/><path fill="#D0C9FF" d="M157.21,826.632c5.508,1.984,14.231,4.271,29.374,3.166c9.29-0.711,22.17-1.619,36.987-8.591
	c0.64-0.302,1.77-0.823,3.202-1.599c0.073-0.031,0.156-0.069,0.222-0.111c0.135-0.055,0.273-0.128,0.418-0.19
	c0.488-0.25,1.001-0.532,1.565-0.785c10.694-5.848,32.263-19.864,35.339-41.395c0.197-1.236,2.313-16.911-5.031-20.898
	c-9.232-4.892-26.669,11.803-29.988,8.419c-1.671-1.723,2.205-6.297,4.739-13.066c5.839-15.156,3.796-37.532-8.78-44.497
	c-5.922-3.354-14.452-3.314-20.896,0.62c-10.543,6.275-8.791,24.119-10.283,24.102c-2.156-0.118,4.527-34.314-11.597-45.888
	c-5.677-4.035-14.642-5.613-19.604-2.087c-7.264,5.183-2.726,19.303-6.787,20.619c-4.305,1.395-8.604-14.452-24.659-23.047
	c-4.088-2.151-13.676-7.262-22.383-3.348c-7.578,3.317-12.353,12.104-11.714,20.052c0.632,7.335,5.713,12.075,7.147,13.332
	c9.173,8.322,18.485,3.712,37.108,11.791c6.505,2.796,13.293,6.783,12.715,9.111c-0.541,1.687-4.774,0.877-10.48,3.722
	c-0.124,0.048-0.309,0.12-0.538,0.267c-1.729,0.889-7.871,4.09-9.845,10.239c-0.12,0.246-2.117,6.965,1.51,10.782
	c1.836,2.004,4.445,2.371,5.576,2.573c11.316,1.833,24.781,7.535,24.533,9.39c-0.224,2.133-18.443-0.994-21.591,5.443
	c-2.608,5.352,6.633,14.263,7.829,15.409c10.012,9.513,23.467,11.197,23.192,12.19c-0.268,0.834-10.458-3.168-20.958,0.644
	c-4.899,1.743-12.464,6.069-12.456,11.244C141.011,820.611,152.407,824.86,157.21,826.632z"/><path fill="#FFF" d="M166.949,787.531c1.152-2.261,3.976-2.571,6.238-2.268c2.852,0.382,5.556,1.505,8.067,2.872
	c5.283,2.876,9.965,7.078,15.844,8.75c2.971,0.845,6.138,0.992,9.065-0.082c-5.009-8.035-9.062-16.673-12.964-25.287
	c-1.461-3.223-2.914-6.462-4.406-9.687c-7.971-5.215-18.3-2.174-26.8-5.946c-2.262-1.004-4.255-2.482-5.72-4.488
	c-0.246-0.338,0.301-0.686,0.547-0.35c2.806,3.844,7.538,5.371,12.057,6.056c4.474,0.678,9.04,0.537,13.479,1.477
	c2.09,0.442,4.107,1.156,5.954,2.221c-4.05-8.695-8.421-17.252-14.09-25.011c-6.868-9.395-15.687-17.741-26.541-22.276
	c-1.363-0.563-2.747-1.066-4.148-1.496c-0.393-0.134-0.256-0.762,0.143-0.646c10.867,3.4,20.03,10.618,27.294,19.235
	c1.239,1.466,2.406,2.983,3.538,4.523c-0.004-0.073,0.008-0.15,0.068-0.221c3.735-4.391,1.984-10.483,0.073-15.248
	c-1.045-2.606-2.21-5.19-2.815-7.944c-0.503-2.288-0.721-4.825,0.504-6.928c0.21-0.36,0.789-0.065,0.579,0.296
	c-1.433,2.458-0.787,5.584-0.014,8.152c0.841,2.796,2.121,5.43,3.11,8.172c1.625,4.507,2.404,9.987-0.955,13.935
	c-0.108,0.128-0.243,0.116-0.358,0.057c6.352,8.701,11.153,18.439,15.628,28.223c2.481,5.423,4.902,10.889,7.474,16.276
	c6.068-3.676,10.624-9.934,12.441-16.773c0.993-3.736,0.934-7.44,0.336-11.237c-0.65-4.122-1.694-8.25-1.367-12.455
	c0.322-4.15,2.195-8.409,6.073-10.361c0.369-0.186,0.723,0.359,0.35,0.547c-3.906,1.966-5.635,6.312-5.815,10.48
	c-0.185,4.274,0.944,8.439,1.541,12.638c0.515,3.634,0.436,7.206-0.545,10.756c-0.911,3.3-2.438,6.414-4.418,9.203
	c-2.213,3.119-5.028,5.824-8.311,7.798c3.146,6.552,6.533,12.975,10.591,19.026c2.81,4.196,5.975,8.213,9.501,11.856
	c1.343-10.422,11.456-16.426,16.314-25.041c1.422-2.521,2.388-5.279,2.489-8.19c0.014-0.415,0.664-0.445,0.649-0.025
	c-0.371,10.698-10.533,17.071-15.761,25.375c-1.58,2.509-2.74,5.248-3.089,8.208c-0.011,0.088-0.057,0.139-0.108,0.18
	c2.696,2.73,5.596,5.246,8.741,7.423c-0.145,0.062-0.283,0.135-0.418,0.19c-0.066,0.042-0.149,0.08-0.222,0.111
	c-5.355-3.747-10.079-8.437-14.181-13.601c-2.196-2.768-4.202-5.661-6.08-8.635c-4.915,1.882-10.272,0.377-14.725-2.01
	c-5.17-2.772-9.703-6.779-15.331-8.662c-2.595-0.868-7.346-1.979-8.928,1.126C167.337,788.2,166.76,787.903,166.949,787.531z"/><path fill="#D0C9FF" d="M1175.454,878.393c-5.85-0.211-14.798-1.339-28.439-8.007c-8.356-4.121-19.97-9.763-31.122-21.754
	c-0.481-0.518-1.336-1.424-2.375-2.677c-0.056-0.056-0.119-0.123-0.165-0.186c-0.104-0.101-0.206-0.22-0.317-0.332
	c-0.359-0.414-0.731-0.867-1.16-1.311c-7.745-9.411-22.538-30.455-17.37-51.581c0.278-1.22,4.155-16.555,12.455-17.519
	c10.39-1.1,20.351,20.89,24.691,18.987c2.193-0.976,0.3-6.665,0.47-13.891c0.229-16.241,10.463-36.244,24.728-38.021
	c6.745-0.906,14.646,2.31,19.16,8.361c7.446,9.752-0.829,25.658,0.562,26.198c2.045,0.694,8.585-33.53,27.86-38.262
	c6.771-1.629,15.679,0.247,18.97,5.368c4.81,7.516-4.663,18.929-1.385,21.663c3.475,2.898,13.37-10.205,31.471-12.199
	c4.595-0.473,15.398-1.643,22.019,5.234c5.796,5.902,6.953,15.836,3.398,22.973c-3.32,6.571-9.8,9.077-11.6,9.709
	c-11.613,4.304-18.536-3.443-38.829-2.885c-7.078,0.171-14.864,1.342-15.194,3.717c-0.127,1.767,4.104,2.593,8.338,7.359
	c0.097,0.09,0.242,0.227,0.4,0.448c1.273,1.47,5.78,6.728,5.321,13.171c0.02,0.273-0.631,7.252-5.419,9.443
	c-2.45,1.175-5.008,0.544-6.134,0.31c-11.184-2.515-25.805-2.241-26.265-0.428c-0.586,2.063,17.485,5.949,18.008,13.096
	c0.426,5.938-11.47,10.764-13.007,11.382c-12.835,5.098-25.949,1.646-26.064,2.67c-0.062,0.874,10.886,0.957,19.209,8.406
	c3.897,3.443,9.305,10.276,7.369,15.075C1192.73,878.841,1180.571,878.538,1175.454,878.393z"/><path fill="#FFF" d="M1180.986,838.478c-0.226-2.528-2.732-3.868-4.943-4.429c-2.789-0.708-5.716-0.674-8.556-0.341
	c-5.975,0.701-11.884,2.855-17.964,2.217c-3.072-0.323-6.066-1.367-8.381-3.454c7.643-5.59,14.622-12.096,21.453-18.635
	c2.557-2.447,5.112-4.911,7.698-7.347c9.34-1.869,17.792,4.802,27.086,4.468c2.473-0.089,4.873-0.718,6.98-2.034
	c0.354-0.222-0.024-0.749-0.378-0.529c-4.036,2.522-8.996,2.175-13.445,1.127c-4.404-1.038-8.589-2.87-13.059-3.652
	c-2.104-0.368-4.242-0.457-6.353-0.157c6.998-6.56,14.243-12.871,22.395-17.959c9.874-6.159,21.168-10.618,32.93-10.783
	c1.474-0.015,2.947,0.035,4.407,0.157c0.415,0.022,0.521-0.612,0.108-0.653c-11.352-0.894-22.544,2.39-32.496,7.68
	c-1.697,0.899-3.344,1.872-4.969,2.879c0.031-0.067,0.048-0.142,0.019-0.23c-1.83-5.466,2.065-10.467,5.614-14.178
	c1.941-2.029,3.984-3.993,5.572-6.323c1.32-1.935,2.467-4.209,2.114-6.617c-0.061-0.413-0.708-0.355-0.647,0.059
	c0.414,2.815-1.351,5.475-3.025,7.57c-1.823,2.281-3.992,4.249-5.932,6.425c-3.188,3.577-5.952,8.373-4.306,13.287
	c0.053,0.159,0.183,0.198,0.311,0.187c-9.137,5.707-17.22,12.955-25.019,20.367c-4.323,4.108-8.607,8.279-13,12.32
	c-4.262-5.672-6.157-13.177-5.296-20.201c0.47-3.837,1.905-7.253,3.876-10.553c2.139-3.583,4.646-7.025,5.91-11.049
	c1.248-3.972,1.097-8.622-1.775-11.878c-0.274-0.31-0.805,0.064-0.528,0.378c2.892,3.28,2.877,7.957,1.491,11.892
	c-1.421,4.035-4.021,7.48-6.139,11.154c-1.832,3.18-3.089,6.524-3.503,10.185c-0.384,3.401-0.127,6.86,0.671,10.186
	c0.892,3.719,2.496,7.278,4.807,10.333c-5.361,4.908-10.897,9.607-16.917,13.71c-4.171,2.847-8.605,5.395-13.234,7.462
	c2.637-10.172-4.511-19.511-5.808-29.316c-0.38-2.869-0.249-5.789,0.742-8.528c0.142-0.39-0.45-0.66-0.593-0.265
	c-3.642,10.066,3.414,19.767,5.171,29.42c0.531,2.917,0.588,5.891-0.192,8.768c-0.023,0.086,0.001,0.151,0.033,0.207
	c-3.52,1.529-7.148,2.783-10.878,3.632c0.111,0.112,0.213,0.231,0.317,0.332c0.046,0.063,0.109,0.13,0.165,0.186
	c6.366-1.482,12.497-4.073,18.228-7.337c3.069-1.75,6.008-3.688,8.859-5.748c3.86,3.578,9.391,4.178,14.414,3.622
	c5.83-0.646,11.531-2.676,17.454-2.326c2.731,0.162,7.554,0.901,7.865,4.371C1180.377,838.955,1181.023,838.895,1180.986,838.478z"/><path fill="#4A3894" d="M796.346,405.474c1.036-0.499,2.297-0.769,3.139-1.499c0.842-0.73,0.891-1.549,1.755-2.232
	c2.621-2.068,5.93-1.444,9.023-0.661c4.972,1.258,9.971,2.682,13.303,6.763c1.393,1.705,1.853,3.544,3.85,4.557
	c0.917,0.465,1.985,0.401,2.908,0.654c7.555,2.071,13.334,7.672,11.153,15.91c-0.63,2.377-2.084,2.861-2.633,5.609
	c-1.15,5.737,3.222,11.778-4.142,15.637c-7.366,3.859-15.101,5.031-23.702,1.676c-9.935-3.875-14.493-17.072-17.422-26.952
	c-3.051-3.01-5.268-6.297-4.638-10.691C789.572,409.854,792.564,407.296,796.346,405.474z"/><path fill="#FFDBDB" d="M876.917,746.096c-0.452-1.88-15.214,1.794-29.795,2.004c-31.692,0.464-83.038-2.251-94.309-43.379
	c-9.83-35.855,13.879-104.819,13.879-104.819l61.618,2.175c0,0-16.422,70.805-15.306,84.426
	c1.087,13.22,21.832,24.871,40.359,32.716c15.291,6.472,29.062,10.346,29.062,10.346S878.362,752.065,876.917,746.096z"/><path fill="#353596" d="M853.364,719.22l-1.894,8.795l-4.467,24.805c-31.692,0.464-82.92-6.97-94.191-48.098
	c-9.83-35.855,13.879-104.819,13.879-104.819l61.618,2.175c0,0-16.422,70.805-15.306,84.426c0.653,7.894,8.31,15.236,18.325,21.523
	C838.074,712.287,845.901,716.056,853.364,719.22z"/><path fill="#CCC" d="M853.364,719.22l-1.894,8.795l-29.584-10.202l9.444-9.786C838.074,712.287,845.901,716.056,853.364,719.22z"/><path fill="#222282" d="M783.846,600.926c0,0-23.31,47.403-18.733,76.414c3.373,21.378,56.773,40.472,56.773,40.472l10.618-38.832
	c0,0-11.029-64.747-10.977-66.224C821.579,611.278,783.846,600.926,783.846,600.926z"/><path fill="#FFDBDB" d="M830.714,839.495c-6.773-10.98-16.724-25.042-22.211-35.976c-38.463-76.811-45.383-151.089-24.39-203.002
	l69.641,2.459c13.96,86.909-33.051,94.703-16.893,199.814c1.659,10.844,3.992,22.718,7.139,35.819
	C844,838.608,832.145,839.462,830.714,839.495z"/><path fill="#4A3894" d="M841.289,804.766l-10.349,0.641l-24.123,1.471c-38.462-76.811-43.695-154.448-22.703-206.361l69.641,2.459
	C867.715,689.884,825.131,699.655,841.289,804.766z"/><path fill="#2D2D8C" d="M841.289,804.766l-10.349,0.641c-1.986-11.211-4.425-26.758-5.697-41.464
	c-2.379-27.322,14.416-80.482,18.685-104.724c4.626-26.275-0.37-44.842-3.383-56.709l13.21,0.466
	C867.715,689.884,825.131,699.655,841.289,804.766z"/><path fill="#3F4883" d="M842.56 835.617c3.269 2.886 4.908 6.714 5.24 11.294.081 1.113-.703 2.109-1.797 2.323l-31.427 6.137c-1.668.326-3.088-1.268-2.543-2.877 2.047-6.041 11.17-11.189 17.636-15.171C834.574 833.673 841.657 840.799 842.56 835.617zM878.62 730.238c6.169-2.208 9.918-.868 14.816 1.628 1.19.607 1.726 2.027 1.266 3.281l-13.184 35.995c-.699 1.909-3.212 2.378-4.522.823-4.92-5.839-4.54-18.373-4.615-27.465C871.681 737.214 883.368 734.373 878.62 730.238z"/><path fill="#FFDBDB" d="M911.318,454.722c-2.999,11.198-12.166,23.183-22.619,33.881c-18.175,18.65-40.238,33.421-40.238,33.421
	l5.293,80.952l-87.063-3.074l3.248-74.377l0.204-1.59c-4.846-2.302-19.21-9.881-34.663-25.576
	c-6.256-6.346-12.686-14.044-18.753-23.254c-17.791-27.022-19.133-55.239-19.133-55.239c-9.013-1.605-14.436-16.719-3.752-23.945
	c5.639-3.81,9.245,4.537,9.245,4.537s1.54-8.99,5.182-7.382c3.642,1.608,1.502,19.646,1.502,19.646s12.279,26.014,20.835,35.932
	c5.642,6.561,15.994,11.705,25.688,15.376c7.197,2.74,14.068,4.67,18.364,5.768c2.302,0.598,4.71,0.683,7.047,0.277l20.412-3.028
	h18.803l17.537,2.207c4.434,0.556,8.904-0.337,12.784-2.553c4.182-2.383,9.986-5.861,15.872-9.959
	c8.994-6.265,18.143-13.976,21.867-21.39c7.575-15.09,11.333-48.616,11.333-48.616s-12.231-13.111-6.987-17.069
	c3.679-2.785,5.82,3.623,7.958,3.832c2.079,0.222,0.906-14.777,9.064-14.519c12.384,0.393-0.491,26.895-0.491,26.895
	S919.791,423.006,911.318,454.722z"/><path fill="#9385FF" d="M888.699,488.603c-3.545,3.632-7.219,7.113-10.855,10.358c-1.65,1.48-3.283,2.902-4.9,4.28
	c-13.133,11.18-24.483,18.783-24.483,18.783c1.231,15.396,1.313,35.097,8.896,72.278c1.165,5.713-3.55,10.797-9.351,10.204
	c-28.839-2.949-56.18,11.435-84.149-4.263c-3.231-1.814-4.923-5.503-4.189-9.134c4.418-21.855,9.76-59.33,10.474-67.174
	l-0.596-0.288c-3.781-1.849-11.854-6.188-21.522-13.942c-3.971-3.188-8.217-6.948-12.545-11.346l20.815-34.329
	c7.221,2.749,23.072,6.447,25.411,6.046l20.412-3.028c-1.477,10.607,16.833,11.926,18.803,0c0,0,26.451,1.86,30.34-0.356
	c4.18-2.382,9.976-5.856,15.853-9.949L888.699,488.603z"/><path fill="#7969F0" d="M877.844 498.961c-1.65 1.48-3.283 2.902-4.9 4.28-13.133 11.18-24.483 18.783-24.483 18.783l-3.708-27.826C851.729 508.991 863.243 509.006 877.844 498.961zM775.252 498.682l-5.108 25.252-.597-.288c-3.781-1.849-11.854-6.188-21.522-13.942C759.331 514.944 768.796 512.83 775.252 498.682z"/><polygon fill="#FFDBDB" points="820.922 467.048 802.117 467.048 803.024 456.95 803.649 450.003 817.124 449.452"/><path fill="#F7B2C2" d="M820.922,467.048h-2.234c-1.402-4.337-3.948-9.818-7.648-8.976c-2.784,0.637-5.686-0.118-8.016-1.122
	l0.625-6.947l13.474-0.55L820.922,467.048z"/><path fill="#FFDBDB" d="M793.768,419.921c-1.19,11.134-6.299,24.86,4.118,33.933c6.595,5.743,20.959,0.634,22.701-10.553
	c3.643-3.467,7.383-9.355,3.088-13.251c-3.062-2.778-6.412,4.929-10.533,2.502c-1.564-0.921,2.718-11.514-2.615-12.993
	C805.197,418.081,799.425,421.664,793.768,419.921z"/><path fill="#4A3894" d="M735.924,304.335c-19.645-6.726-41.595,2.434-50.659,21.116c-7.7,15.869-4.399,33.941,6.569,46.044
	c6.195,6.837,7.95,16.601,4.366,25.102l-11.452,27.164c-0.987,2.34,0.111,5.038,2.451,6.024l0,0
	c2.341,0.987,5.038-0.111,6.025-2.451l11.782-27.946c3.44-8.161,11.156-13.827,19.997-14.351
	c15.27-0.905,29.453-10.25,35.798-25.299C770.081,337.723,758.922,312.209,735.924,304.335z"/><circle cx="722.568" cy="343.62" r="35.204" fill="#FFBC47"/><path fill="#FFF" d="M712.33 320.798c2.663-1.958 4.775-2.608 6.336-1.95 1.559.657 1.044 4.062-1.549 10.211-.755 1.79-1.901 4.091-3.437 6.902-1.538 2.811-2.622 4.841-3.255 6.086-1.451 3.442-2.84 6.383-4.166 8.824-1.326 2.44-2.133 3.872-2.417 4.291-.286.421-.692.871-1.218 1.351-.885.815-2.246.837-4.081.064-1.01-.426-1.05-1.74-.121-3.943.929-2.203 3.04-6.028 6.338-11.475 3.296-5.448 5.593-9.708 6.889-12.784 1.296-3.074 1.772-4.685 1.428-4.83-.344-.145-1.902.955-4.674 3.299-2.773 2.345-4.863 4.193-6.27 5.545-1.409 1.352-2.559 2.638-3.45 3.856-.892 1.219-1.635 2.081-2.226 2.588-.593.508-1.164.645-1.714.412-.872-.368-1.11-1.022-.713-1.963.396-.94 2.586-3.219 6.571-6.837C704.585 326.83 708.494 323.613 712.33 320.798zM739.55 332.192l-3.725-1.165c-.368-.155-.454-.461-.261-.921.329-.78 1.229-1.184 2.7-1.213 1.471-.028 3.033.306 4.685 1.002 2.891 1.219 4.766 3.63 5.625 7.236.858 3.605.185 8.023-2.021 13.255-2.148 5.094-5.452 9.404-9.91 12.929-2.187 1.727-4.677 2.825-7.47 3.296-2.793.472-5.59.116-8.389-1.064-3.901-1.645-6.192-4.191-6.873-7.64-.682-3.449-.151-7.239 1.591-11.369 3.269-7.755 7.789-13.282 13.557-16.58 2.43-1.408 4.197-1.879 5.299-1.414.321.135.414.364.279.685-.116.275-.497.601-1.142.978-3.088 1.941-5.381 4.11-6.877 6.505-1.497 2.397-3.077 5.567-4.741 9.514-1.664 3.948-2.312 7.471-1.944 10.572.367 3.101 1.561 5.077 3.581 5.928 2.019.851 3.901 1.036 5.644.555 1.743-.481 3.293-1.435 4.652-2.863 2.651-2.827 4.78-6.146 6.386-9.955 1.606-3.809 2.484-7.559 2.636-11.253C742.985 335.519 741.891 333.179 739.55 332.192z"/><path fill="#FFDBDB" d="M706.283,391.671c-2.982-0.351-2.497,10.608-2.497,10.608l6.61,0.209
	C710.596,397.054,709.265,392.021,706.283,391.671z"/><ellipse cx="693.595" cy="402.487" fill="#FFDBDB" rx="8.348" ry="3.213" transform="rotate(-63.03 693.626 402.508)"/><path fill="#FFDBDB" d="M1069.731,840.976c-2.519,5.365-26.731,34.717-32.516,30.476c-5.778-4.254,13.984-29.858,13.822-35.054
	c-0.094-2.901-0.846-5.516-1.491-7.266c-0.518-1.376-0.961-2.206-0.961-2.206s-19.706-25.061-35.611-54.224
	c-9.237-16.916-17.193-35.235-19.276-50.803c-5.797-43.573,44.777-153.522,44.777-153.522l37.706,12.246l7.198,2.33l0.544,0.181
	c5.561,10.542,8.456,20.459,9.393,29.886c0.043,0.436,0.078,0.853,0.121,1.289c3.642,44.93-37.069,78.185-44.535,110.986
	c-6.243,27.485,14.996,98.948,14.996,98.948s0.135,0.185,0.361,0.505c0.181,0.27,0.428,0.616,0.715,1.058
	c1.11,1.706,2.865,4.6,4.023,7.564C1070.09,836.145,1070.662,838.974,1069.731,840.976z"/><path fill="#4A3894" d="M1066.046,825.503l-1.073,0.303l-4.211,1.197l-11.613,3.75c-1.397-3.516-18.105-26.031-36.175-58.051
	c-9.644-17.087-17.992-35.573-20.308-51.239c-6.436-43.843,44.021-153.841,44.021-153.841l39.723,13.001l6.932,2.266
	c0.008,0.019,0.031,0.045,0.037,0.064c5.801,10.627,8.856,20.611,9.937,30.068c0.043,0.436,0.078,0.853,0.121,1.289
	c4.252,45.187-37.01,78.209-44.259,111.103c-6.068,27.558,16.493,99.579,16.493,99.579S1065.821,825.182,1066.046,825.503z"/><path fill="#255EA8" d="M1060.763,827.003c-7.645-21.323-32.523-78.726-29.683-96.869c4.414-28.191,38.105-68.57,46.466-98.167
	c5.42-19.192-5.277-51.324-5.277-51.324l3.913-0.02l0.229,0l6.932,2.266c0.008,0.019,0.031,0.045,0.037,0.064l0.544,0.181
	c5.561,10.542,8.456,20.459,9.393,29.886c0.043,0.436,0.078,0.853,0.121,1.289c4.252,45.187-37.01,78.209-44.259,111.103
	c-6.068,27.558,16.493,99.579,16.493,99.579s0.15,0.191,0.375,0.512L1060.763,827.003z"/><path fill="#4A3894" d="M1068.031 831.167c6.774 5.289 3.548 9.892 5.216 14.459.271.741.108 1.559-.451 2.151l-3.166 3.36c-.603.639-1.551.914-2.448.707l-.108-.024c-1.079-.248-2.201.164-2.785 1.026-6.085 8.965-21.068 22.147-26.943 20.136-5.208-1.783 2.896-15.401 2.896-15.401C1049.049 860.681 1058.365 850.483 1068.031 831.167zM1159.762 551.328c-10.998-22.551 7.48-34.581-13.289-50.754-26.292-21.71-1.095-29.068-30.48-55.54-4.147-8.735 1.909-21.7-6.573-28.515-4.298-3.246-10.533-2.331-15.268-4.897-5.725-4.449-13.96-4.097-20.144 2.274-5.471 5.638-5.276 16.647-3.481 20.726 2.88 6.544-12.684 8.334-15.586 14.923-3.671 8.34 2.708 13.283-4.684 18.611-16.042 11.565-2.101 12.287 7.089 30.715-7.016 29.73 7.791 14.445 12.967 36.985-5.484 17.348-16.006 31.537.712 44.841 14.497 15.564 20.729-15.038 39.047-13.43C1132.967 569.276 1168.02 568.262 1159.762 551.328z"/><path fill="#FFDBDB" d="M1114.008,836.485c-1.771,5.608-21.808,37.461-28.125,33.904c-6.312-3.571,9.819-31.204,8.953-36.341
	c-0.488-2.868-1.589-5.379-2.466-7.043c-0.701-1.307-1.253-2.081-1.253-2.081s-22.96-22.649-42.705-49.798
	c-11.464-15.746-21.849-33.029-26.031-48.243c-11.673-42.586,23.573-157.385,23.573-157.385l39.081,7.906l7.459,1.501l0.564,0.119
	c6.951,9.835,11.171,19.35,13.381,28.599c0.102,0.428,0.194,0.838,0.295,1.265c9.719,44.175-26.16,81.759-29.113,115.149
	c-2.46,27.977,28.325,96.499,28.325,96.499s0.159,0.169,0.426,0.461c0.216,0.247,0.509,0.563,0.853,0.969
	c1.333,1.568,3.468,4.242,5.02,7.052C1113.708,831.651,1114.66,834.393,1114.008,836.485z"/><path fill="#4A3894" d="M1108.249,821.546l-1.023,0.421l-4.016,1.662l-11.014,5.029c-1.864-3.332-21.503-23.793-43.785-53.532
	c-11.891-15.87-22.687-33.273-27.114-48.558c-12.344-42.782,22.78-157.617,22.78-157.617l41.184,8.428l7.186,1.468
	c0.011,0.018,0.036,0.041,0.046,0.059c7.2,9.892,11.589,19.456,13.946,28.718c0.102,0.428,0.194,0.838,0.295,1.265
	c10.359,44.362-26.099,81.777-28.823,115.234c-2.277,28.03,29.896,96.957,29.896,96.957S1107.981,821.253,1108.249,821.546z"/><path fill="#FFDBDB" d="M1088.764,456.343l-2.947,18.084l7.561,4.542c31.123-23.92,54.28-38.35,69.651-69.586
	c1.618-3.266,3.133-6.733,4.579-10.407c3.383-11.245,9.945-22.769,12.848-20.644c3.769,2.721-1.886,9.564,0.663,10.86
	c3.954,2.012,2.184-15.996,6.064-11.007c6.094,7.834,7.229,15.139-5.07,26.924c-1.872,1.795-4.641,6.226-5.158,8.735
	c-8.694,42.474-34.207,75.861-69.237,103.104l0.152,0.418c0,0-10.842,14.472-14.419,32.887c-1.778,9.068-0.394,29.895-0.394,29.895
	l-47.104-10.464c0,0-12.029-38.735-8.961-52.671c-0.157,0.018-34.874,1.813-58.491-10.881
	c-15.334-8.259-19.868-35.529-21.118-47.012c-0.341-3.187-0.435-5.152-0.435-5.152c-14.002-6.167-19.85-21.36-18.604-25.3
	c2.794-8.776,6.156,4.41,19.888,6.169c13.133,1.684,10.902,16.527,10.902,16.527s0.237,0.832,0.751,2.225
	c1.911,5.27,7.765,18.498,19.743,24.001c13.012,5.95,38.263,1.678,70.265-0.147l8.094-3.059l4.861-16.217L1088.764,456.343z"/><path fill="#FF70A4" d="M1136.509,490.649c-0.7,0.768-1.411,1.516-2.125,2.279c-8.06,8.519-16.993,16.505-26.666,24.02l0.152,0.418
	c0,0-10.842,14.472-14.419,32.887c-1.151,5.854,0.237,18.055,1.354,25.964c0.419,2.943-2.394,5.372-5.201,4.423
	c-2.802-0.965-5.61-1.494-8.45-1.765c-13.57-1.32-27.629,3.14-44.883-6.843c-1.265-0.725-2.07-2.042-2.057-3.501
	c-0.016-8.617,0.147-39.578,2.778-51.518c0,0-0.035,0.005-0.106,0.016c-2.031,0.09-35.44,1.43-58.384-10.897
	c-0.331-0.174-0.643-0.357-0.965-0.561c-14.555-8.851-18.927-35.21-20.154-46.451l12.502-5.532
	c1.911,5.27,7.765,18.498,19.743,24.001c13.012,5.95,38.263,1.678,70.265-0.147l8.094-3.059l17.831,0.043l7.561,4.542
	c31.123-23.92,54.28-38.35,69.651-69.586l13.927,4.461C1170.867,443.562,1156.55,468.83,1136.509,490.649z"/><path fill="#E6CFDA" d="M1036.992 517.013c0 0-.035.005-.106.016-2.059.091-36.397 1.469-59.358-11.432 25.869 4.649 30.016 4.702 32.299 4.711 10.12-.264 21.182-2.714 30.649-8.401l9.029-5.424C1038.594 508.915 1036.992 517.013 1036.992 517.013zM1094.805 576.216c.419 2.943-2.394 5.372-5.201 4.423-2.802-.965-5.61-1.494-8.45-1.765-1.113-7.656-2.109-20.035.45-32.014 4.109-19.286 16.379-36.799 16.379-36.799l36.402-17.134c-8.06 8.519-16.993 16.505-26.666 24.02l.152.418c0 0-10.842 14.472-14.419 32.887C1092.299 556.106 1093.688 568.307 1094.805 576.216z"/><path fill="#4A3894" d="M1103.21 823.629c-10.483-20.299-42.971-74.459-42.617-92.782.55-28.472 28.496-72.335 32.771-102.645 2.771-19.655-12.21-50.336-12.21-50.336l3.88-.461.227-.025 7.186 1.468c.011.018.036.041.046.059l.564.119c6.951 9.835 11.171 19.35 13.381 28.599.102.428.194.838.295 1.265 10.359 44.362-26.099 81.777-28.823 115.234-2.277 28.03 29.896 96.957 29.896 96.957s.175.173.442.466L1103.21 823.629zM1110.988 826.942c7.441 4.486 4.865 9.417 7.141 13.761.369.705.319 1.535-.155 2.185l-2.685 3.691c-.512.702-1.415 1.081-2.333.978l-.11-.012c-1.104-.124-2.162.411-2.625 1.331-4.82 9.582-17.897 24.35-24 23.016-5.411-1.183.782-15.609.782-15.609C1096.162 858.368 1104.021 847.198 1110.988 826.942z"/><path fill="#FFDBDB" d="M1083.403,419.416c0,0,0.948,20.649,11.134,24.617c0,0,5.425-5.324,8.297-1.638
	c2.874,3.687-3.81,10.277-3.81,10.277c-8.148,9.015-34.74,14.613-33.912-2.542C1066.026,431.214,1083.403,419.416,1083.403,419.416z
	"/><path fill="#4A3894" d="M1184.527,353.878c11.751-11.963,15.622-30.489,7.909-46.842c-8.845-18.752-30.649-28.157-50.349-21.695
	c-23.097,7.577-34.584,32.944-25.588,55.077c6.57,16.165,22.171,25.937,38.613,25.869c7.555-0.031,14.432,4.32,17.277,11.319
	l12.344,30.37c0.938,2.307,3.506,3.672,5.858,2.856c2.509-0.87,3.748-3.651,2.76-6.079l-12.626-31.065
	C1177.972,366.914,1179.401,359.096,1184.527,353.878z"/><circle cx="1154.936" cy="324.796" r="35.204" fill="#FFBC47"/><path fill="#FFF" d="M1131.562 315.888c.499-3.267 1.534-5.22 3.103-5.858 1.568-.637 3.609 2.135 6.122 8.318.731 1.799 1.547 4.237 2.448 7.312.9 3.076 1.567 5.278 2 6.606 1.406 3.46 2.503 6.523 3.29 9.187.787 2.664 1.228 4.246 1.323 4.744.095.5.127 1.105.094 1.817-.05 1.202-.997 2.18-2.842 2.929-1.015.413-1.973-.489-2.873-2.703-.9-2.215-2.11-6.413-3.628-12.597-1.519-6.183-2.906-10.821-4.163-13.913-1.256-3.091-2.058-4.567-2.404-4.426-.346.141-.671 2.02-.974 5.638-.304 3.619-.476 6.403-.516 8.354-.041 1.952.055 3.675.286 5.166.23 1.493.314 2.628.255 3.404-.061.778-.368 1.279-.921 1.504-.877.356-1.507.062-1.892-.885-.384-.945-.446-4.105-.184-9.481C1130.347 325.63 1130.839 320.591 1131.562 315.888zM1158.871 304.708l-3.458 1.809c-.37.15-.647-.005-.835-.467-.319-.784.032-1.707 1.053-2.767 1.021-1.06 2.362-1.927 4.023-2.603 2.907-1.181 5.937-.8 9.093 1.143 3.155 1.943 5.802 5.545 7.94 10.804 2.082 5.122 2.791 10.506 2.129 16.15-.327 2.767-1.312 5.305-2.955 7.612-1.642 2.308-3.872 4.033-6.686 5.177-3.922 1.594-7.343 1.412-10.262-.547-2.921-1.958-5.223-5.014-6.911-9.166-3.169-7.797-3.879-14.901-2.13-21.311.724-2.714 1.641-4.296 2.748-4.746.322-.131.55-.035.681.287.112.277.074.777-.117 1.499-.813 3.556-.901 6.711-.266 9.463.635 2.753 1.759 6.113 3.372 10.081 1.613 3.969 3.645 6.919 6.098 8.852 2.452 1.934 4.693 2.488 6.724 1.662 2.03-.825 3.492-2.024 4.385-3.597.893-1.572 1.315-3.343 1.268-5.313-.123-3.874-.963-7.726-2.52-11.556-1.556-3.829-3.586-7.103-6.089-9.823C1163.652 304.633 1161.224 303.751 1158.871 304.708z"/><path fill="#FFDBDB" d="M1174.125,380.328c-2.728,0-4.291,12.3-4.291,12.3l6.785-0.685
	C1176.62,391.944,1176.854,380.328,1174.125,380.328z"/><ellipse cx="1186.403" cy="384.967" fill="#FFDBDB" rx="4.21" ry="9.121" transform="rotate(-16.544 1186.501 385.054)"/><rect width="379.101" height="76.552" x="187.372" y="796.635" fill="#FF70A4" transform="rotate(-180 376.922 834.911)"/><path fill="#E0B1CF" d="M566.473,796.635v27.558H226.002c-12.05,0-21.818,9.769-21.818,21.819v27.175h-16.812v-76.552H566.473z"/><path fill="#FFBC47" d="M190.161,778.138h374.266c8.547,0,17.768,8.281,17.768,18.497c0,10.216-9.431,18.497-17.768,18.497H190.161
	c-8.243,0-18.511-8.281-18.511-18.497C171.65,786.42,182.338,778.138,190.161,778.138z"/><circle cx="544.999" cy="796.635" r="9.807" fill="#FFF"/><circle cx="489.097" cy="796.635" r="9.807" fill="#FFF"/><circle cx="433.196" cy="796.635" r="9.807" fill="#FFF"/><circle cx="377.294" cy="796.635" r="9.807" fill="#FFF"/><circle cx="321.393" cy="796.635" r="9.807" fill="#FFF"/><circle cx="265.491" cy="796.635" r="9.807" fill="#FFF"/><circle cx="209.589" cy="796.635" r="9.807" fill="#FFF"/><path fill="#FFBC47" d="M1052.768,571.839h24.648c5.168,0,9.358,4.19,9.358,9.358v11.272h-43.364v-11.272
	C1043.411,576.029,1047.6,571.839,1052.768,571.839z"/><path fill="#E6D2B8" d="M1047.123,573.779c-0.081,0.495-0.153,0.994-0.153,1.513v3.559c0,4.26,3.453,7.713,7.713,7.713h32.092v5.906
	h-43.364v-11.272C1043.411,578.16,1044.88,575.488,1047.123,573.779z"/><path fill="#FFF" d="M1045.136,589.018h39.912c5.183,0,9.385,4.202,9.385,9.385v3.128h-58.682v-3.128
	C1035.752,593.219,1039.953,589.018,1045.136,589.018z"/><path fill="#FFBC47" d="M796.208,571.522h24.648c5.168,0,9.358,4.19,9.358,9.358v11.272H786.85V580.88
	C786.85,575.712,791.04,571.522,796.208,571.522z"/><path fill="#E6D2B8" d="M790.562,573.462c-0.081,0.495-0.152,0.994-0.152,1.513v3.559c0,4.26,3.453,7.713,7.713,7.713h32.092v5.906
	H786.85V580.88C786.85,577.843,788.32,575.172,790.562,573.462z"/><path fill="#FFF" d="M788.576,588.701h39.912c5.183,0,9.385,4.202,9.385,9.385v3.128h-58.682v-3.128
	C779.191,592.902,783.393,588.701,788.576,588.701z"/><path fill="#50A9EB" d="M1165.629,615.842l-23.848,224.581c-2.157,20.314-14.464,36.422-27.528,36.359l-318.345-1.549
	c-13.087-0.064-25.07-16.305-26.797-36.658l-19.096-225.031L1165.629,615.842z"/><path fill="#70C3FF" d="M1129.641,615.643l-20.133,224.62c-1.821,20.317-13.862,36.428-26.929,36.365l-318.396-1.549
	c-13.089-0.064-25.343-16.308-27.407-36.664L713.95,613.344L1129.641,615.643z"/><polygon fill="#B1BCE0" points="1128.646 626.751 1128.561 627.696 713.009 625.808 1125.13 665.97 1152.681 737.77 1164.449 626.948"/><path fill="#FF70A4" d="M715.428,599.436h461.085c5.891,0,10.667,7.223,10.667,16.133v0c0,8.91-4.776,16.133-10.667,16.133H715.428
	c-5.891,0-10.667-7.223-10.667-16.133v0C704.761,606.659,709.537,599.436,715.428,599.436z"/><path fill="#E0B1CF" d="M1130.804,599.436h46.461c5.476,0,9.914,7.223,9.914,16.133c0,8.91-4.439,16.133-9.914,16.133h-46.461
	c-5.476,0-9.915-7.223-9.915-16.133C1120.889,606.659,1125.328,599.436,1130.804,599.436z"/><circle cx="1013.436" cy="737.77" r="76.499" fill="#FFF"/><circle cx="1013.436" cy="737.77" r="70.369" fill="#4A3894"/><circle cx="826.513" cy="737.77" r="76.499" fill="#FFF"/><circle cx="826.513" cy="737.77" r="70.369" fill="#4A3894"/><path fill="#FFF" d="M1041.506 704.225c-11.127 15.539-22.253 31.079-33.38 46.619-7.745-7.27-15.49-14.54-23.234-21.81-4.665 5.937-9.33 11.874-13.995 17.811 13.133 8.684 26.266 17.368 39.399 26.052 16.764-18.014 33.529-36.028 50.293-54.042C1054.229 713.979 1047.868 709.102 1041.506 704.225zM852.275 704.225c-11.127 15.539-22.253 31.079-33.38 46.619-7.745-7.27-15.49-14.54-23.234-21.81-4.665 5.937-9.33 11.874-13.995 17.811 13.133 8.684 26.266 17.368 39.399 26.052 16.764-18.014 33.529-36.028 50.293-54.042C864.998 713.979 858.637 709.102 852.275 704.225z"/><path fill="#4A3894" d="M1305.551,873.188H58.449c-1.51,0-2.734,1.224-2.734,2.734l0,0c0,1.51,1.224,2.734,2.734,2.734h1247.101
	c1.51,0,2.734-1.224,2.734-2.734l0,0C1308.285,874.412,1307.061,873.188,1305.551,873.188z"/><path fill="#FFDBDB" d="M427.923,594.303c-4.629,17.072-41.537,36.062-80.715,48.541c-16.756,5.351-33.952,9.487-49.194,11.792
	c-5.351,0.81-10.455,1.39-15.225,1.708c-5.773,0.387-11.036,0.405-15.63,0c0,0-7.621,2.147-10.507,8.641
	c-0.528,1.145-0.897,2.447-1.038,3.89c-1.003,9.575-0.334,33.336-3.309,33c-2.974-0.316-23.091-52.465-17.811-56.426
	c4.699-3.52,19.044-4.436,22.159-4.575c0.388-0.035,0.599-0.035,0.599-0.035s9.081-2.271,21.894-6.355
	c6.161-1.971,13.183-4.365,20.487-7.128c21.508-8.149,45.339-19.537,56.198-32.931c2.657-3.237,4.523-6.582,5.438-10.032
	c0.827-3.133-0.757-7.075-3.854-11.81c-13.605-20.715-56.621-56.127-55.565-100.058h72.567
	C374.418,472.525,440.472,548.101,427.923,594.303z"/><path fill="#4A3894" d="M427.925,594.303c-4.629,17.072-41.537,36.062-80.716,48.541c-15.822,5.034-40.956,16.668-57.694,22.441
	c-4.154,1.443-8.66-1.003-9.769-5.262l-4.153-16.088l-2.974-11.582c-1.003-3.907,1.232-7.92,5.086-9.116
	c27.104-8.378,83.092-23.831,75.963-48.455c-1.126-3.854-3.291-7.603-6.16-11.422c-14.749-19.677-47.592-41.238-45.656-90.836
	h72.567C374.419,472.525,440.473,548.101,427.925,594.303z"/><path fill="#F0DDDD" d="M379.558,592.877c-3.089,17.389-75.91,30.589-103.966,51.058l-2.974-11.582
	c-1.003-3.907,1.232-7.92,5.086-9.116c27.104-8.378,83.092-23.831,75.963-48.455c-1.126-3.854-3.291-7.603-6.16-11.422
	c-0.387-1.99-0.739-3.257-0.739-3.257s-21.845-44.817-5.336-38.445C357.925,528.048,382.767,574.817,379.558,592.877z"/><path fill="#4A3894" d="M316.766,317.405c0,0-15.722-46.499,18.722-46.499c34.228,0,21.103,45.27,21.103,45.27L316.766,317.405z"/><path fill="#FFDBDB" d="M311.589,733.151c-0.757,4.541-1.443,9.223-2.024,14.028c0,0,0.335,6.265,2.746,11.774
	c2.411,5.509,24.641,5.721,28.6,12.972c3.96,7.269-48.172,9.24-52.801,0c-4.611-9.24,4.629-25.081,4.629-25.081
	c-1.003-5.087-1.848-10.385-2.516-15.807c-0.053-0.299-0.089-0.598-0.124-0.897c-3.238-25.961-3.151-54.719-2.147-78.392
	c0.422-10.262,1.039-19.573,1.619-27.281c0.335-4.136,0.634-7.797,0.916-10.912c2.077-23.461-26.876-72.338-6.987-143.918
	l56.145,1.443c6.705,32.349,9.293,84.341,6.124,120.458c-1.76,19.941-4.048,32.05-8.624,48.418
	c-8.238,29.428-19.009,56.568-25.028,90.185C311.941,731.144,311.765,732.13,311.589,733.151z"/><path fill="#4A3894" d="M347.195,591.538c-1.795,19.941-4.137,32.05-8.8,48.418c-6.019,21.104-10.789,59.807-15.365,84.253
	c-1.109,5.949-6.688,9.998-12.69,9.259l-12.003-1.479l-7.798-0.951l-1.073-0.105c-4.471-0.44-7.762-4.136-7.41-8.326
	c2.323-25.978,3.783-49.245,4.77-70.858c0.44-10.262,1.108-19.573,1.742-27.281c0.352-4.136,0.651-7.797,0.968-10.912
	c2.217-23.461-28.83-72.338-7.498-143.918h1.637l57.271,1.443c0.546,2.604,1.074,5.333,1.567,8.184
	C348.163,511.702,350.152,558.325,347.195,591.538z"/><polygon fill="#FFDBDB" points="346.684 355.111 325.564 354.513 327.271 341.576 328.045 335.715 343.71 335.715 344.784 342.684"/><path fill="#F0DDDD" d="M292.247,494.533c-7.27,26.505,10.66,74.455,14.291,122.086c1.461,19.175-6.53,87.703-8.202,115.371
	l-7.798-0.951l-1.073-0.105c-4.471-0.44-7.762-4.136-7.41-8.326c2.323-25.978,3.783-49.245,4.77-70.858
	c0.44-10.262,1.108-19.573,1.742-27.281c0.352-4.136,0.651-7.797,0.968-10.912c2.217-23.461-28.83-72.338-7.498-143.918h1.637
	l57.271,1.443c0.546,2.604,1.074,5.333,1.567,8.184C327.36,478.772,297.156,476.635,292.247,494.533z"/><path fill="#FFDBDB" d="M309.354,351.379l-28.723,51.165c-11.547-10.473-21.702-21.895-30.185-34.549
	c-19.501-29.059-30.132-64.63-28.336-110.214c-5.668-7.146-9.627-25.292,4.628-27.069c11.018-1.373,7.393,13.182,8.519,13.657
	c1.355,0.563,4.946-4.506,7.198-2.974c6.513,4.453-6.477,13.922-6.477,13.922c12.936,33.318,27.509,57.184,43.79,73.921
	C289.06,338.813,298.934,346.047,309.354,351.379z"/><path fill="#FFDBDB" d="M373.314,414.055l-1.795,11.142l-4.013,24.868l-2.658,16.527l-0.492,3.046H283.5l-2.869-67.094
	l28.723-51.165c4.101,1.373,9.188,2.341,14.679,3.133l14.345,0.386l8.307,0.212h12.179L373.314,414.055z"/><path fill="#70C3FF" d="M376.464,480.816c-37.733,6.488-57.164-9.802-83.722-7.907c-3.535,0.267-7.198,0.849-11.058,1.837
	c-4.128,1.07-8.07-2.279-7.651-6.512l5.047-50.187c0.291-2.919,0.151-5.814-0.395-8.616c-1.244-6.617-4.698-12.71-9.93-17.221
	c-7.36-6.349-14.651-12.942-20.186-20.326c-1-1.326-1.128-3.093-0.384-4.523c0.139-0.279,0.314-0.535,0.512-0.779l5.488-6.593
	l25.582-30.745c9.291,9.57,19.175,16.803,29.594,22.14c4.093,1.372,10.721,2.349,16.21,3.14
	c-1.756,20.524,22.768,22.838,21.116,0.593h12.175l14.454,58.943l8.128,59.896C381.882,477.188,379.708,480.246,376.464,480.816z"/><path fill="#D0E1F5" d="M286.02,380.116c-4.779,10.128-5.907,28.687-5.907,28.687l-1.43,0.628c-1.244-6.617-4.698-12.71-9.93-17.221
	c-7.36-6.349-14.651-12.942-20.186-20.326c-1-1.326-1.128-3.093-0.384-4.523c5.417,9.641,22.853,23.736,26.579,21.847
	C279.138,386.99,286.02,380.116,286.02,380.116z"/><path fill="#FFDBDB" d="M436.993,432.341c0,26.7-53.259,32.896-72.145,34.251c-4.066,0.3-6.547,0.369-6.547,0.369
	s-2.764,1.321-6.53,2.677c-6.829,2.464-16.948,5.033-19.783,0c-2.903-5.158,9.98-7.868,10.79-11.423
	c0.352-1.478-4.33-3.608-2.394-5.861c1.566-1.813,14.15,2.253,14.15,2.253s5.844-1.673,12.971-4.542
	c11.212-4.524,25.609-12.02,25.609-20.68c0-2.129-0.424-3.978-1.145-5.545c-0.247-0.563-0.545-1.091-0.862-1.584
	c-5.052-7.744-17.795-8.201-17.795-8.201l-14.45-58.944c20.857,2.341,40.041,12.637,54.175,26.629
	c3.062,3.009,5.879,6.196,8.43,9.505C431.202,403.882,436.993,418.367,436.993,432.341z"/><path fill="#70C3FF" d="M420.941,385.173l-31.47,42.681c-5.051-7.744-16.158-13.798-16.158-13.798l-7.462,8.959l-23.902-9.188
	l4.734-58.715h12.179C382.009,356.026,399.046,364.158,420.941,385.173z"/><path fill="#D0E1F5" d="M389.471,427.854c-5.051-7.744-16.158-13.798-16.158-13.798s-2.692-21.703-6.107-33.942
	C382.385,398.059,373.314,404.258,389.471,427.854z"/><path fill="#F0DDDD" d="M344.784,342.684c-2.604,0.951-5.579,1.673-8.659,1.673c-4.189,0-7.023-1.338-8.853-2.781l0.774-5.861
	h15.665L344.784,342.684z"/><path fill="#FFDBDB" d="M335.244,281.811c-16.245,0-17.114,12.382-19.141,20.973c0,0-6.196-2.673-7.714,2.385
	c-1.518,5.058,6.702,11.272,6.702,11.272s4.805,23.521,20.992,22.508c16.187-1.011,21.498-22.508,21.498-22.508
	s8.346-9.358,6.07-13.152c-2.276-3.794-8.346,1.879-8.346,1.879S354.156,281.811,335.244,281.811z"/><path fill="#4A3894" d="M292.528 745.748c-5.98 8.696-10.348 19.3-5.951 30.319.498 1.246 1.709 2.071 3.052 2.071h53.084c2.043 0 3.553-1.852 3.217-3.867-2.748-16.503-29.226-15.38-36.188-28.524C304.198 750.263 298.476 750.656 292.528 745.748zM259.285 640.329c-10.424-1.643-21.875-1.01-29.919 7.711-.91.987-1.131 2.436-.552 3.646l22.904 47.898c.878 1.838 3.192 2.403 4.865 1.242 13.715-9.521 1.273-32.384 10.129-44.337C260.246 653.434 257.424 647.812 259.285 640.329z"/><rect width="5.267" height="375.731" x="420.976" y="394.262" fill="#8A7AD1"/><rect width="5.267" height="144.101" x="419.244" y="332.847" fill="#8A7AD1" transform="rotate(-38.716 421.847 404.87)"/><path fill="#4A3894" d="M419.343 536.086h7.951c.452 0 .819-.367.819-.819v-19.72c0-.452-.367-.819-.819-.819h-7.951c-.452 0-.819.367-.819.819v19.72C418.524 535.719 418.891 536.086 419.343 536.086zM465.918 466.935l6.232-4.937c.355-.281.414-.796.133-1.151l-12.245-15.457c-.281-.355-.796-.414-1.151-.133l-6.232 4.937c-.355.281-.414.796-.133 1.151l12.245 15.457C465.048 467.156 465.563 467.215 465.918 466.935zM415.618 764.514c0 .791.141 1.554.395 2.289h15.201c.255-.735.396-1.498.396-2.289 0-4.097-3.588-7.431-7.996-7.431S415.618 760.417 415.618 764.514zM413.012 398.644v5.815c0 2.402 1.938 4.34 4.339 4.34h10.618c.463 0 .928-.084 1.348-.253 1.728-.548 2.991-2.149 2.991-4.087v-5.815c0-2.402-1.938-4.382-4.339-4.382h-10.618c-1.306 0-2.444.59-3.244 1.475C413.434 396.495 413.012 397.548 413.012 398.644z"/><rect width="34.446" height="11.172" x="405.932" y="766.967" fill="#4A3894"/><path fill="#8A7AD1" d="M367.294,329.892c2.983,2.03,3.755,6.09,1.727,9.071c-1.05,1.543-2.641,2.494-4.343,2.768
	c-1.594,0.266-3.288-0.061-4.731-1.042c-2.941-2.001-3.732-5.979-1.802-8.95c0.025-0.042,0.052-0.082,0.079-0.122
	C360.253,328.635,364.313,327.863,367.294,329.892z"/><path fill="#C5CDF0" d="M363.209,328.775c0.296,0.142,0.586,0.307,0.866,0.498c2.983,2.03,3.755,6.09,1.727,9.071
	c-1.05,1.543-2.641,2.494-4.343,2.768c-0.213,0.036-0.429,0.06-0.645,0.074c1.23,0.588,2.579,0.759,3.864,0.545
	c1.702-0.273,3.293-1.225,4.343-2.768c2.028-2.981,1.256-7.041-1.727-9.071C366.045,329.042,364.607,328.685,363.209,328.775z"/><path fill="#2B1F61" d="M384.379,349.21l-0.197,0.292c-0.168,0.241-0.38,0.46-0.635,0.642c-0.015,0.015-0.037,0.029-0.058,0.044
	c-0.533,0.372-1.19,0.577-1.796,0.496c-0.073-0.007-0.139-0.015-0.204-0.036c-0.015,0-0.029,0-0.037-0.015
	c-0.139-0.029-0.27-0.08-0.394-0.146l-5.628-3.19l-1.11-0.628l-5.3-3.008l-2.905-1.65l-0.767-0.431l-1.08-0.613l4.11-6.044
	l0.759-1.117l0.978,0.788l0.672,0.548l9.205,7.432l3.555,2.876l0.606,0.489C385.043,346.677,385.036,348.254,384.379,349.21z"/><path fill="#C5CDF0" d="M384.379,349.21l-0.197,0.292c-0.168,0.241-0.38,0.46-0.635,0.642c-0.015,0.015-0.037,0.029-0.058,0.044
	c-0.533,0.365-1.197,0.569-1.796,0.496c-0.073-0.007-0.139-0.015-0.204-0.036c-0.015,0-0.029,0-0.044-0.007c0,0,0.007,0,0.007-0.007
	c0.387-0.212,0.715-0.504,0.949-0.847l0.197-0.292c0.65-0.956,0.664-2.526-0.226-3.27l-2.555-2.059l-9.519-7.694l-0.219-0.175
	l-1.701-1.372l0.759-1.117l0.978,0.788l0.672,0.548l9.205,7.432l3.555,2.876l0.606,0.489
	C385.043,346.677,385.036,348.254,384.379,349.21z"/><path fill="#4A3894" d="M370.695,335.891l-3.918,5.758c-0.586,0.861-1.758,1.083-2.618,0.498l-0.474-0.322l6.038-8.874l0.474,0.322
	C371.057,333.858,371.28,335.031,370.695,335.891z"/><path fill="#999" d="M370.182,342.805c-0.1-0.057-0.227-0.023-0.284,0.077c-0.057,0.1-0.023,0.227,0.077,0.284l6.701,3.838
	c0.1,0.057,0.227,0.023,0.284-0.077c0.057-0.1,0.023-0.227-0.077-0.284L370.182,342.805z"/><ellipse cx="360.058" cy="335.392" fill="#919191" rx="1.92" ry="2.723" transform="rotate(-4.052 360.254 335.54)"/><path fill="#4A3894" d="M383.547,350.144v6.862c0,1.606-1.307,2.92-2.92,2.92h-8.687c-1.613,0-2.92-1.314-2.92-2.92v-13.344
	l5.3,3.008c0.321,0.27,0.701,0.489,1.11,0.628l5.628,3.19c0.124,0.066,0.256,0.117,0.394,0.146c0,0.007-0.007,0.007-0.007,0.007
	c0.015,0.007,0.029,0.007,0.044,0.007c0.066,0.022,0.131,0.029,0.204,0.036c0.606,0.08,1.263-0.124,1.796-0.496
	C383.51,350.174,383.532,350.159,383.547,350.144z"/><path fill="#4A3894" d="M383.547,350.971h-6.934v-8.054c0-1.915,1.552-3.467,3.467-3.467l0,0c1.915,0,3.467,1.552,3.467,3.467
	V350.971z"/><path fill="#CCE2FF" d="M1160.996,104.816H275.945v6.992h15.938l63.906,63.906h-79.844v6.992h885.051v-6.992h-37.451l0.11-0.109
	l-63.797-63.797h101.138V104.816z M485.073,111.808h145.739l-63.797,63.797l0.11,0.109H548.76l0.11-0.109L485.073,111.808z
	 M539.091,175.714H392.763l63.906-63.906h18.515L539.091,175.714z M640.701,111.808h18.515l63.906,63.906H576.794L640.701,111.808z
	 M669.104,111.808h146.953l-63.797,63.797l0.11,0.109h-19.579l0.11-0.109L669.104,111.808z M825.945,111.808h26.246l63.906,63.906
	H762.039L825.945,111.808z M862.079,111.808h145.771l-63.797,63.797l0.109,0.109h-18.396l0.109-0.109L862.079,111.808z
	 M301.77,111.808h145.012l-63.797,63.797l0.11,0.109h-17.637l0.11-0.109L301.77,111.808z M1113.876,175.714H953.832l63.906-63.906
	h32.232L1113.876,175.714z"/><rect width="63.884" height="56.264" x="343.842" y="80.18" fill="#4A3894"/><rect width="47.832" height="40.444" x="351.868" y="88.09" fill="#FF70A4"/><path fill="#E6CFDA" d="M392.612,88.09v25.943c0,4.309-3.493,7.801-7.801,7.801h-32.944v6.699H399.7V88.09H392.612z"/><rect width="63.884" height="56.264" x="433.985" y="151.078" fill="#4A3894"/><rect width="47.832" height="40.444" x="442.011" y="158.988" fill="#FFBC47"/><path fill="#EBDBBC" d="M482.756,158.988v25.943c0,4.309-3.493,7.801-7.801,7.801h-32.944v6.699h47.832v-40.444H482.756z"/><rect width="63.884" height="56.264" x="527.872" y="80.18" fill="#4A3894"/><rect width="47.832" height="40.444" x="535.898" y="88.09" fill="#FF70A4"/><path fill="#E6CFDA" d="M576.643,88.09v25.943c0,4.309-3.493,7.801-7.801,7.801h-32.944v6.699h47.832V88.09H576.643z"/><rect width="63.884" height="56.264" x="708.845" y="80.18" fill="#4A3894"/><rect width="47.832" height="40.444" x="716.871" y="88.09" fill="#FF70A4"/><path fill="#E6CFDA" d="M757.616,88.09v25.943c0,4.309-3.493,7.801-7.801,7.801h-32.944v6.699h47.832V88.09H757.616z"/><rect width="63.884" height="56.264" x="906.787" y="80.18" fill="#4A3894"/><rect width="47.832" height="40.444" x="914.813" y="88.09" fill="#FF70A4"/><path fill="#E6CFDA" d="M955.558,88.09v25.943c0,4.309-3.493,7.801-7.801,7.801h-32.944v6.699h47.832V88.09H955.558z"/><rect width="63.884" height="56.264" x="1081.492" y="80.18" fill="#4A3894"/><rect width="47.832" height="40.444" x="1089.518" y="88.09" fill="#FF70A4"/><path fill="#E6CFDA" d="M1130.263,88.09v25.943c0,4.309-3.493,7.801-7.801,7.801h-32.944v6.699h47.832V88.09H1130.263z"/><rect width="63.884" height="56.264" x="618.016" y="151.078" fill="#4A3894"/><rect width="47.832" height="40.444" x="626.042" y="158.988" fill="#FFBC47"/><path fill="#EBDBBC" d="M666.787,158.988v25.943c0,4.309-3.493,7.801-7.801,7.801h-32.944v6.699h47.832v-40.444H666.787z"/><rect width="63.884" height="56.264" x="811.007" y="151.078" fill="#4A3894"/><rect width="47.832" height="40.444" x="819.033" y="158.988" fill="#FFBC47"/><path fill="#EBDBBC" d="M859.778,158.988v25.943c0,4.309-3.493,7.801-7.801,7.801h-32.944v6.699h47.832v-40.444H859.778z"/><rect width="63.884" height="56.264" x="995.038" y="151.078" fill="#4A3894"/><rect width="47.832" height="40.444" x="1003.064" y="158.988" fill="#FFBC47"/><path fill="#EBDBBC" d="M1043.808,158.988v25.943c0,4.309-3.493,7.801-7.801,7.801h-32.944v6.699h47.832v-40.444H1043.808z"/><path fill="#FF70A4" d="M175.81 367.801l5.1-3.468 1.836 4.897c0 0 .565-8.351 3.621-12.904 2.499-3.723 6.325-8.008 6.325-8.008l-5.661.918.408-4.182C181.247 350.001 177.612 357.858 175.81 367.801zM486.988 536.067l-5.1-3.468-1.836 4.896c0 0-.565-8.351-3.621-12.904-2.499-3.723-6.325-8.008-6.325-8.008l5.661.918-.408-4.182C481.551 518.267 485.186 526.124 486.988 536.067zM388.282 273.341l-5.1-3.468-1.836 4.897c0 0-.565-8.351-3.621-12.904-2.499-3.723-6.325-8.008-6.325-8.008l5.661.918-.408-4.182C382.845 255.54 386.48 263.397 388.282 273.341z"/><polygon fill="#70C3FF" points="149.572 426.766 135.955 417.586 154.855 411.618"/><polygon fill="#70C3FF" points="492.711 410.118 479.093 400.938 497.994 394.97"/><polygon fill="#70C3FF" points="290.188 258.167 276.57 248.986 295.471 243.019"/><path fill="#FFBC47" d="M223.803 400.344c0-2.591 2.101-4.692 4.692-4.692 2.591 0 4.692 2.101 4.692 4.692 0 2.592-2.101 4.692-4.692 4.692C225.903 405.037 223.803 402.936 223.803 400.344zM395.008 332.581c0-2.591 2.101-4.692 4.692-4.692 2.591 0 4.692 2.101 4.692 4.692 0 2.592-2.101 4.692-4.692 4.692C397.109 337.273 395.008 335.172 395.008 332.581zM212.257 542.187c0-2.591 2.101-4.692 4.692-4.692 2.591 0 4.692 2.101 4.692 4.692 0 2.592-2.101 4.692-4.692 4.692C214.358 546.88 212.257 544.779 212.257 542.187z"/><path fill="#9385FF" d="M178.177 506.483c-3.097.385-6.195.77-9.292 1.155 19.92-77.427 38.941 4.399 51.126-50.829 3.369-.456 6.738-.912 10.108-1.368C215.313 522.503 190.189 439.011 178.177 506.483zM487.65 337.713c.298 3.107.597 6.214.894 9.321-76.839-22.079 5.487-38.803-49.379-52.528-.361-3.381-.723-6.761-1.084-10.142C504.703 301.04 420.54 323.817 487.65 337.713z"/></svg>