<svg xmlns="http://www.w3.org/2000/svg" enable-background="new 0 0 64 64" viewBox="0 0 64 64"><path d="M44.948 25.684l-2-6C42.812 19.275 42.431 19 42 19H22c-.431 0-.812.275-.948.684l-2 6C19.018 25.786 19 25.893 19 26c0 1.006.385 1.915 1 2.618V43c0 .553.447 1 1 1h22c.553 0 1-.447 1-1V28.618c.615-.703 1-1.612 1-2.618C45 25.893 44.982 25.786 44.948 25.684zM33 21h4v5c0 1.103-.897 2-2 2s-2-.897-2-2V21zM27 21h4v5c0 1.103-.897 2-2 2s-2-.897-2-2V21zM21.005 26.146L22.721 21H25v5c0 1.103-.897 2-2 2C21.946 28 21.08 27.181 21.005 26.146zM29 42h-3v-4h3V42zM42 36h-6v-2h6V36zM42 32h-7c-.553 0-1 .447-1 1v4c0 .553.447 1 1 1h7v4H31v-5c0-.553-.447-1-1-1h-5c-.553 0-1 .447-1 1v5h-2V29.858C22.322 29.942 22.653 30 23 30c1.201 0 2.266-.542 3-1.382C26.734 29.458 27.799 30 29 30s2.266-.542 3-1.382C32.734 29.458 33.799 30 35 30s2.266-.542 3-1.382C38.734 29.458 39.799 30 41 30c.347 0 .678-.058 1-.142V32zM41 28c-1.103 0-2-.897-2-2v-5h2.279l1.716 5.146C42.92 27.181 42.054 28 41 28zM2 17h10c.553 0 1-.447 1-1v-3c0-2.26-1.256-4.23-3.107-5.253C10.575 7.029 11 6.066 11 5c0-2.206-1.794-4-4-4S3 2.794 3 5c0 1.066.425 2.029 1.107 2.747C2.256 8.77 1 10.74 1 13v3C1 16.553 1.447 17 2 17zM5 5c0-1.103.897-2 2-2s2 .897 2 2S8.103 7 7 7 5 6.103 5 5zM3 13c0-2.206 1.794-4 4-4s4 1.794 4 4v2H3V13zM59.893 7.747C60.575 7.029 61 6.066 61 5c0-2.206-1.794-4-4-4s-4 1.794-4 4c0 1.066.425 2.029 1.107 2.747C52.256 8.77 51 10.74 51 13v3c0 .553.447 1 1 1h10c.553 0 1-.447 1-1v-3C63 10.74 61.744 8.77 59.893 7.747zM55 5c0-1.103.897-2 2-2s2 .897 2 2-.897 2-2 2S55 6.103 55 5zM61 15h-8v-2c0-2.206 1.794-4 4-4s4 1.794 4 4V15zM9.893 53.747C10.575 53.029 11 52.066 11 51c0-2.206-1.794-4-4-4s-4 1.794-4 4c0 1.066.425 2.029 1.107 2.747C2.256 54.77 1 56.74 1 59v3c0 .553.447 1 1 1h10c.553 0 1-.447 1-1v-3C13 56.74 11.744 54.77 9.893 53.747zM5 51c0-1.103.897-2 2-2s2 .897 2 2-.897 2-2 2S5 52.103 5 51zM11 61H3v-2c0-2.206 1.794-4 4-4s4 1.794 4 4V61zM59.893 53.747C60.575 53.029 61 52.066 61 51c0-2.206-1.794-4-4-4s-4 1.794-4 4c0 1.066.425 2.029 1.107 2.747C52.256 54.77 51 56.74 51 59v3c0 .553.447 1 1 1h10c.553 0 1-.447 1-1v-3C63 56.74 61.744 54.77 59.893 53.747zM55 51c0-1.103.897-2 2-2s2 .897 2 2-.897 2-2 2S55 52.103 55 51zM61 61h-8v-2c0-2.206 1.794-4 4-4s4 1.794 4 4V61z"/><path d="M32 11c-11.579 0-21 9.421-21 21s9.421 21 21 21 21-9.421 21-21S43.579 11 32 11zM32 51c-10.477 0-19-8.523-19-19s8.523-19 19-19 19 8.523 19 19S42.477 51 32 51zM5.442 18.534C3.19 22.808 2 27.637 2 32.5c0 4.528.983 8.879 2.923 12.932l1.805-.863C4.918 40.787 4 36.727 4 32.5c0-4.54 1.11-9.047 3.212-13.034L5.442 18.534zM32 60.5c-5.942 0-11.618-1.837-16.413-5.312l-1.174 1.619C19.552 60.531 25.633 62.5 32 62.5c6.364 0 12.444-1.968 17.583-5.69l-1.174-1.619C43.614 58.664 37.939 60.5 32 60.5zM59.077 45.432C61.017 41.379 62 37.028 62 32.5c0-4.863-1.19-9.692-3.442-13.966l-1.77.932C58.89 23.453 60 27.96 60 32.5c0 4.227-.918 8.287-2.728 12.068L59.077 45.432zM13.379 8.978l1.242 1.566C19.609 6.59 25.619 4.5 32 4.5s12.391 2.09 17.379 6.044l1.242-1.566C45.275 4.739 38.836 2.5 32 2.5S18.725 4.739 13.379 8.978z"/></svg>