<svg xmlns="http://www.w3.org/2000/svg" enable-background="new 0 0 69 69" viewBox="0 0 69 69"><path d="M21.95537 49.77078c.14551 0 .28906-.06348.3877-.18457l5.27148-6.48926c.1748-.21484.1416-.5293-.07227-.70313-.21387-.17578-.5293-.14063-.70313.07227l-5.27148 6.48926c-.1748.21484-.1416.5293.07227.70313C21.73271 49.73465 21.84404 49.77078 21.95537 49.77078zM32.28642 37.05301c.14551 0 .28906-.06348.3877-.18457l6.04297-7.4375c.1748-.21484.1416-.5293-.07227-.70313-.21387-.17578-.5293-.1416-.70313.07227l-6.04297 7.4375c-.1748.21484-.1416.5293.07227.70313C32.06377 37.01688 32.17509 37.05301 32.28642 37.05301z"/><path d="M13.5894,59.93094c1.62493,1.2247,3.73566,1.11903,5.2146-0.08398l34.52991-28.04272
		c0.90604,0.51531,1.93605,0.30746,2.59705-0.34302c0.65479-0.65479,0.78943-1.63,0.41888-2.42932
		c1.29138-0.15277,2.55206-0.52228,3.71399-1.09113l0.18353,0.18353c1.06642,1.06642,2.80117,1.07579,3.86621,0.01074
		l0.01074-0.01074c1.01056-1.01056,1.0437-2.62244,0.1264-3.6983c3.32288-4.53894,2.87054-10.8526-1.13812-14.86127
		C59.09917,5.5513,52.78258,5.09702,48.24266,8.41885c-1.11274-0.9471-2.69359-0.86677-3.70331,0.14294
		c-1.0625,1.0625-1.05762,2.79688,0.01074,3.86523l0.17841,0.17841c-0.56927,1.16351-0.93884,2.42426-1.09125,3.71442
		c-0.8427-0.39018-1.7887-0.21234-2.43188,0.43237c-0.66518,0.66359-0.84704,1.70324-0.33392,2.59302L12.82158,53.86453
		c-1.28821,1.58624-1.23901,3.82056,0.04211,5.37128c-5.96386,4.90858-12.07177-2.96734-8.07336-10.11346
		c1.2373-2.21289,3.29883-3.98828,5.96191-5.13477c2.67383-1.14941,5.98633-3.19043,6.58594-6.38086
		c0.77362-4.11196-3.23086-7.75131-7.33398-6.63769c-0.72168,0.19629-1.46582,0.51074-2.20996,0.93359
		c-0.24023,0.13672-0.32422,0.4414-0.1875,0.68164c0.13574,0.24023,0.44141,0.3252,0.68164,0.1875
		c0.67188-0.38184,1.33691-0.66406,1.97754-0.83789c3.39518-0.9185,6.72615,2.1014,6.08984,5.4873
		c-1.03058,5.48294-8.79307,4.69455-12.43848,11.21289C-0.56748,56.65179,6.72689,65.75931,13.5894,59.93094z M62.40556,10.27176
		c3.6167,3.6167,4.06079,9.28858,1.14209,13.42047L48.97649,9.12198C53.11021,6.20426,58.78416,6.64938,62.40556,10.27176z
		 M45.25713,9.25809c0.6738-0.6738,1.76754-0.67387,2.45215,0.01074l15.69727,15.69629
		c0.67871,0.67969,0.68359,1.7793,0.01074,2.45215l-0.01074,0.01074c-0.6748,0.67383-1.77344,0.66797-2.45215-0.01074
		C58.44051,24.90339,49.09077,15.55366,45.25713,11.72C44.57841,11.04129,44.57353,9.94168,45.25713,9.25809z M59.31096,27.1879
		c-1.16235,0.52155-2.42053,0.83655-3.698,0.9104L44.57091,17.05722c0.07294-1.27594,0.38745-2.53479,0.90985-3.69952
		L59.31096,27.1879z M41.92021,17.45047c0.45117-0.44727,1.18555-0.44434,1.63867,0.00879
		c3.46634,3.46605,7.23095,7.23034,11.65723,11.65625c0.45313,0.4541,0.45703,1.18945,0.00781,1.63867
		c-0.08917,0.10032-0.09698,0.10911-0.00781,0.00879c-0.44507,0.44312-1.16693,0.44165-1.62213,0.00287L41.90813,19.07999
		C41.46429,18.61965,41.46058,17.91209,41.92021,17.45047z M13.59697,54.49539L41.52892,20.1207L52.5562,31.14798L18.17314,59.07156
		c-1.29297,1.05078-3.15918,0.95313-4.33984-0.22656C12.64775,57.65945,12.54619,55.78934,13.59697,54.49539z"/><path d="M47.85478 18.74344l.70703.70703c.19531.19531.51171.19532.70703 0 .19531-.19531.19531-.51172 0-.70703l-.70703-.70703c-.19531-.19531-.51172-.19531-.70703 0S47.65947 18.54813 47.85478 18.74344zM51.24345 22.13211c.19531.19531.51171.19532.70703 0 .19531-.19531.19531-.51172 0-.70703l-.70703-.70703c-.19531-.19531-.51172-.19531-.70703 0s-.19531.51172 0 .70703L51.24345 22.13211zM53.92509 24.81375c.19531.19531.51171.19532.70703 0 .19531-.19531.19531-.51172 0-.70703l-.70703-.70703c-.19531-.19531-.51172-.19531-.70703 0s-.19531.51172 0 .70703L53.92509 24.81375zM57.32353 10.83817c.19531.19531.51171.19532.70703 0 .19531-.19531.19531-.51172 0-.70703l-.70703-.70605c-.19531-.19531-.51172-.19531-.70703 0s-.19531.51172 0 .70703L57.32353 10.83817zM60.00517 13.52078c.19531.19531.51171.19532.70703 0 .19531-.19531.19531-.51172 0-.70703l-.70703-.70703c-.19531-.19531-.51172-.19531-.70703 0s-.19531.51172 0 .70703L60.00517 13.52078zM62.68681 16.20243c.19531.19531.51171.19532.70703 0 .19531-.19531.19531-.51172 0-.70703l-.70703-.70703c-.19531-.19531-.51172-.19531-.70703 0s-.19531.51172 0 .70703L62.68681 16.20243zM55.20341 12.95828c.19531.19531.51171.19532.70703 0 .19531-.19531.19531-.51172 0-.70703l-.70703-.70605c-.19531-.19531-.51172-.19531-.70703 0s-.19531.51172 0 .70703L55.20341 12.95828zM52.10478 9.85965l.70605.70703c.19531.19531.51171.19532.70703 0 .19531-.19531.19531-.51172 0-.70703l-.70605-.70703c-.19531-.19531-.51172-.19531-.70703 0S51.90947 9.66434 52.10478 9.85965zM57.17802 14.22684c-.19531.19531-.19531.51172 0 .70703l.70703.70605c.19531.19531.51171.19532.70703 0 .19531-.19531.19531-.51172 0-.70703l-.70703-.70605C57.68974 14.03153 57.37334 14.03153 57.17802 14.22684zM59.85966 16.90848c-.19531.19531-.19531.51172 0 .70703l.70703.70605c.19531.19531.51171.19532.70703 0 .19531-.19531.19531-.51172 0-.70703l-.70703-.70605C60.37138 16.71317 60.05498 16.71317 59.85966 16.90848zM62.80888 19.15067c-.19531-.19531-.51172-.19531-.70703 0s-.19531.51172 0 .70703l.70703.70703c.19531.19531.51171.19532.70703 0 .19531-.19531.19531-.51172 0-.70703L62.80888 19.15067zM53.554 57.48367c-1.3457.70996-2.03809 1.95703-1.5752 2.84082.24316.46094.76172.74023 1.42188.76465.03223.00098.06543.00098.09766.00098.54492 0 1.15039-.16211 1.71777-.46094.00098 0 .00098-.00098.00195-.00098 1.27734-.68048 1.93811-1.78589 1.64063-2.65594V44.6116c0-.16895-.08496-.32617-.22656-.41797-.13867-.09277-.31738-.10742-.47363-.04004l-10.93945 4.77148c-.18164.0791-.2998.25879-.2998.45801v12.36548c-.64294-.16846-1.48645-.05133-2.30469.38062-.82715.4375-1.44336 1.09766-1.64844 1.7666-.12012.38965-.09473.76367.07422 1.08105.26953.50488.83105.76465 1.5166.76465.52637 0 1.125-.15332 1.71973-.4668 0 0 0 0 .00098-.00098 1.26062-.66791 1.92969-1.77661 1.6416-2.64752v-9.13947l9.93945-4.33441v7.94055C55.22099 56.92398 54.38506 57.04501 53.554 57.48367zM54.74736 59.74539c-.44141.23242-.92871.3623-1.30957.34375-.28906-.01074-.50391-.09668-.57324-.22949-.14746-.28223.22949-1.00293 1.15625-1.49121.4707-.24902.91113-.34668 1.25098-.34668.3291 0 .5625.09277.63574.23047C56.05595 58.52957 55.67705 59.25027 54.74736 59.74539zM43.80986 64.38992c-.92676.48926-1.73828.39551-1.88672.11621-.05176-.09668-.0293-.22559-.00098-.31738.125-.40723.58008-.86914 1.15918-1.1748.46484-.24512.90039-.34473 1.23926-.34473.31445 0 .54688.08594.64063.21973.00293.00488.00488.00977.00781.01563C45.10478 63.18777 44.72099 63.90652 43.80986 64.38992zM45.91924 52.39609v-2.68585l9.93945-4.33496v2.6864L45.91924 52.39609zM22.58232 16.52469c-1.09402.57561-2.11736 1.78413-1.56738 2.82422.5534 1.04418 2.10443.89286 3.22363.30273.00098 0 .00098 0 .00195-.00098.97771-.51774 1.95696-1.53144 1.63318-2.59558.00006-.00281.00159-.00513.00159-.00793 0-4.93404 0-8.33439 0-13.28906 0-.16895-.08496-.32617-.22559-.41797-.14063-.09277-.31934-.10645-.47363-.04102L14.28935 8.0325c-.18262.08008-.30078.25977-.30078.45898 0 4.3142 0 6.80772 0 12.26447-.63989-.16638-1.47845-.05029-2.29199.37811-1.08327.56987-2.12283 1.79067-1.56934 2.83008.55596 1.03914 2.10131.88766 3.22363.29688.00098 0 .00098 0 .00195 0 1.25446-.66461 1.92072-1.76599 1.63574-2.63214v-8.19531l9.88672-4.29749v7.00098C24.24126 15.97086 23.41069 16.09012 22.58232 16.52469zM23.77373 18.76688c-.92676.48633-1.72852.39063-1.875.11426-.2244-.42636.58857-1.17564 1.14941-1.47168.48707-.25619 1.63673-.56659 1.87598-.11719C25.15251 17.71641 24.33262 18.46994 23.77373 18.76688zM12.88506 23.37625c-.92383.48633-1.72852.39355-1.875.11719-.21721-.40518.53915-1.15193 1.15234-1.47461.53409-.28188 1.55828-.54463 1.875-.11328 0 .00098 0 .00098.00098.00195C14.17217 22.1868 13.79033 22.89774 12.88506 23.37625zM14.98857 12.34238V8.81961l9.88672-4.29883v3.52417L14.98857 12.34238z"/></svg>