<svg xmlns="http://www.w3.org/2000/svg" enable-background="new 0 0 135 135" viewBox="0 0 135 135"><path fill="#9ee6ff" d="M131.5,67.5c0,9.289978-1.9799805,18.1199951-5.5498047,26.0900269v0.0100098c-2.4301758,5.4599609-5.6201172,10.5099487-9.4101563,15.0299683C104.3450394,123.1574097,86.4891968,131.5,67.5,131.5h-0.2998047c-2.2299805-0.0100098-4.4301758-0.1400146-6.6000977-0.3699951c-0.0100098,0-0.0100098,0-0.0100098,0C28.3576317,127.6778488,3.5,100.3521042,3.5,67.5c0-35.3499756,28.6601563-64,64-64C102.8500977,3.5,131.5,32.1500244,131.5,67.5z"/><path fill="#f7b26d" d="M117.1661758,76.734024l-0.7915268-2.0555267c-0.390274-1.01371-1.52845-1.5190964-2.54216-1.1287994l-0.0001144-0.0000153c-1.0137177,0.3902969-1.519104,1.52845-1.12883,2.5421524c2.0310211,5.156868,1.8606415,5.091629,2.2691345,5.5820007L117.1661758,76.734024z"/><path fill="#fff" d="M64.6639328,36.9538918v22.7862587c0,1.8417053-1.4929962,3.3347054-3.3347054,3.3347054H21.312746c-1.8417072,0-3.3347054-1.493-3.3347054-3.3347054V36.9538918c0-6.4459782,5.2254963-11.6714745,11.6714725-11.6714745h23.3429489C59.4384384,25.2824173,64.6639328,30.5079136,64.6639328,36.9538918z"/><rect width="45.245" height="13.156" x="63.215" y="77.963" fill="#a32391"/><path fill="#b730aa" d="M67.2001953,77.960022V131.5c-28.4492836-0.1268921-52.1277771-18.759697-60.420166-43.7399902c2.0228252-4.4674988,6.1236448-7.9108582,10.630127-9.1400146C21.3960552,77.4540482,20.084734,78.1842728,67.2001953,77.960022z"/><path fill="#a32391" d="M17.4101563,78.6199951v28.710022c-4.6201172-5.7900391-8.25-12.4000244-10.630127-19.5700073C8.7460194,83.4180298,12.7744112,79.884407,17.4101563,78.6199951z"/><path fill="#fff" d="M26.6622963,78.883522c-1.0610504,8.3621521,5.2361965,15.6030731,13.2368279,16.1493301c9.1253433,0.6230392,16.467926-7.2592621,15.2355461-16.2844772c-0.2364006-1.7312622-1.7585449-2.9981918-3.5058708-2.9981918H30.188797C28.3893719,75.7501831,26.8888054,77.0984116,26.6622963,78.883522z"/><path fill="#e5f5f9" d="M39.8949051,95.0382233c-7.5778618-0.5183716-13.9818783-7.1422501-13.2884521-15.6412354c0.6296349,6.9424515,6.3128242,12.5096512,13.2884521,12.9901199c7.9034958,0.5468063,14.5807915-5.3352051,15.3098373-12.9404678C56.1876221,87.6293259,49.1102524,95.6573715,39.8949051,95.0382233z"/><path fill="#ffc27c" d="M49.9523621,71.0792618v6.5944748c0,5.1364822-4.1754456,9.311821-9.3284111,9.311821c-5.0769653,0-9.3118267-4.1380157-9.3118267-9.311821v-6.5944748H49.9523621z"/><path fill="#f7b26d" d="M32.8881493,77.6758575c0,4.9468994,3.8554726,8.8981781,8.5223465,9.2698593c-5.0487556,0.5819092-10.0973034-3.6111603-10.0973034-9.2698593v-6.5986023h18.6393604v3.8475342c-4.6927834,1.9936295-9.9859467,2.2366562-14.6623001,0.897049C34.0842133,75.4829788,32.8881493,76.4199295,32.8881493,77.6758575z"/><path fill="#ffc27c" d="M61.7616882,43.9057426V53.911396c0,11.084919-8.6211395,20.5247688-19.6991386,20.9164391c-11.6288681,0.4111481-21.1822643-8.8907089-21.1822643-20.4275894v-10.494503c0-11.2890625,9.1515942-20.4406548,20.4406567-20.4406548h0.0000916C52.610096,23.4650879,61.7616882,32.6166801,61.7616882,43.9057426z"/><path fill="#24272b" d="M34.7062531 41.4104691c-.2404709.2365265-.5637398.3823891-.9264221.3823891h-3.792469c-.7214432 0-1.3088379-.5834503-1.3088379-1.3088379 0-.7255325.5863323-1.3088379 1.3088379-1.3088379h3.792469C34.9428024 39.1751823 35.5249329 40.5917892 34.7062531 41.4104691zM54.3806534 40.4840202c0 .3626823-.1458626.6898956-.382412.9264488-.2404747.2365265-.5637436.3823891-.9264259.3823891h-3.7924652c-.7214432 0-1.3088379-.5834503-1.3088379-1.3088379 0-.3587379.1458626-.6898994.3823891-.9264259.2404976-.2365494.5637398-.382412.9264488-.382412h3.7924652C53.7932587 39.1751823 54.3806534 39.7625771 54.3806534 40.4840202z"/><path fill="#f7b26d" d="M47.4788094,63.0704803v1.6439209c0,1.5217133-1.2378807,2.7595978-2.759594,2.7595978h-6.5363007c-1.5217133,0-2.759594-1.2378845-2.759594-2.7595978v-1.6439209H47.4788094z"/><path fill="#fff" d="M51.8310966,63.9756851v0.0000038H31.3076096v-0.0000038c0-3.1679077,2.5680962-5.7360039,5.7360001-5.7360039h9.051487C49.2630005,58.2396812,51.8310966,60.8077774,51.8310966,63.9756851z"/><path fill="#e5f5f9" d="M51.8265877,63.9803276h-0.1893234c-0.6181107-2.4819221-2.8707962-4.3060112-5.5420456-4.3060112h-9.0506592c-2.7170258,0-4.9563446,1.8757515-5.5520191,4.3060112H31.303215c0-3.2382431,2.6494751-5.7412872,5.7413445-5.7412872h9.0506592C49.2648468,58.2390404,51.8265877,60.8106384,51.8265877,63.9803276z"/><path fill="#ffc27c" d="M67.4721603,49.7984772c0,3.1531525-2.5573196,5.7104683-5.7104721,5.7104683V44.0880051C64.9148407,44.0880051,67.4721603,46.6409683,67.4721603,49.7984772z"/><path fill="#f7b26d" d="M67.2210693,51.4834824c-0.7197571,2.3318062-2.8916168,4.0238533-5.4591255,4.0238533V44.0881729c0.3240776,0,0.6439705,0.0252533,0.9554367,0.0841866v5.7329674c0,2.365242,3.0010948,3.4702454,4.4722023,1.6181641C67.2001343,51.5102043,67.2106323,51.4968681,67.2210693,51.4834824z"/><path fill="#ffc27c" d="M15.1698151,49.7984772c0,3.1531525,2.5573177,5.7104683,5.7104702,5.7104683V44.0880051C17.7271328,44.0880051,15.1698151,46.6409683,15.1698151,49.7984772z"/><path fill="#f7b26d" d="M15.4209032,51.4834824c0.719758,2.3318062,2.8916178,4.0238533,5.4591284,4.0238533V44.0881729c-0.3240795,0-0.6439705,0.0252533-0.9554367,0.0841866v5.7329674c0,2.365242-3.001091,3.4702454-4.4722013,1.6181641C15.4418383,51.5102043,15.4313421,51.4968681,15.4209032,51.4834824z"/><path fill="#24272b" d="M48.4016838 47.0758171v2.4451752c0 1.6000671 1.2971153 2.8971786 2.8971825 2.8971786h.0000076c1.6000671 0 2.8971786-1.2971115 2.8971786-2.8971786v-2.4451752c0-1.6000671-1.2971115-2.8971825-2.8971786-2.8971825h-.0000076C49.6987991 44.1786346 48.4016838 45.47575 48.4016838 47.0758171zM41.1203384 55.4183159c-.5991592 0-1.0852661-.4861069-1.0852661-1.0852661v-2.5930481c0-.5991554.4861069-1.0852661 1.0852661-1.0852661.5991554 0 1.0852623.4861107 1.0852623 1.0852661v2.5930481C42.2056007 54.932209 41.7194939 55.4183159 41.1203384 55.4183159z"/><path fill="#fff" d="M53.0568314,46.9691353c0,0.56427-0.4631462,1.0273285-1.027504,1.0273285c-0.578846,0-1.0273285-0.4630585-1.0273285-1.0273285c0-0.5643578,0.4484825-1.0274162,1.0273285-1.0274162C52.5936852,45.9417191,53.0568314,46.4047775,53.0568314,46.9691353z"/><path fill="#24272b" d="M34.6274414,47.0758171v2.4451752c0,1.6000671-1.2971115,2.8971786-2.8971786,2.8971786H31.730257c-1.600069,0-2.8971825-1.2971115-2.8971825-2.8971786v-2.4451752c0-1.6000671,1.2971134-2.8971825,2.8971825-2.8971825h0.0000057C33.3303299,44.1786346,34.6274414,45.47575,34.6274414,47.0758171z"/><path fill="#fff" d="M29.9722977,46.9691353c0,0.56427,0.4631462,1.0273285,1.0275059,1.0273285c0.5788422,0,1.0273266-0.4630585,1.0273266-1.0273285c0-0.5643578-0.4484844-1.0274162-1.0273266-1.0274162C30.4354439,45.9417191,29.9722977,46.4047775,29.9722977,46.9691353z"/><path fill="#f7b26d" d="M35.3404884,35.4991913c-1.100811-0.9880867-2.2588387-0.7767067-2.4405975-0.8045959c-0.3923569,0-0.7102623-0.3179054-0.7102623-0.7102585c0-0.3923569,0.3179054-0.7102623,0.7102623-0.7102623c0.2062683,0.0335426,1.8230362-0.2386284,3.3894615,1.168045c2.9384308,2.6385803,6.9730606,2.6776428,9.9549904,0c1.5534897-1.3950577,3.2059746-1.1382065,3.3894615-1.168045c0.3923531,0,0.7102623,0.3179054,0.7102623,0.7102623c0,0.3923531-0.3179092,0.7102585-0.7102623,0.7102585c-0.1858521,0.0285149-1.3349075-0.1878738-2.4405975,0.8045959C43.6836929,38.6507263,38.8095589,38.6144104,35.3404884,35.4991913z"/><g><path fill="#f7b26d" d="M35.3404884,31.3266354c-0.2920113-0.2621861-0.3160553-0.7111855-0.0541-1.0029659c0.2621841-0.2920132,0.7114143-0.316288,1.002964-0.0541019c2.9384308,2.6385784,6.9730606,2.6776409,9.9549904,0c0.2915497-0.2621861,0.7407799-0.2379112,1.002964,0.0541019c0.2619553,0.2917805,0.2379112,0.7407799-0.0541,1.0029659C43.6836929,34.4781723,38.8095589,34.4418564,35.3404884,31.3266354z"/></g><g><path fill="#fff" d="M103.5062256,24.3652229c0,0.4152908-0.0202789,0.8205032-0.0709152,1.2257156c-0.6077576,5.2673931-5.0850677,9.3598289-10.5146255,9.3598289c-5.3687286,0-9.805542-3.9911022-10.4943542-9.1572857c-0.9345627-6.1402683,3.9467316-12.0239439,10.4943542-12.0239439C98.7655334,13.7695379,103.5062256,18.5102901,103.5062256,24.3652229z"/><path fill="#e5f5f9" d="M103.4353104,25.5909386c-0.6077576,5.2673931-5.0850677,9.3598289-10.5146255,9.3598289c-5.3687286,0-9.805542-3.9911022-10.4943542-9.1572857c0.02388-0.012846,0.4807663-0.2446518,0.506485-0.2532406l0.0101395-0.0202179l1.8841095-0.8407822l0.0304184,0.0304184C89.8762054,22.642704,97.1135941,22.4815483,103.4353104,25.5909386z"/><path fill="#fc545d" d="M125.9501953,93.6000366c-2.4301758,5.4599609-5.6201172,10.5099487-9.4101563,15.0299683C104.3450394,123.1574097,86.4891968,131.5,67.5,131.5h-0.2998047c-2.2299805-0.0100098-4.4301758-0.1400146-6.6000977-0.3699951c-0.0100098,0-0.0100098,0-0.0100098,0c0-37.8995209-0.1250572-36.2795029,0.2900391-38.5599976c1.4002075-8.1926727,8.7094116-14.6900024,17.5400391-14.6900024h29.8498535c4.9343872,0,9.4702911,2.1131134,12.4702148,5.1099854V83C125.6120529,87.673378,125.9048233,93.4999466,125.9501953,93.6000366z"/><path fill="#f14448" d="M125.9501953 93.5900269c0 0 .0097656 0 0 .0100098-2.4301758 5.4599609-5.6201172 10.5099487-9.4101563 15.0299683V79.9299927c4.692215 2.4757385 8.13591 6.8337708 9.2700195 12.6400146C125.8701172 92.9100342 125.920166 93.25 125.9501953 93.5900269zM70.1401367 79.9299927v51.5100098C69.2700195 131.4799805 68.3901367 131.5 67.5 131.5h-.2998047c-2.2299805-.0100098-4.4301758-.1400146-6.6000977-.3699951.0495186-36.4310989-.1590996-36.1474762.2800293-38.5599976C61.7172928 87.6717224 64.7871552 82.8351212 70.1401367 79.9299927z"/><path fill="#fff" d="M104.5314789,77.8850632v2.8551788c0,6.1738586-5.021698,11.1954803-11.195549,11.1954803c-6.2566681,0-11.1830215-5.0631866-11.1830215-11.1954803v-2.8551788H104.5314789z"/><path fill="#ffc27c" d="M101.0751343,63.5857925v16.9570999c0,4.274765-3.4644012,7.7391052-7.7390976,7.7391052c-4.3123474,0-7.7289658-3.4809723-7.7289658-7.7391052V63.5857925H101.0751343z"/><path fill="#f7b26d" d="M101.0751343,63.5857925v14.8703842c-3.8774872,1.7270432-8.905426,2.1655655-13.6548691,0.6685944c0.1114655,0.710762-0.5595551,4.0593643,2.2589645,6.8983231c1.1952972,1.1952972,2.7856674,2.005661,4.5684433,2.1981277c-4.4351501,0.6114578-8.6406021-2.935051-8.6406021-7.6783295V63.5857925H101.0751343z"/><path fill="#ffc27c" d="M110.8630219,35.7792625v24.0819588c0.0000076,8.4419937-5.7013168,16.1654434-13.9836121,17.799675C85.6579819,79.8750687,75.812851,71.3195496,75.812851,60.5015221V35.7792625H110.8630219z"/><path fill="#efa765" d="M93.3395844,61.9146309c-0.631279,0-1.1434402-0.5121651-1.1434402-1.1434364v-2.7320442c0-0.6312714,0.5121613-1.1434364,1.1434402-1.1434364c0.6312714,0,1.1434326,0.5121651,1.1434326,1.1434364v2.7320442C94.483017,61.4024658,93.9708557,61.9146309,93.3395844,61.9146309z"/><path d="M99.5810623,68.0634918c-1.786644,4.7627792-8.0043564,5.8231735-11.3277359,1.9666824c-0.4877853-0.5793533-0.8841934-1.2501755-1.158699-1.9666824c-0.4116669-1.0977478,0.4269257-2.2563553,1.6008835-2.2563553h9.284668C99.1541367,65.8071365,99.9925461,66.965744,99.5810623,68.0634918z"/><path fill="#ef567b" d="M96.80867,69.5805817c-1.7836151,2.0959396-5.0755768,2.1549988-6.9416504-0.0104218c0.8326263-0.9782791,2.071022-1.602684,3.465683-1.602684C94.7272263,67.9674759,95.9761734,68.5918808,96.80867,69.5805817z"/><path fill="#fff" d="M114.3885117,46.0904808c-0.024353,0.200737-0.0486679,2.9440231-0.0790787,3.1447182c-3.3936462-2.762764-5.5898895-0.7055969-8.6798477-0.7055969c-8.0960312,0-15.144577-4.4997025-18.7801056-11.1302795c-0.7219772-1.3167648-2.6389008-1.1771469-3.1955414,0.2175865c-2.0662003,5.1771469-7.4240036,11.4972763-11.1622162,11.6182899c0-0.0060883,0,0.0060883-0.0060883,0c-2.6422806-9.7347641,1.8778687-20.6522083,11.9461899-25.1575623c0.0060883,0.0060883,0.0060883,0.0182648,0.0060883,0.0243549c0-0.0060902,0-0.0182667,0.0060883-0.0304432C99.6615601,17.3074226,116.366478,29.8212643,114.3885117,46.0904808z"/><path fill="#e5f5f9" d="M101.7575989,24.0327835c-5.2361069-1.7022724-11.0112305-1.2077446-15.2916489,0.8210526c-0.0085602,0.0085602-0.0085602,0.0170689-0.0085602,0.025631c0-0.0085621,0-0.0170708-0.0085602-0.025631c-8.0300903,3.5685253-12.998291,11.8159561-12.6747589,20.217907c0.1920013,2.9737663,0.2564011,2.4458618,0.4276199,3.6433449c0.0085602,0.0256805,0.0085602,0.0598717,0.0171204,0.085556c-0.9710541,0.4300613-1.5101242,0.4021873-1.7361679,0.4361801c-2.7574997-10.6153259,2.5623856-20.9886131,11.9477158-25.1612892c0.0085678,0.0085621,0.0085678,0.0171223,0.0085678,0.0256824c0-0.0085602,0-0.0171204,0.0085602-0.0256824C89.3572235,21.7515278,95.9962006,21.4699574,101.7575989,24.0327835z"/><path fill="#ffc27c" d="M110.8713913,47.818985c-0.0018997,0-0.0035095,0.0005836-0.0054092,0.0005836V60.833065c0.0018997,0,0.0035095,0.0005836,0.0054092,0.0005836c3.5886002,0,6.5072556-2.9186554,6.5072556-6.5072556C117.3786469,50.7377892,114.4599915,47.818985,110.8713913,47.818985z"/><path fill="#f7b26d" d="M112.2089615,47.9585228c-0.7113113-0.14925-1.1996231-0.1313286-1.3430023-0.1389275v13.013485c0.2538605-0.0134735,0.6353912,0.0094833,1.3430023-0.1389885V47.9585228z"/><path fill="#ffc27c" d="M75.8111954,47.8917274c0.0018997,0,0.0035095,0.0005836,0.0054016,0.0005836v13.0134964c-0.0018921,0-0.0035019,0.0005836-0.0054016,0.0005836c-3.5886002,0-6.5072556-2.9186592-6.5072556-6.5072594S72.2225952,47.8917274,75.8111954,47.8917274z"/><path fill="#f7b26d" d="M74.4736023,48.0312729c0.7113113-0.1492462,1.1996231-0.1313248,1.3429947-0.1389236v13.0134811c-0.001915,0-0.0035172,0.0005569-0.0054398,0.0005569c-0.4585037,0-0.905571-0.0489044-1.3375549-0.1395416V48.0312729z"/><path fill="#fff" d="M88.8699417,44.5358238c0,0.5166245-0.4152908,0.9319153-0.9319153,0.9319153H81.039711c-0.5166245,0-0.9319153-0.4152908-0.9319153-0.9319153s0.4152908-0.9319763,0.9319153-0.9319763h6.8983154C88.4546509,43.6038475,88.8699417,44.0191994,88.8699417,44.5358238z"/><path fill="#24272b" d="M97.2923813,50.5787277l-0.4363556,1.7977867l-0.6426926-0.1557198c-3.2949219-0.7959213-5.9882889,0.1180496-6.2614441,0.1557198l-0.7231674-1.7977867l0.6460495-0.1556969c2.24617-0.5433273,4.5254288-0.5433273,6.7716064,0L97.2923813,50.5787277z"/><circle cx="101.781" cy="54.326" r="5.216" fill="#fff" transform="rotate(-79.099 101.78 54.326)"/><circle cx="84.856" cy="54.326" r="5.216" fill="#fff" transform="rotate(-79.099 84.856 54.326)"/><path fill="#24272b" d="M84.8560791 47.2067757c-3.9317093 0-7.1195221 3.1878586-7.1195221 7.1195259 0 3.9316788 3.1878128 7.1195335 7.1195221 7.1195335 3.9316559 0 7.1195221-3.1878548 7.1195221-7.1195335C91.9756012 50.3946342 88.787735 47.2067757 84.8560791 47.2067757zM84.8560791 59.54216c-2.8803635 0-5.2158737-2.3354836-5.2158737-5.2158585 0-2.8803673 2.3355103-5.2158508 5.2158737-5.2158508s5.2158508 2.3354836 5.2158508 5.2158508C90.0719299 57.2066765 87.7364426 59.54216 84.8560791 59.54216zM101.780838 47.2067757c-3.9317093 0-7.1195297 3.1878586-7.1195297 7.1195259 0 3.9316788 3.1878204 7.1195335 7.1195297 7.1195335 3.9316483 0 7.1195221-3.1878548 7.1195221-7.1195335C108.9003601 50.3946342 105.7124863 47.2067757 101.780838 47.2067757zM101.780838 59.54216c-2.8803711 0-5.2158813-2.3354836-5.2158813-5.2158585 0-2.8803673 2.3355103-5.2158508 5.2158813-5.2158508 2.8803635 0 5.2158432 2.3354836 5.2158432 5.2158508C106.9966812 57.2066765 104.6612015 59.54216 101.780838 59.54216z"/><g><path fill="#24272b" d="M104.6575546,53.6088333c0,1.077179-0.8726196,1.9497986-1.9498138,1.9497986c-1.0771561,0-1.9524002-0.8726196-1.9524002-1.9497986c0-1.0771904,0.8752441-1.94981,1.9524002-1.94981C103.784935,51.6590233,104.6575546,52.5316429,104.6575546,53.6088333z"/><path fill="#fff" d="M104.2091599,52.9983292c0,0.3963776-0.321106,0.7174873-0.7174911,0.7174873c-0.3963699,0-0.7184448-0.3211098-0.7184448-0.7174873c0-0.3963852,0.3220749-0.7174911,0.7184448-0.7174911C103.8880539,52.280838,104.2091599,52.601944,104.2091599,52.9983292z"/></g><g><path fill="#24272b" d="M88.3910904,53.6088333c0,1.077179-0.8726273,1.9497986-1.9498138,1.9497986c-1.0771637,0-1.9524078-0.8726196-1.9524078-1.9497986c0-1.0771904,0.8752441-1.94981,1.9524078-1.94981C87.5184631,51.6590233,88.3910904,52.5316429,88.3910904,53.6088333z"/><path fill="#fff" d="M87.9426956,52.9983292c0,0.3963776-0.321106,0.7174873-0.7174911,0.7174873c-0.3963776,0-0.7184525-0.3211098-0.7184525-0.7174873c0-0.3963852,0.3220749-0.7174911,0.7184525-0.7174911C87.6215897,52.280838,87.9426956,52.601944,87.9426956,52.9983292z"/></g></g><g><path fill="#ffc27c" d="M118.781929,79.2205505l-3.4537048,4.1463547c-0.6952057,0.8346329-1.9354172,0.9476624-2.7700806,0.2524567l-0.0000381-0.0000381c-0.834671-0.6952057-0.9477234-1.9353867-0.2525177-2.7700272l3.4537048-4.1463547c0.6952057-0.8346329,1.9354172-0.9476624,2.7700806-0.2524567l0.0000381,0.0000381C119.3640823,77.1457291,119.4771347,78.38591,118.781929,79.2205505z"/><path fill="#ffc27c" d="M122.4221115,80.9961929l-4.0715256,4.888092c-0.6952057,0.8346329-1.9354172,0.9476624-2.7700806,0.2524567l-0.0000381-0.0000381c-0.834671-0.6952057-0.9477234-1.9353867-0.2525177-2.7700272l4.0715332-4.8880844c0.6952057-0.8346329,1.9354172-0.9476624,2.7700806-0.2524567l0.0000381,0.0000305C123.0042725,78.9213791,123.1173248,80.1615601,122.4221115,80.9961929z"/><path fill="#f7b26d" d="M117.6140823,86.4297104c-1.8965149,0.8235703-3.5948563-1.4912796-2.2873688-3.0609894l4.0745468-4.891716c0.4911804-0.5896912,1.2482376-0.8197098,1.94841-0.6573792c-0.7556534,0.3242493-0.6301193,0.5358124-4.8061218,5.4382172C115.595993,84.3954315,116.2083359,86.1102982,117.6140823,86.4297104z"/><path fill="#ffc27c" d="M124.8266525,84.2553101l-3.4537048,4.1463547c-0.6952057,0.8346329-1.9354172,0.9476624-2.7700806,0.2524567l-0.0000381-0.0000381c-0.834671-0.6952057-0.9477234-1.9353867-0.2525101-2.7700272l3.4536972-4.1463547c0.6952133-0.8346329,1.9354172-0.9476624,2.7700882-0.252449l0.0000381,0.0000305C125.4088058,82.1804886,125.5218582,83.4206696,124.8266525,84.2553101z"/><path fill="#f7b26d" d="M120.6368103 88.9473953c-1.8959274.8229752-3.5954742-1.4905472-2.2873688-3.060997l3.4567261-4.1499863c.4911728-.5896835 1.2518539-.8166809 1.9484024-.6573715-.7533798.3232727-.6972046.612793-4.1882935 4.6964874C118.6177139 86.9143219 119.2284317 88.6271133 120.6368103 88.9473953zM114.5982361 83.9115067c-1.9118118.8301697-3.6012421-1.4911652-2.2941589-3.0603943l3.4567261-4.1499863c.4911804-.5896835 1.2518539-.8166885 1.94841-.6573715-.7533798.3232727-.6972046.612793-4.1883011 4.6964798C112.5693207 81.8826752 113.1883087 83.6010284 114.5982361 83.9115067z"/></g><g><path fill="#fff" d="M74.4702148 87.960022v18.3599854c0 .75-.6101074 1.3599854-1.3601074 1.3599854S71.75 107.0700073 71.75 106.3200073V87.960022c0-.7600098.6101074-1.3699951 1.3601074-1.3699951S74.4702148 87.2000122 74.4702148 87.960022zM74.4702148 111.710022v1.9299927c0 .7600098-.6101074 1.3699951-1.3601074 1.3699951S71.75 114.4000244 71.75 113.6400146v-1.9299927c0-.75.6101074-1.3599854 1.3601074-1.3599854S74.4702148 110.960022 74.4702148 111.710022z" opacity=".3"/></g><g><path fill="#fff" d="M22.2403927 80.766983v18.3599854c0 .75-.6101074 1.3599854-1.3601074 1.3599854s-1.3601074-.6099854-1.3601074-1.3599854V80.766983c0-.7600098.6101074-1.3699951 1.3601074-1.3699951S22.2403927 80.0069733 22.2403927 80.766983zM22.2403927 104.516983v1.9299927c0 .7600098-.6101074 1.3699951-1.3601074 1.3699951s-1.3601074-.6099854-1.3601074-1.3699951v-1.9299927c0-.75.6101074-1.3599854 1.3601074-1.3599854S22.2403927 103.766983 22.2403927 104.516983z" opacity=".3"/></g></svg>