<svg id="SvgjsSvg3433" width="288" height="288" xmlns="http://www.w3.org/2000/svg" version="1.1" xmlns:xlink="http://www.w3.org/1999/xlink" xmlns:svgjs="http://svgjs.com/svgjs"><circle id="SvgjsCircle3460" r="144" cx="144" cy="144" transform="matrix(0.7916,0,0,0.7916,30.009600000000006,30.009600000000006)" fill="#87ddfd"></circle><defs id="SvgjsDefs3434"></defs><g id="SvgjsG3435" transform="matrix(0.85,0,0,0.85,21.600302124023443,21.600249481201175)"><svg xmlns="http://www.w3.org/2000/svg" data-name="Avatar Flat" viewBox="0 0 128 128" width="288" height="288"><path fill="#ffc440" d="M103.174,110.537c-2.185-3.426-7.9-9.341-18.683-15.049-5.293-2.8-10.129-2.328-10.854-6.535H54.363c-.725,4.207-5.561,3.733-10.854,6.535-10.784,5.708-16.5,11.623-18.683,15.049-2.55,4-.189,6.168,3.461,8.148C32.052,120.724,45.625,125,64,125s31.948-4.276,35.713-6.315C103.363,116.705,105.724,114.536,103.174,110.537Z" class="colorffc440 svgShape"></path><path fill="#ea3d5b" d="M82.4,123.41c-.63-2.91-4.81-10.77-8.41-14.83-.74-6.955-3.1-12.379-5.03-17.92-1.56.4-22.85-7.38-23.86-8.44-4.36,2.02-7.28,7.32-8.26,11.56a5.322,5.322,0,0,0,1.06,4.97c2.81,3.26,9.61,4.18,13.31,6.6,2.248,3.775,3.248,5.233,8.64,11.22,1.14,1.23,3.02,6.8,3.24,8.42.3.01.6.01.91.01a114,114,0,0,0,18.42-1.47Z" class="colorea3d5b svgShape"></path><path fill="#f24966" d="M82.77,82.22c4.63,2.84,9.27,11.56,8.21,15.9-.03.13-.29.38-.73.72-2.11,1.6-8.53,5.35-16.26,9.74-4.47,2.55-9.38,5.31-14.14,7.99-3.91,1.22-10.67-6.27-8.64-11.22,2.83-3.37,9.1-8.833,17.04-14.725C72.528,87.45,81.75,83.28,82.77,82.22Z" class="colorf24966 svgShape"></path><path fill="#d6294e" d="M68.96 90.66a.7.7 0 0 1-.22.2c-7.94 5.05-14.52 10.92-17.52 14.49h-.01a13.635 13.635 0 0 0-1.7-.93.874.874 0 0 1 .18-.36c2.92-3.47 9.07-9.01 16.54-13.96l1.44-.93a.994.994 0 0 1 1.38.31A.977.977 0 0 1 68.96 90.66zM74.92 109.7a.979.979 0 0 1-.5.91c-3.99 2.28-8.33 4.72-12.6 7.13l-.96.54a7.27 7.27 0 0 0-1.01-1.71l-.01-.01 1-.57c4.27-2.4 8.6-4.84 12.59-7.11a1.026 1.026 0 0 1 .72-.11.994.994 0 0 1 .64.48A.933.933 0 0 1 74.92 109.7z" class="colord6294e svgShape"></path><path fill="#f4e9d0" d="M45.1,82.22c-6.98-2.02-17.59-4.7-18.54-14.3-4.96-2-4.86-8.42-3.1-11.78-3.17-1.04-4.92-8.35-1-11.8-2.14-4.42-2.52-15.15,5.66-17.37l.18-.01c-.84-6.04,3.76-13.91,13.51-13.63.74-8.76,18.38-14.95,26.5-5.84,4.44-4.43,16.84-2.46,17.96,5.84,9.61-.17,14.13,7.63,13.3,13.63l.18.01c9.07,2.46,8.92,13.31,6.21,16.47,3.31,4.66,1.54,11.14-.57,13.75l.08.07c1.85,2.9,1.97,11.25-4.8,13.53-2.56,7.3-11.67,9.63-17.9,11.43C66.25,85.083,60.452,85.083,45.1,82.22Z" class="colorf4e9d0 svgShape"></path><path fill="#ffb497" d="M89.57,52.66c-4.46-2.18-5.2-7.75-4.26-10.42-6.35,2.19-12.68-3.29-12.26-7.18-3.97,4.94-13.86,6.38-19.36.07l-.01.01c-.36,4.45-8.02,7.51-10.5,6.35,1.53,4.95-1.63,8.75-5.24,10.46l.36.71a8.509,8.509,0,0,1-1.05,10.02,46.173,46.173,0,0,0,1.32,8.36A26.528,26.528,0,0,0,45.1,82.22a27.59,27.59,0,0,0,3.51,3.08c3.79,2.82,8.73,6,15.32,6a20.192,20.192,0,0,0,5.03-.64,29.769,29.769,0,0,0,10.3-5.36,28.3,28.3,0,0,0,3.51-3.08A26.639,26.639,0,0,0,89.3,71.04a46.173,46.173,0,0,0,1.32-8.36A8.493,8.493,0,0,1,89.57,52.66Z" class="colorffb497 svgShape"></path><circle cx="74.565" cy="58.372" r="7.15" fill="#ffd5c5" class="colorffd5c5 svgShape"></circle><circle cx="53.302" cy="58.372" r="7.15" fill="#ffd5c5" class="colorffd5c5 svgShape"></circle><rect width="5.394" height="6.886" x="72.764" y="52.663" fill="#473049" rx="2.697" ry="2.697" class="color473049 svgShape"></rect><path fill="#473049" d="M79.55,54.27a1,1,0,0,1-.811-.414,4.572,4.572,0,0,0-5.646-.8,1,1,0,0,1-1.053-1.7,6.553,6.553,0,0,1,8.318,1.327,1,1,0,0,1-.808,1.587Z" class="color473049 svgShape"></path><path fill="#f4e9d0" d="M70.8,46.838a8.011,8.011,0,0,1,3.077-.736,16.362,16.362,0,0,1,3.183.046,18.767,18.767,0,0,1,3.127.654,10.635,10.635,0,0,1,2.951,1.371.688.688,0,0,1-.656,1.2l-.073-.03a16.561,16.561,0,0,0-2.681-.839,17.62,17.62,0,0,0-2.84-.4c-.958-.035-1.916-.052-2.877.007a18.464,18.464,0,0,1-2.931.075l-.035,0a.712.712,0,0,1-.245-1.347Z" class="colorf4e9d0 svgShape"></path><rect width="5.394" height="6.886" x="49.71" y="52.663" fill="#473049" rx="2.697" ry="2.697" transform="rotate(-180 52.407 56.106)" class="color473049 svgShape"></rect><path fill="#473049" d="M48.317,54.27a1,1,0,0,1-.808-1.587,6.554,6.554,0,0,1,8.318-1.327,1,1,0,0,1-1.053,1.7,4.569,4.569,0,0,0-5.646.8A1,1,0,0,1,48.317,54.27Z" class="color473049 svgShape"></path><path fill="#f4e9d0" d="M56.792,48.189a18.464,18.464,0,0,1-2.931-.075c-.962-.059-1.919-.042-2.877-.007a17.62,17.62,0,0,0-2.84.4,16.53,16.53,0,0,0-2.681.839l-.074.03a.688.688,0,0,1-.656-1.2A10.648,10.648,0,0,1,47.684,46.8a18.788,18.788,0,0,1,3.127-.654A16.371,16.371,0,0,1,54,46.1a8.006,8.006,0,0,1,3.076.736.712.712,0,0,1-.243,1.347Z" class="colorf4e9d0 svgShape"></path><path fill="#ff7364" d="M63.937,73.2h-.023c-1.474,0-4.052-.209-4.754-1.574a1,1,0,1,1,1.779-.914,6.757,6.757,0,0,0,2.978.488h.02a6.035,6.035,0,0,0,3.052-.547.967.967,0,0,1,1.329-.4,1.027,1.027,0,0,1,.41,1.376C68.021,73,65.435,73.2,63.937,73.2Z" class="colorff7364 svgShape"></path><path fill="#e2c7a3" d="M88.77 42.54a11.42 11.42 0 0 1-3.15 1.72c-.04.01-.32.08-.66.15a6.894 6.894 0 0 1 .35-2.17.076.076 0 0 1-.04.01 9.119 9.119 0 0 0 2.28-1.3 1 1 0 0 1 1.4.19A.991.991 0 0 1 88.77 42.54zM95.28 54.28a1.007 1.007 0 0 1-.92 1.08c-.38.03-.76.04-1.12.04a10.651 10.651 0 0 1-4.43-.88 9.159 9.159 0 0 1 .76-1.85 9.278 9.278 0 0 0 4.64.69A1.009 1.009 0 0 1 95.28 54.28zM53.68 35.14a4.631 4.631 0 0 1-.72 2.07c-.52-.55-1.38-1.48-1.62-1.83a1 1 0 1 1 1.64-1.14A8.519 8.519 0 0 0 53.68 35.14zM76.35 32.08a8.321 8.321 0 0 1-1.85 4.37 9.465 9.465 0 0 1-.95 1.04 4.537 4.537 0 0 1-.5-2.43 6.419 6.419 0 0 0 1.32-3.19 1.007 1.007 0 0 1 1.1-.89A.991.991 0 0 1 76.35 32.08zM45.14 41.71a3.909 3.909 0 0 1-1.95-.22h-.01a9.309 9.309 0 0 0-.62-1.47 1 1 0 0 1 1.78-.92 12.428 12.428 0 0 1 .82 1.98A.966.966 0 0 1 45.14 41.71zM38.81 53.76a10.664 10.664 0 0 1-4.38 1.05 1 1 0 0 1 0-2 8.7 8.7 0 0 0 3.52-.85l.35.7A9.761 9.761 0 0 1 38.81 53.76zM101.5 27.6a9.379 9.379 0 0 1-1.52 3.57 1 1 0 0 1-.82.41.995.995 0 0 1-.8-1.58 7.328 7.328 0 0 0 1.22-3.04l.17.01A10.918 10.918 0 0 1 101.5 27.6zM86.27 13.33a18.633 18.633 0 0 0-3.01.36.68.68 0 0 1-.2.02 1 1 0 0 1-.19-1.98 20.551 20.551 0 0 1 2.88-.38A7.9 7.9 0 0 1 86.27 13.33zM106.25 59.18a3.87 3.87 0 0 1-1.15.8 1.058 1.058 0 0 1-.38.07 1 1 0 0 1-.39-1.92 2.428 2.428 0 0 0 .87-.75.567.567 0 0 1 .2-.18l.07.06A6.568 6.568 0 0 1 106.25 59.18zM106.99 41.55a5.818 5.818 0 0 1-1.03 1.89 7.962 7.962 0 0 0-1.34-1.39 1 1 0 0 1 1.29-1.54A11.909 11.909 0 0 1 106.99 41.55zM71.29 10.1a1.009 1.009 0 0 1-.5.13 1 1 0 0 1-.87-.51 12.278 12.278 0 0 0-1.56-2.17c-.02-.02-.03-.04-.05-.06a6.55 6.55 0 0 1 1.63-1.18 14.011 14.011 0 0 1 1.72 2.42A1.01 1.01 0 0 1 71.29 10.1zM29.31 31.56a.988.988 0 0 1-.59.19 1 1 0 0 1-.81-.41 9.34 9.34 0 0 1-1.55-3.7 8.934 8.934 0 0 1 1.76-.67l.15-.01a7.467 7.467 0 0 0 1.26 3.21A.985.985 0 0 1 29.31 31.56zM45.98 12.91a1 1 0 0 1-.98.81 1.355 1.355 0 0 1-.2-.02 19.676 19.676 0 0 0-3.18-.37h.19a6.983 6.983 0 0 1 .46-1.97 19.838 19.838 0 0 1 2.92.38A1 1 0 0 1 45.98 12.91zM103.28 68.18c-.04.46-.11.91-.19 1.34a8.178 8.178 0 0 1-2.42 1.27.737.737 0 0 1 .04-.14 10.455 10.455 0 0 0 .58-2.66.993.993 0 0 1 1.09-.9A1 1 0 0 1 103.28 68.18zM29.94 69.48a1 1 0 0 1-1 .95h-.05a10.347 10.347 0 0 1-1.9-.28v-.01a11.8 11.8 0 0 1-.43-2.22 7.6 7.6 0 0 0 2.44.51A1 1 0 0 1 29.94 69.48zM24.43 54.79a4.177 4.177 0 0 0-.96 1.28.209.209 0 0 1-.04.06 3.6 3.6 0 0 1-1.61-1.21 5.67 5.67 0 0 1 1.34-1.68 1 1 0 0 1 1.27 1.55zM23.15 47.05a1.033 1.033 0 0 1-.66.24.963.963 0 0 1-.75-.34 5.126 5.126 0 0 1-.63-.9 6.054 6.054 0 0 1 1.32-1.68.864.864 0 0 1 .21.29 4.458 4.458 0 0 0 .6.98A1 1 0 0 1 23.15 47.05zM45.148 24.312a1 1 0 0 1-1-.931 8.33 8.33 0 0 1 4.683-7.9c3.124-1.7 6.762-1.69 9.054.026a1 1 0 0 1-1.2 1.6c-1.651-1.237-4.485-1.182-6.9.129a6.384 6.384 0 0 0-3.644 6.011 1 1 0 0 1-.929 1.067zM29.05 50.253a1 1 0 0 1-.822-.429 6.363 6.363 0 0 1-.03-7.03c1.384-2.334 3.79-3.748 5.978-3.506a1 1 0 1 1-.215 1.988c-1.424-.158-3.067.893-4.043 2.537a4.417 4.417 0 0 0-.047 4.868 1 1 0 0 1-.821 1.572zM96.67 38.493a.929.929 0 0 1-.18-.017 1 1 0 0 1-.8-1.163c.369-2.027-.944-4.538-3.193-6.106a6.388 6.388 0 0 0-7.015-.574 1 1 0 1 1-1.018-1.722 8.332 8.332 0 0 1 9.176.655c2.916 2.032 4.53 5.29 4.017 8.106A1 1 0 0 1 96.67 38.493zM92.84 64.76a1 1 0 0 1-.98.81 1.225 1.225 0 0 1-.19-.02 3.934 3.934 0 0 1-1.27-.51c.1-.78.17-1.58.22-2.36a3.221 3.221 0 0 0 1.43.91A1 1 0 0 1 92.84 64.76zM37.47 65.09v.01a4.122 4.122 0 0 1-1.39.59 1.275 1.275 0 0 1-.19.01 1 1 0 0 1-.19-1.98 3.294 3.294 0 0 0 1.51-.98l.04-.04C37.3 63.49 37.37 64.3 37.47 65.09z" class="colore2c7a3 svgShape"></path><path fill="#ff7364" d="M63.97 66.12c-.022 0-2.16-.016-2.16-1.41a1 1 0 0 1 1.752-.659 1.534 1.534 0 0 0 .8 0 1 1 0 0 1 1.754.656C66.12 66.1 63.991 66.12 63.97 66.12zm-.16-1.412zm.31 0zM71.12 72.69a1 1 0 0 1-1-1 2.92 2.92 0 0 0-1.1-2.126 1 1 0 1 1 1.162-1.628A4.919 4.919 0 0 1 72.12 71.69 1 1 0 0 1 71.12 72.69z" class="colorff7364 svgShape"></path><path fill="#ea3d5b" d="M74.565 66.521a8.15 8.15 0 1 1 8.15-8.149A8.159 8.159 0 0 1 74.565 66.521zm0-14.3a6.15 6.15 0 1 0 6.15 6.15A6.156 6.156 0 0 0 74.565 52.222zM53.3 66.521a8.15 8.15 0 1 1 8.15-8.149A8.16 8.16 0 0 1 53.3 66.521zm0-14.3a6.15 6.15 0 1 0 6.15 6.15A6.156 6.156 0 0 0 53.3 52.222z" class="colorea3d5b svgShape"></path><path fill="#ea3d5b" d="M67.526,58.109a.993.993,0,0,1-.307-.048,11.5,11.5,0,0,0-6.575,0,1,1,0,0,1-.606-1.907,13.419,13.419,0,0,1,7.8,0,1,1,0,0,1-.308,1.951Z" class="colorea3d5b svgShape"></path></svg></g></svg>