<svg xmlns="http://www.w3.org/2000/svg" data-name="Layer 1" viewBox="0 0 168 168"><path fill="#0bceb2" d="M118.15387 156h-8.30774a2.00641 2.00641 0 0 0 0 4h8.30774a2.00641 2.00641 0 0 0 0-4zM58.15387 156H49.84613a2.00641 2.00641 0 0 0 0 4h8.30774a2.00641 2.00641 0 0 0 0-4zM104 156H64a2 2 0 0 0 0 4H79.94v2H72a2 2 0 0 0 0 4H97a2 2 0 0 0 0-4H88.06v-2H104a2 2 0 0 0 0-4zM97 64H71a2 2 0 0 0 0 4H97a2 2 0 0 0 0-4z"/><path fill="#2d4356" d="M122 133h8a2 2 0 0 0 0-4h-6v-2.15039h6a2.0001 2.0001 0 0 0 2-2V117a2.0001 2.0001 0 0 0-2-2h-8a2 2 0 0 0 0 4h6v3.84961h-6a2.0001 2.0001 0 0 0-2 2V131A2.0001 2.0001 0 0 0 122 133zM38.1665 129.104a2 2 0 0 0 0 4h7.667a2.0001 2.0001 0 0 0 2-2V116.896a2.0001 2.0001 0 0 0-2-2h-7.667a2 2 0 0 0 0 4h5.667v3.208h-5a2 2 0 0 0 0 4h5v3zM40.10645 53.35645L37.9707 59.63916H31a2 2 0 0 0-1.14111 3.64258l5.561 3.8623-2.11182 6.2124a1.99982 1.99982 0 0 0 3.03418 2.28613L42 71.71387l5.65771 3.92871a1.99982 1.99982 0 0 0 3.03418-2.28613L48.58008 67.144l5.561-3.8623A2 2 0 0 0 53 59.63916H46.0293l-2.13574-6.28271a1.99989 1.99989 0 0 0-3.78711 0zm4.49023 10.28271h2.01758l-1.55371 1.0791a2 2 0 0 0-.75244 2.28613l.6416 1.88818-1.80908-1.25635a1.99872 1.99872 0 0 0-2.28125 0l-1.80908 1.25635.6416-1.88818a2 2 0 0 0-.75244-2.28613l-1.55371-1.0791h2.01758a1.99974 1.99974 0 0 0 1.89355-1.35645L42 60.21436l.70313 2.06836A1.99974 1.99974 0 0 0 44.59668 63.63916zM25.23975 37.8667l-1.71289 5.543a1.99974 1.99974 0 0 0 3.12451 2.17969L31 42.26758l4.34863 3.32178a1.99974 1.99974 0 0 0 3.12451-2.17969l-1.71289-5.543 4.45361-3.40186A2 2 0 0 0 40 30.87549H34.59961l-1.689-5.46582a1.99966 1.99966 0 0 0-3.82129 0l-1.689 5.46582H22a2 2 0 0 0-1.21387 3.58936zm3.63574-2.99121a1.99943 1.99943 0 0 0 1.91064-1.40967L31 32.77441l.21387.69141a1.99943 1.99943 0 0 0 1.91064 1.40967h.9624l-.86328.65967a1.99947 1.99947 0 0 0-.69678 2.18018l.27734.897-.59033-.45068a1.99942 1.99942 0 0 0-2.42773 0l-.59033.45068.27734-.897a1.99947 1.99947 0 0 0-.69678-2.18018l-.86328-.65967zM113.85889 63.28174l5.561 3.8623-2.11182 6.2124a1.99982 1.99982 0 0 0 3.03418 2.28613L126 71.71387l5.65771 3.92871a1.99982 1.99982 0 0 0 3.03418-2.28613l-2.11182-6.2124 5.561-3.8623A2 2 0 0 0 137 59.63916h-6.9707l-2.13574-6.28271a1.99989 1.99989 0 0 0-3.78711 0l-2.13574 6.28271H115a2 2 0 0 0-1.14111 3.64258zm9.54443.35742a1.99974 1.99974 0 0 0 1.89355-1.35645L126 60.21436l.70313 2.06836a1.99974 1.99974 0 0 0 1.89355 1.35645h2.01758l-1.55371 1.0791a2 2 0 0 0-.75244 2.28613l.6416 1.88818-1.80908-1.25635a1.99872 1.99872 0 0 0-2.28125 0l-1.80908 1.25635.6416-1.88818a2 2 0 0 0-.75244-2.28613l-1.55371-1.0791zM131.23975 37.8667l-1.71289 5.543a1.99974 1.99974 0 0 0 3.12451 2.17969L137 42.26758l4.34863 3.32178a1.99974 1.99974 0 0 0 3.12451-2.17969l-1.71289-5.543 4.45361-3.40186A2 2 0 0 0 146 30.87549h-5.40039l-1.689-5.46582a1.99966 1.99966 0 0 0-3.82129 0l-1.689 5.46582H128a2 2 0 0 0-1.21387 3.58936zm3.63574-2.99121a1.99943 1.99943 0 0 0 1.91064-1.40967L137 32.77441l.21387.69141a1.99943 1.99943 0 0 0 1.91064 1.40967h.9624l-.86328.65967a1.99947 1.99947 0 0 0-.69678 2.18018l.27734.897-.59033-.45068a1.99942 1.99942 0 0 0-2.42773 0l-.59033.45068.27734-.897a1.99947 1.99947 0 0 0-.69678-2.18018l-.86328-.65967zM99.42761 96.93768H96.91339a.25014.25014 0 0 1-.23889-.17621l-.769-2.48853a.25.25 0 0 0-.47772 0l-.769 2.48853a.25.25 0 0 1-.23889.17621H91.90576a.25.25 0 0 0-.15179.44867l2.0553 1.57007a.25007.25007 0 0 1 .0871.27246l-.77991 2.5238a.25.25 0 0 0 .39063.27246l2.00781-1.53381a.2499.2499 0 0 1 .30353 0l2.00787 1.53381a.25.25 0 0 0 .39063-.27246l-.77991-2.5238a.25.25 0 0 1 .0871-.27246l2.05524-1.57007A.25.25 0 0 0 99.42761 96.93768zM70.89636 99.22888l-.77991 2.5238a.25.25 0 0 0 .39063.27246l2.00781-1.53381a.2499.2499 0 0 1 .30353 0l2.00787 1.53381a.25.25 0 0 0 .39063-.27246l-.77991-2.5238a.25.25 0 0 1 .0871-.27246l2.05524-1.57007a.25.25 0 0 0-.15173-.44867H73.91339a.25014.25014 0 0 1-.23889-.17621l-.769-2.48853a.25.25 0 0 0-.47772 0l-.769 2.48853a.25.25 0 0 1-.23889.17621H68.90576a.25.25 0 0 0-.15179.44867l2.0553 1.57007A.25007.25007 0 0 1 70.89636 99.22888z"/><path fill="#0bceb2" d="M82.14258 95.03973a.25006.25006 0 0 1 .0871.27252L81.44977 97.836a.25.25 0 0 0 .39063.27252l2.00781-1.53387a.25.25 0 0 1 .30359 0l2.00781 1.53387a.25.25 0 0 0 .39063-.27252l-.77991-2.52374a.25006.25006 0 0 1 .0871-.27252l2.0553-1.57007a.25.25 0 0 0-.15179-.44867H85.2467a.25.25 0 0 1-.23883-.17615l-.769-2.48859a.25.25 0 0 0-.47766 0l-.769 2.48859a.25.25 0 0 1-.23883.17615H80.23907a.25.25 0 0 0-.15179.44867zM77 128a2 2 0 0 0 0 4H91a2 2 0 0 0 0-4zM96 136H72a2 2 0 0 0 0 4H96a2 2 0 0 0 0-4z"/><path fill="#2d4356" d="M53 137H31a2 2 0 0 0 0 4H53a2 2 0 0 0 0-4zM137 137H115a2 2 0 0 0 0 4h22a2 2 0 0 0 0-4zM76.46338 110.28027a2.001 2.001 0 0 0 2.81689.25635L82 108.27V120H78a2 2 0 0 0 0 4h5.78955c.03607 0 .06964-.00873.10522-.01062.03558.00189.06915.01062.10522.01062s.06964-.00873.10522-.01062c.03558.00189.06915.01062.10522.01062H90a2 2 0 0 0 0-4H86V104a2.00021 2.00021 0 0 0-3.28027-1.53662l-6 5A2.00017 2.00017 0 0 0 76.46338 110.28027zM67.00482 43.9104l2.55475 11.95093A4.02419 4.02419 0 0 0 73.499 59H94.5a4.02508 4.02508 0 0 0 3.93994-3.13965l2.54919-11.949a6.01048 6.01048 0 1 0-6.10675-2.79517 4.50155 4.50155 0 0 1-3.35114.78717c-1.67328-.47327-3.18549-2.91644-4.26385-6.87769a6 6 0 1 0-6.53357.00073c-1.1264 3.91937-2.67255 6.33594-4.35883 6.80127a4.43041 4.43041 0 0 1-3.2467-.72913 5.9965 5.9965 0 1 0-6.12347 2.81189zM100 36a2 2 0 1 1-2 2A2.002 2.002 0 0 1 100 36zM84 28a2 2 0 1 1-2 2A2.002 2.002 0 0 1 84 28zM77.438 45.68359c2.83643-.78223 4.98926-3.30713 6.5498-7.69727 1.50732 4.41943 3.62939 6.9668 6.45459 7.76611a6.64728 6.64728 0 0 0 1.81641.251 9.16511 9.16511 0 0 0 4.46307-1.31989L94.5 55l-21.02881.02588-2.219-10.379A8.13406 8.13406 0 0 0 77.438 45.68359zM68 36a2 2 0 1 1-2 2A2.002 2.002 0 0 1 68 36z"/><circle cx="2" cy="150" r="2" fill="#2d4356"/><path fill="#2d4356" d="M11 148H8a2 2 0 0 0 0 4h3a2 2 0 0 0 0-4zM160 148h-3a2 2 0 0 0 0 4h3a2 2 0 0 0 0-4z"/><circle cx="166" cy="150" r="2" fill="#2d4356"/><path fill="#2d4356" d="M150.72131 148H148V104a2.0001 2.0001 0 0 0-2-2H108V86h2a2.0001 2.0001 0 0 0 2-2V76a4.00458 4.00458 0 0 0-4-4H60a4.00458 4.00458 0 0 0-4 4v8a2.0001 2.0001 0 0 0 2 2h2v16H22a2.0001 2.0001 0 0 0-2 2v44H17.27869a2.017 2.017 0 1 0 0 4H150.72131a2.017 2.017 0 1 0 0-4zM60 76h48v6H60zM24 148V106H60v42zm40 0V86h40v62zm44 0V106h36v42zM68.30471 8a3 3 0 1 0-3-3A3.00344 3.00344 0 0 0 68.30471 8zm0-4.5a1.5 1.5 0 1 1-1.5 1.5A1.50148 1.50148 0 0 1 68.30471 3.5zM4.30471 26a2 2 0 1 0 2 2A2.00229 2.00229 0 0 0 4.30471 26zm0 3a1 1 0 1 1 1-1A1.001 1.001 0 0 1 4.30471 29zM20.30471 4a2 2 0 1 0 2 2A2.00229 2.00229 0 0 0 20.30471 4zm0 3a1 1 0 1 1 1-1A1.001 1.001 0 0 1 20.30471 7zM164.30471 28a2 2 0 1 0 2 2A2.00229 2.00229 0 0 0 164.30471 28zm0 3a1 1 0 1 1 1-1A1.001 1.001 0 0 1 164.30471 31zM50.30471 17a2 2 0 1 0-2 2A2.00229 2.00229 0 0 0 50.30471 17zm-3 0a1 1 0 1 1 1 1A1.001 1.001 0 0 1 47.30471 17z"/><polygon fill="#0bceb2" points="134.888 5.011 136.375 3.056 135.436 2.524 134.481 4.714 134.45 4.714 133.48 2.539 132.525 3.087 133.996 4.996 133.996 5.027 131.695 4.73 131.695 5.794 134.011 5.497 134.011 5.528 132.525 7.436 133.416 8 134.434 5.794 134.465 5.794 135.404 7.984 136.39 7.421 134.888 5.543 134.888 5.512 137.25 5.794 137.25 4.73 134.888 5.042 134.888 5.011"/><polygon fill="#0bceb2" points="9.081 46.067 8.225 47.166 8.739 47.49 9.325 46.22 9.342 46.22 9.883 47.481 10.451 47.157 9.586 46.075 9.586 46.057 10.946 46.22 10.946 45.607 9.586 45.787 9.586 45.769 10.442 44.643 9.902 44.337 9.352 45.598 9.334 45.598 8.775 44.345 8.225 44.661 9.072 45.76 9.072 45.778 7.747 45.607 7.747 46.22 9.081 46.049 9.081 46.067"/><polygon fill="#0bceb2" points="94.305 13.713 94.305 12.67 91.988 12.977 91.988 12.946 93.446 11.028 92.525 10.506 91.589 12.654 91.558 12.654 90.607 10.521 89.67 11.059 91.113 12.931 91.113 12.962 88.856 12.67 88.856 13.713 91.128 13.422 91.128 13.453 89.67 15.325 90.545 15.878 91.543 13.713 91.573 13.713 92.494 15.862 93.461 15.31 91.988 13.468 91.988 13.437 94.305 13.713"/><polygon fill="#0bceb2" points="116.748 19.586 118.006 17.931 117.211 17.481 116.404 19.334 116.377 19.334 115.557 17.494 114.748 17.958 115.993 19.573 115.993 19.599 114.047 19.348 114.047 20.248 116.006 19.996 116.006 20.023 114.748 21.638 115.503 22.115 116.364 20.248 116.39 20.248 117.185 22.101 118.019 21.625 116.748 20.036 116.748 20.009 118.746 20.248 118.746 19.348 116.748 19.612 116.748 19.586"/></svg>