<svg xmlns="http://www.w3.org/2000/svg" width="64" height="64" enable-background="new 0 0 64 64" viewBox="0 0 64 64"><rect width="10" height="34" x="54" y="21" fill="#E3E3E3"/><rect width="7" height="28" x="54" y="24" fill="#FFF"/><rect width="10" height="8" x="54" y="13" fill="#54E3E3"/><rect width="10" height="34" y="21" fill="#E3E3E3"/><rect width="7" height="28" x="3" y="24" fill="#FFF"/><rect width="10" height="8" y="13" fill="#54E3E3"/><rect width="50" height="48" x="7" y="10" fill="#E3E3E3"/><rect width="44" height="42" x="10" y="13" fill="#FFF"/><rect width="50" height="8" x="7" y="2" fill="#54E3E3"/><line x1="10" x2="12" y1="6" y2="6" fill="none" stroke="#2B2B2B" stroke-miterlimit="10" stroke-width="2"/><line x1="14" x2="16" y1="6" y2="6" fill="none" stroke="#2B2B2B" stroke-miterlimit="10" stroke-width="2"/><line x1="18" x2="20" y1="6" y2="6" fill="none" stroke="#2B2B2B" stroke-miterlimit="10" stroke-width="2"/><line x1="22" x2="54" y1="6" y2="6" fill="none" stroke="#FFF" stroke-miterlimit="10" stroke-width="2"/><g><polygon fill="#FF661A" points="32 44 26 44 26 61 27 62 32 58 37 62 38 61 38 44"/><line x1="49" x2="51" y1="32" y2="32" fill="none" stroke="#2B2B2B" stroke-miterlimit="10" stroke-width="2"/><line x1="13" x2="15" y1="32" y2="32" fill="none" stroke="#2B2B2B" stroke-miterlimit="10" stroke-width="2"/><g><circle cx="32" cy="32" r="13" fill="none" stroke="#2B2B2B" stroke-miterlimit="10" stroke-width="2"/><circle cx="32" cy="32" r="10" fill="#FF661A"/><polyline fill="none" stroke="#FFF" stroke-miterlimit="10" stroke-width="2" points="29 28 32 28 32 36"/><line x1="29" x2="35" y1="36" y2="36" fill="none" stroke="#FFF" stroke-miterlimit="10" stroke-width="2"/></g></g><rect width="3" height="3" x="7" y="52" fill="#CACACA"/><rect width="3" height="3" x="54" y="52" fill="#CACACA"/><rect width="3" height="3" x="7" y="21" fill="#CACACA"/><rect width="3" height="3" x="54" y="21" fill="#CACACA"/><rect width="3" height="8" x="7" y="13" fill="#4BCACA"/><rect width="3" height="8" x="54" y="13" fill="#4BCACA"/><rect width="12" height="3" x="26" y="55" fill="#E35B17"/></svg>