<svg xmlns="http://www.w3.org/2000/svg" width="16" height="16" viewBox="0 0 16 16"><path fill-rule="evenodd" d="M 8 1 C 4.1399591 1 1.0000428 4.1398846 1 8 C 0.99997942 11.860009 4.1399146 15 8 15 C 11.860086 15 15.00002 11.860115 15 8 C 14.999957 4.1398846 11.860041 1 8 1 z M 8 2 C 11.319604 2 13.999963 4.6803455 14 8 C 14.000018 11.319654 11.319644 14 8 14 C 4.6803565 14 1.9980292 11.319654 1.9980469 8 C 1.9980837 4.6803455 4.6803952 2 8 2 z M 11.828125 5.5742188 A 0.50004997 0.50004997 0 0 0 11.515625 5.6816406 L 6.3574219 9.6171875 L 4.5664062 7.4238281 A 0.50030059 0.50030059 0 0 0 3.7929688 8.0566406 L 6.1953125 11 L 12.123047 6.4765625 A 0.50004997 0.50004997 0 0 0 11.828125 5.5742188 z " color="#000" font-family="sans-serif" font-weight="400" overflow="visible" style="line-height:normal;text-indent:0;text-align:start;text-decoration-line:none;text-decoration-style:solid;text-decoration-color:#000;text-transform:none;block-progression:tb;isolation:auto;mix-blend-mode:normal"/></svg>