<svg xmlns="http://www.w3.org/2000/svg" enable-background="new 0 0 66 66" viewBox="0 0 66 66"><path d="M12.2 16.7c2.5 0 4.4-2 4.4-4.4s-2-4.4-4.4-4.4-4.4 2-4.4 4.4S9.8 16.7 12.2 16.7zM12.2 9.8c1.4 0 2.4 1.1 2.4 2.4s-1.1 2.4-2.4 2.4c-1.3 0-2.4-1.1-2.4-2.4S10.9 9.8 12.2 9.8zM28.8 24.5c-1.2 0-2.4.6-3.1 1.5-.8 1-1 2.2-.7 3.4.3 1.4 1.5 2.6 3 2.9.3.1.6.1.9.1 2.2 0 4-1.8 4-4C32.8 26.3 31 24.5 28.8 24.5zM28.4 30.4c-.7-.2-1.3-.7-1.4-1.4-.2-.6 0-1.2.4-1.7.4-.5.9-.8 1.5-.8 1.1 0 2 .9 2 2C30.8 29.7 29.6 30.7 28.4 30.4z"/><path d="M38.8,26l-2.1-0.7c0-0.1-0.1-0.2-0.1-0.3l1-2c0.2-0.4,0.1-0.9-0.2-1.2l-2.1-2.1c-0.3-0.3-0.8-0.4-1.2-0.2l-2,1
		c-0.1,0-0.2-0.1-0.3-0.1l-0.7-2.1c-0.1-0.4-0.5-0.7-1-0.7h-3c-0.4,0-0.8,0.3-1,0.7l-0.7,2.1c-0.1,0-0.2,0.1-0.3,0.1l-2-1
		c-0.4-0.2-0.9-0.1-1.2,0.2L20.2,22c-0.3,0.3-0.4,0.8-0.2,1.2l1,2c0,0.1-0.1,0.2-0.1,0.3l-2.1,0.7c-0.4,0.1-0.7,0.5-0.7,1v3
		c0,0.4,0.3,0.8,0.7,1l2.1,0.7c0,0.1,0.1,0.2,0.1,0.3l-1,2c-0.2,0.4-0.1,0.9,0.2,1.2l2.1,2.1c0.3,0.3,0.8,0.4,1.2,0.2l2-1
		c0.1,0,0.2,0.1,0.3,0.1l0.7,2.1c0.1,0.4,0.5,0.7,1,0.7h0.5v16.5c0,0.6,0.4,1,1,1s1-0.4,1-1v-1h2.8c0.6,0,1-0.4,1-1s-0.4-1-1-1h-2.8
		v-2h4.6c0.6,0,1-0.4,1-1s-0.4-1-1-1h-4.6v-2h2.8c0.6,0,1-0.4,1-1s-0.4-1-1-1h-2.8v-5.6h0.5c0.4,0,0.8-0.3,1-0.7l0.7-2.1
		c0.1,0,0.2-0.1,0.3-0.1l2,1c0.4,0.2,0.9,0.1,1.2-0.2l2.1-2.1c0.3-0.3,0.4-0.8,0.2-1.2l-1-2c0-0.1,0.1-0.2,0.1-0.3l2.1-0.7
		c0.4-0.1,0.7-0.5,0.7-1v-3C39.5,26.6,39.2,26.2,38.8,26z M37.5,29.2l-1.9,0.6c-0.3,0.1-0.5,0.3-0.6,0.6c-0.1,0.3-0.2,0.6-0.4,0.9
		c-0.1,0.3-0.1,0.6,0,0.9l0.9,1.8l-1.1,1.1l-1.8-0.9c-0.3-0.1-0.6-0.1-0.9,0c-0.3,0.2-0.6,0.3-0.9,0.4c-0.3,0.1-0.5,0.3-0.6,0.6
		l-0.6,1.9h-1.5l-0.6-1.9c-0.1-0.3-0.3-0.5-0.6-0.6c-0.3-0.1-0.6-0.2-0.9-0.4c-0.3-0.1-0.6-0.1-0.9,0l-1.8,0.9l-1.1-1.1l0.9-1.8
		c0.1-0.3,0.1-0.6,0-0.9c-0.2-0.3-0.3-0.6-0.4-0.9c-0.1-0.3-0.3-0.5-0.6-0.6l-1.9-0.6v-1.5l1.9-0.6c0.3-0.1,0.5-0.3,0.6-0.6
		c0.1-0.3,0.2-0.6,0.4-0.9c0.1-0.3,0.1-0.6,0-0.9l-0.9-1.8l1.1-1.1l1.8,0.9c0.3,0.1,0.6,0.1,0.9,0c0.3-0.2,0.6-0.3,0.9-0.4
		c0.3-0.1,0.5-0.3,0.6-0.6l0.6-1.9h1.5l0.6,1.9c0.1,0.3,0.3,0.5,0.6,0.6c0.3,0.1,0.6,0.2,0.9,0.4c0.3,0.1,0.6,0.1,0.9,0l1.8-0.9
		l1.1,1.1l-0.9,1.7c-0.1,0.3-0.1,0.6,0,0.9c0.2,0.3,0.3,0.6,0.4,0.9c0.1,0.3,0.3,0.5,0.6,0.6l1.9,0.6V29.2z"/><path d="M54.3,1c-4.1,0-7.4,3.3-7.4,7.4v5h-0.1c-1.2,0-2.2,0.7-2.8,1.6c-3.9-3.5-8.8-5.5-14-5.6c-2.2-0.1-4.4,0.2-6.5,0.7
		c0,0,0-0.1,0-0.1l-1-3c-0.1-0.4-0.6-0.7-1-0.7l-2.4,0c-0.1-0.1-0.2-0.2-0.2-0.3l0.3-2.3c0.1-0.4-0.2-0.8-0.6-1l-2.8-1.4
		c-0.4-0.2-0.9-0.1-1.2,0.2l-1.6,1.7c-0.1,0-0.2,0-0.4,0l-1.4-1.9c-0.3-0.3-0.7-0.5-1.1-0.3l-3,1c-0.4,0.1-0.7,0.5-0.7,1l0,2.4
		C6.3,5.5,6.3,5.6,6.2,5.6L3.8,5.3C3.4,5.3,3,5.5,2.8,5.9L1.4,8.7C1.2,9.1,1.3,9.6,1.6,9.9l1.7,1.6c0,0.1,0,0.2,0,0.4l-1.9,1.4
		C1,13.6,0.9,14,1.1,14.4l1,3c0.1,0.4,0.5,0.6,1,0.7l2.4,0c0.1,0.1,0.2,0.2,0.2,0.3l-0.3,2.3c-0.1,0.4,0.2,0.8,0.6,1l2.1,1
		c-1.5,3.1-2.3,6.6-2.3,10.2c0.3,8.1,3.2,12,6.3,16.1c2.8,3.7,5.7,7.6,6.7,15.2c0.1,0.5,0.5,0.9,1,0.9h21.8c0.6,0,1-0.4,1-1v-7.4H44
		c3.4,0,6.1-2.7,6.1-6.1v-1.8h5.2c0.7,0,1.1-0.6,1-1.3L52,32.9c0-0.3,0-0.6,0-0.8h9.9c1.8,0,3.2-1.4,3.2-3.2V16.6
		c0-1.8-1.4-3.2-3.2-3.2h-0.2v-5C61.7,4.3,58.3,1,54.3,1z M48.9,8.4c0-3,2.4-5.4,5.4-5.4s5.4,2.4,5.4,5.4v5H48.9V8.4z M7.4,17.2
		c-0.2-0.2-0.5-0.5-0.7-0.8C6.5,16.2,6.2,16,5.9,16l-2.1,0l-0.6-1.6l1.7-1.3c0.3-0.2,0.4-0.5,0.4-0.8c0-0.4,0-0.8,0.1-1.1
		c0-0.3-0.1-0.6-0.3-0.9L3.5,8.9l0.7-1.5l2.1,0.3c0.3,0,0.6-0.1,0.9-0.3C7.5,7.1,7.8,6.9,8,6.7c0.3-0.2,0.4-0.5,0.4-0.8l0-2.1
		L10,3.2l1.3,1.7c0.2,0.3,0.5,0.4,0.8,0.4l0.2,0c0.3,0,0.6,0,0.9,0.1c0.3,0,0.6-0.1,0.9-0.3l1.5-1.5l1.5,0.7l-0.3,2.1
		c0,0.3,0.1,0.6,0.3,0.9c0.3,0.3,0.5,0.5,0.7,0.8c0.2,0.3,0.5,0.4,0.8,0.4l2.1,0l0.6,1.6l-1.7,1.3c-0.3,0.2-0.4,0.5-0.4,0.8
		c0,0.4,0,0.7-0.1,1.1c0,0.3,0.1,0.6,0.3,0.9l1.5,1.5L20.2,17l-2.1-0.3c-0.3,0-0.6,0.1-0.9,0.3c-0.3,0.3-0.5,0.5-0.8,0.7
		C16.2,18,16,18.3,16,18.6l0.1,2.1l-1.6,0.6l-1.3-1.7c-0.2-0.2-0.5-0.4-0.8-0.4c0,0,0,0,0,0l-0.1,0c-0.3,0-0.7,0-1-0.1
		c-0.3,0-0.6,0.1-0.9,0.3L9,21l-1.5-0.7l0.3-2.1C7.8,17.8,7.6,17.4,7.4,17.2z M50,33.1c0,0.1,0,0.2,0,0.3l3.9,13.3h-4.9
		c-0.6,0-1,0.4-1,1v2.8c0,2.2-1.8,4.1-4.1,4.1h-2.6c-0.6,0-1,0.4-1,1V63H20.5c-1.2-7.6-4.3-11.7-7-15.3c-2.9-3.8-5.6-7.4-5.9-14.9
		c0-3.7,1-7.3,2.8-10.5l1.1-1.2c0.1,0,0.2,0,0.3,0l1.4,1.9c0.2,0.3,0.5,0.4,0.8,0.4c0.1,0,0.2,0,0.3-0.1l3-1c0.4-0.1,0.7-0.5,0.7-1
		L18,19c0.1-0.1,0.2-0.2,0.3-0.2l2.4,0.3c0.4,0.1,0.8-0.2,1-0.6l1.4-2.8c0.2-0.4,0.1-0.9-0.2-1.2l-1.7-1.6c2.8-1.1,5.7-1.6,8.7-1.5
		c5.2,0.2,10,2.3,13.7,6v11.5c0,1.8,1.4,3.2,3.2,3.2H50C50,32.4,50,32.8,50,33.1z M63,16.6v12.3c0,0.7-0.5,1.2-1.2,1.2H46.7
		c-0.7,0-1.2-0.5-1.2-1.2V16.6c0-0.7,0.5-1.2,1.2-1.2h1.1h12.8h1.2C62.5,15.4,63,16,63,16.6z"/><path d="M54.3,18.5c-1.7,0-3.2,1.4-3.2,3.2c0,1.4,0.9,2.6,2.2,3v1.4c0,0.6,0.4,1,1,1s1-0.4,1-1v-1.4c1.3-0.4,2.2-1.6,2.2-3
		C57.4,19.9,56,18.5,54.3,18.5z M54.3,22.8c-0.6,0-1.2-0.5-1.2-1.2s0.5-1.2,1.2-1.2c0.6,0,1.2,0.5,1.2,1.2S54.9,22.8,54.3,22.8z"/></svg>