<svg xmlns="http://www.w3.org/2000/svg" enable-background="new 0 0 256 256" viewBox="0 0 256 256"><path fill="#648940" d="M131.923,250.256h-7.846c-1.132,0-2.038-0.938-1.999-2.07l1.928-55.42h7.988l1.928,55.42
			C133.961,249.318,133.055,250.256,131.923,250.256z"/><path fill="#5A7A39" d="M131.994,192.766h-4.826l1.754,50.42c0.039,1.131-0.867,2.07-1.999,2.07h-4.743l-0.102,2.93
			c-0.039,1.131,0.867,2.07,1.999,2.07h7.846c1.132,0,2.038-0.938,1.999-2.07L131.994,192.766z"/><path fill="#76A34F" d="M240.617,131.194c-11.781,1.368-41.678,6.024-67.637,19.916c-0.257,0.138-0.488,0.285-0.743,0.424
			c3.219-4.258,6.42-8.853,9.527-13.827c18.753-30.024,28.517-64.411,31.908-78.1c0.496-2.001-1.86-3.472-3.44-2.149
			c-10.813,9.054-37.43,32.915-56.182,62.939c-3.96,6.34-7.311,12.554-10.165,18.521c1.537-10.175,2.546-21.527,2.546-33.876
			c0-42.034-11.61-82.785-16.401-97.81c-0.632-1.984-3.427-1.984-4.059,0c-4.79,15.026-16.401,55.777-16.401,97.81
			c0,12.349,1.009,23.702,2.546,33.876c-2.854-5.967-6.206-12.181-10.165-18.521C83.197,90.373,56.581,66.512,45.768,57.458
			c-1.58-1.323-3.936,0.148-3.44,2.149c3.391,13.689,13.155,48.076,31.907,78.1c3.106,4.973,6.307,9.568,9.527,13.827
			c-0.254-0.138-0.486-0.286-0.743-0.423c-25.959-13.892-55.856-18.548-67.636-19.916c-1.918-0.223-3.122,2.025-1.872,3.498
			c7.673,9.043,28.132,31.336,54.09,45.228c6.539,3.499,12.925,6.181,18.987,8.269c-19.239,5.02-36.222,16.191-43.682,21.611
			c-1.567,1.139-0.949,3.589,0.971,3.847c9.249,1.245,29.882,3.06,49.409-1.868c4.207-1.062,8.072-2.388,11.655-3.84
			c-5.623,6.794-9.131,14.899-10.896,19.822c-0.637,1.775,1.182,3.441,2.895,2.652c5.152-2.373,13.879-7.084,20.374-14.173
			c7.653-8.352,9.937-17.51,10.575-21.139c0.04-0.001,0.072-0.002,0.112-0.003c0.039,0.001,0.072,0.002,0.112,0.003
			c0.637,3.629,2.922,12.786,10.575,21.139c6.495,7.089,15.222,11.8,20.374,14.173c1.713,0.789,3.531-0.878,2.895-2.652
			c-1.765-4.923-5.273-13.029-10.896-19.822c3.583,1.452,7.448,2.778,11.655,3.84c19.526,4.928,40.16,3.113,49.409,1.868
			c1.92-0.259,2.538-2.709,0.971-3.847c-7.46-5.419-24.443-16.59-43.682-21.611c6.062-2.088,12.448-4.77,18.987-8.269
			c25.958-13.892,46.417-36.185,54.09-45.228C243.739,133.22,242.535,130.972,240.617,131.194z"/><path fill="#91B56B" d="M115.569,107.043c-1.104,0-2-0.896-2-2c0-15.208,1.542-31.72,4.585-49.077
			c0.19-1.088,1.226-1.815,2.315-1.624c1.088,0.19,1.815,1.228,1.625,2.315c-3.002,17.129-4.525,33.408-4.525,48.386
			C117.569,106.147,116.674,107.043,115.569,107.043z M121.598,50.448c-0.13,0-0.261-0.013-0.394-0.039
			c-1.083-0.216-1.786-1.27-1.57-2.353l0.176-0.884c0.214-1.083,1.262-1.793,2.351-1.573c1.083,0.215,1.788,1.267,1.573,2.351
			l-0.177,0.89C123.367,49.791,122.532,50.448,121.598,50.448z"/><path fill="#648940" d="M205.672 63.607c-3.391 13.689-13.155 48.076-31.908 78.1-2.29 3.666-4.631 7.127-6.993 10.398-.615.851.327 1.946 1.263 1.47 1.518-.771 3.157-1.59 4.239-2.089 3.208-4.245 6.397-8.824 9.492-13.78 18.753-30.024 28.517-64.411 31.908-78.1.496-2.001-1.86-3.472-3.44-2.149-1.409 1.18-3.091 2.616-4.984 4.28C205.651 62.217 205.853 62.876 205.672 63.607zM240.617 131.194c-2.985.347-7.137.906-12.09 1.772-8.841 10.096-28.13 30.111-52.128 42.954-5.495 2.941-10.881 5.304-16.058 7.222-.9.333-.852 1.61.068 1.884 3.092.921 6.11 1.992 9.034 3.152 6.053-2.087 12.429-4.765 18.957-8.259 25.958-13.892 46.417-36.185 54.09-45.228C243.739 133.22 242.535 130.971 240.617 131.194zM213.094 209.8c-2.398-1.742-5.791-4.081-9.915-6.617-.287.231-.633.407-1.055.464-9.249 1.245-29.883 3.06-49.409-1.868-2.948-.744-5.727-1.618-8.36-2.573-.922-.335-1.731.712-1.159 1.509 4.39 6.121 7.229 12.778 8.759 17.045.637 1.777-1.175 3.447-2.889 2.657-3.458-1.593-8.528-4.244-13.452-7.957.917 1.265 1.929 2.532 3.074 3.782 6.497 7.09 15.226 11.802 20.378 14.175 1.713.789 3.527-.881 2.89-2.656-1.765-4.923-5.273-13.027-10.895-19.82 3.583 1.452 7.448 2.778 11.655 3.84 19.526 4.928 40.16 3.113 49.409 1.868C214.043 213.389 214.662 210.939 213.094 209.8z"/><path fill="#5A7A39" d="M208.745 62.162c-3.391 13.689-13.155 48.076-31.908 78.1-2.278 3.647-4.606 7.09-6.955 10.346-.615.852.33 1.949 1.265 1.47.42-.215.802-.409 1.1-.555 3.216-4.255 6.414-8.846 9.518-13.815 18.753-30.024 28.517-64.411 31.908-78.1.496-2.001-1.86-3.472-3.44-2.149-.8.67-1.697 1.431-2.661 2.26C208.423 60.12 209.018 61.059 208.745 62.162zM240.617 131.194c-1.265.147-2.75.335-4.405.565-.072.314-.22.622-.458.902-7.674 9.043-28.132 31.336-54.09 45.228-5.495 2.941-10.882 5.304-16.06 7.223-.898.333-.854 1.61.064 1.883 1.26.375 2.508.775 3.743 1.194 6.062-2.088 12.448-4.77 18.986-8.269 25.958-13.892 46.417-36.185 54.09-45.228C243.739 133.22 242.535 130.971 240.617 131.194zM213.094 209.8c-1.158-.841-2.57-1.833-4.16-2.907-.15.853-.787 1.616-1.811 1.754-9.249 1.245-29.883 3.06-49.409-1.868-2.948-.744-5.727-1.617-8.36-2.573-.922-.335-1.731.712-1.16 1.509 4.395 6.127 7.235 12.791 8.764 17.058.637 1.777-1.179 3.434-2.894 2.644-4.143-1.908-10.6-5.333-16.349-10.288.317.372.632.743.97 1.113 6.497 7.09 15.226 11.802 20.378 14.175 1.713.789 3.527-.881 2.89-2.656-1.765-4.923-5.273-13.027-10.895-19.82 3.583 1.452 7.448 2.778 11.655 3.84 19.526 4.928 40.16 3.113 49.409 1.868C214.043 213.389 214.662 210.939 213.094 209.8z"/><path fill="#5A7A39" d="M211.265,150.461c-0.453-1.008-1.638-1.455-2.644-1.004l-75.175,33.815l56.235-85.544
		c0.606-0.923,0.35-2.163-0.573-2.77c-0.922-0.607-2.163-0.35-2.77,0.572L130,181.231V63.41c0-1.104-0.896-2-2-2s-2,0.896-2,2
		v117.821l-56.338-85.7c-0.607-0.924-1.848-1.18-2.77-0.572c-0.923,0.606-1.179,1.847-0.573,2.77l56.235,85.544l-75.175-33.815
		c-1.006-0.451-2.191-0.004-2.644,1.004c-0.453,1.007-0.004,2.191,1.003,2.645l76.54,34.429l-51.645,15.411
		c-1.059,0.315-1.661,1.43-1.345,2.488c0.259,0.867,1.054,1.429,1.916,1.429c0.189,0,0.382-0.027,0.573-0.084l51.077-15.241
		l-10.396,14.14c-0.654,0.89-0.463,2.142,0.427,2.796c0.356,0.263,0.771,0.389,1.183,0.389c0.614,0,1.221-0.282,1.613-0.815
		L128,191.291l12.319,16.755c0.392,0.533,0.999,0.815,1.613,0.815c0.412,0,0.827-0.126,1.183-0.389
		c0.89-0.654,1.081-1.906,0.427-2.796l-10.397-14.14l51.078,15.241c0.191,0.057,0.383,0.084,0.573,0.084
		c0.861,0,1.657-0.562,1.916-1.429c0.316-1.059-0.286-2.173-1.345-2.488l-51.645-15.411l76.54-34.429
		C211.269,152.652,211.718,151.468,211.265,150.461z"/></svg>