<svg xmlns="http://www.w3.org/2000/svg" viewBox="0 0 64 64"><path d="M1.553 21.895 3 22.618V26c0 .197.059.391.168.555L5 29.303V32c0 .197.059.391.168.555l3.904 5.856.958 3.832a.998.998 0 0 0 .263.464l4.794 4.794 1.937 8.716a1 1 0 0 0 1.87.23l5-10a.998.998 0 0 0 .095-.589l-1-7a1 1 0 0 0-.542-.753l-4-2a.981.981 0 0 0-.251-.086l-4.625-.925L11 31.667V30h1.586l1.707 1.707A.997.997 0 0 0 15 32h2a1 1 0 0 0 1-1v-1.586l2.707-2.707c.11-.11.192-.244.242-.391l1-3a1.008 1.008 0 0 0 0-.633l-1-3a1.001 1.001 0 0 0-.394-.516L18 17.465V14c0-.127-.024-.253-.071-.372l-2-5a.999.999 0 0 0-1.636-.336l-2.833 2.833-2.776.925a1.003 1.003 0 0 0-.578.501L6.517 15.73l-4.146-1.659A1 1 0 0 0 1 15v6c0 .379.214.725.553.895zM3 16.477l3.628 1.452a1.003 1.003 0 0 0 1.266-.481l1.814-3.629 2.607-.869c.147-.049.281-.132.391-.242l1.928-1.928L16 14.192V18c0 .334.167.646.445.832l2.714 1.81.787 2.358-.82 2.46-2.833 2.833A.997.997 0 0 0 16 29v1h-.586l-1.707-1.707A.997.997 0 0 0 13 28h-3a1 1 0 0 0-1 1v3a1 1 0 0 0 .2.6l3 4a.994.994 0 0 0 .604.38l4.869.974 3.412 1.706.882 6.172-3.601 7.202-1.389-6.25a.99.99 0 0 0-.269-.49l-4.804-4.804-.933-3.731a1.015 1.015 0 0 0-.138-.312L7 31.697V29c0-.197-.059-.391-.168-.555L5 25.697V22c0-.379-.214-.725-.553-.895L3 20.382v-3.905zm16.051-3.161 1 3a.994.994 0 0 0 .349.483l4 3a1.002 1.002 0 0 0 1.495-.353l4-8A.995.995 0 0 0 30 11V8a1 1 0 0 0-.684-.949l-3-1A1 1 0 0 0 26 6h-3c-.155 0-.309.036-.447.105l-4 2a1 1 0 0 0-.523 1.137l1.021 4.074zM23.236 8h2.602L28 8.721v2.043l-3.358 6.717-2.792-2.094-.879-2.63-.806-3.222L23.236 8zm39.211 8.105-12-6a1 1 0 0 0-.895 0l-9.629 4.815-2.48-.827-2.889-1.926a1 1 0 0 0-1.109 0l-3 2a1.002 1.002 0 0 0-.34.385l-2 4A1 1 0 0 0 29 20h1.697l1.5 1-4.752 3.168a1.002 1.002 0 0 0-.34.385l-1 2a1 1 0 0 0 0 .895l.678 1.355-2.49 2.49A.997.997 0 0 0 24 32v3c0 .155.036.309.105.447l2 4c.131.261.369.452.652.523l3.348.837.905 6.334c.03.214.13.413.283.565l2 2a.996.996 0 0 0 1.154.189l4-2c.339-.17.553-.516.553-.895v-4.764l1.895-3.789c.226-.451.08-1-.34-1.279L38 35.465v-1.078l1.684.562c.252.084.527.063.764-.054l1.355-.678 3.49 3.49a1 1 0 0 0 1.601-.26l1.927-3.855.741-.741 1.488 4.465c.07.211.209.392.394.516l3 2a1 1 0 0 0 1.525-.589l1-4a1.002 1.002 0 0 0-.138-.797l-1.445-2.168 2.168-1.445a.999.999 0 0 0 .426-.636l1-5c.052-.26-.001-.53-.148-.751l-1.545-2.318.225-.225 3.731-.933a1 1 0 0 0 .706-.654l1-3a1.001 1.001 0 0 0-.502-1.211zm-2.222 3.058-3.468.867a.998.998 0 0 0-.464.263l-1 1a1 1 0 0 0-.125 1.262l1.77 2.655-.837 4.188-2.655 1.77a1 1 0 0 0-.277 1.387l1.754 2.632-.548 2.194-1.534-1.022-1.892-5.675a1.002 1.002 0 0 0-1.656-.391l-2 2a1.028 1.028 0 0 0-.188.26l-1.379 2.759-3.019-3.019a1 1 0 0 0-1.154-.188l-1.629.815-2.607-.869a.998.998 0 0 0-.901.138A.998.998 0 0 0 36 33v3c0 .334.167.646.445.832l2.266 1.51-1.605 3.21A.997.997 0 0 0 37 42v4.382l-2.803 1.401-1.254-1.254-.953-6.67a1 1 0 0 0-.747-.829l-3.554-.888L26 34.764v-2.35l2.707-2.707a1 1 0 0 0 .188-1.154L28.118 27l.658-1.315 5.779-3.853a1.001 1.001 0 0 0 0-1.664l-3-2A1.006 1.006 0 0 0 31 18h-.382l1.158-2.315L34 14.202l2.445 1.63c.074.049.154.088.238.117l3 1c.252.083.527.063.764-.054L50 12.118l10.777 5.388-.552 1.657zM62.8 46.4l-3-4a1 1 0 0 0-1.247-.294l-1.629.815-2.607-.869a.999.999 0 0 0-1.023.242l-3 3A.99.99 0 0 0 50 46v2c0 .197.059.391.168.555l2 3c.234.352.663.515 1.075.416l3.571-.893 2.632 1.754a.994.994 0 0 0 .85.123 1 1 0 0 0 .632-.583l2-5a1 1 0 0 0-.128-.972zm-3.271 4.084-1.975-1.316a1 1 0 0 0-.797-.138l-3.316.829L52 47.697v-1.283l2.27-2.27 2.414.805c.252.083.527.063.764-.054l1.253-.627 2.162 2.883-1.334 3.333z"/><path d="M8 22a1 1 0 0 0 0 2 1 1 0 0 0 0-2zm45 3a1 1 0 0 0 0 2 1 1 0 0 0 0-2zM18 40a1 1 0 0 0 0 2 1 1 0 0 0 0-2zm13-4a1 1 0 0 0 0-2 1 1 0 0 0 0 2z"/></svg>